<?xml version="1.0" encoding="utf-8" standalone="no"?>
<!DOCTYPE svg PUBLIC "-//W3C//DTD SVG 1.1//EN"
  "http://www.w3.org/Graphics/SVG/1.1/DTD/svg11.dtd">
<svg xmlns:xlink="http://www.w3.org/1999/xlink" width="121.889764pt" height="121.889764pt" viewBox="0 0 121.889764 121.889764" xmlns="http://www.w3.org/2000/svg" version="1.1">
 <metadata>
  <rdf:RDF xmlns:dc="http://purl.org/dc/elements/1.1/" xmlns:cc="http://creativecommons.org/ns#" xmlns:rdf="http://www.w3.org/1999/02/22-rdf-syntax-ns#">
   <cc:Work>
    <dc:type rdf:resource="http://purl.org/dc/dcmitype/StillImage"/>
    <dc:date>2024-06-26T20:05:39.204682</dc:date>
    <dc:format>image/svg+xml</dc:format>
    <dc:creator>
     <cc:Agent>
      <dc:title>Matplotlib v3.8.4, https://matplotlib.org/</dc:title>
     </cc:Agent>
    </dc:creator>
   </cc:Work>
  </rdf:RDF>
 </metadata>
 <defs>
  <style type="text/css">*{stroke-linejoin: round; stroke-linecap: butt}</style>
 </defs>
 <g id="figure_1">
  <g id="patch_1">
   <path d="M 0 121.889764 
L 121.889764 121.889764 
L 121.889764 0 
L 0 0 
z
" style="fill: #ffffff"/>
  </g>
  <g id="axes_1">
   <g id="patch_2">
    <path d="M 40.645311 83.45841 
L 105.804724 83.45841 
L 105.804724 9.72 
L 40.645311 9.72 
z
" style="fill: #ffffff"/>
   </g>
   <g id="matplotlib.axis_1">
    <g id="xtick_1">
     <g id="line2d_1">
      <defs>
       <path id="m736cb40d0b" d="M 0 0 
L 0 3.5 
" style="stroke: #000000; stroke-width: 0.8"/>
      </defs>
      <g>
       <use xlink:href="#m736cb40d0b" x="40.645311" y="83.45841" style="stroke: #000000; stroke-width: 0.8"/>
      </g>
     </g>
     <g id="text_1">
      <!-- $\mathdefault{−0.1}$ -->
      <g transform="translate(30.405899 97.376909) scale(0.1 -0.1)">
       <defs>
        <path id="CMSY10-0" d="M 4218 1472 
C 4326 1472 4442 1472 4442 1600 
C 4442 1728 4326 1728 4218 1728 
L 755 1728 
C 646 1728 531 1728 531 1600 
C 531 1472 646 1472 755 1472 
L 4218 1472 
z
" transform="scale(0.015625)"/>
        <path id="CMR17-30" d="M 2688 2038 
C 2688 2430 2682 3099 2413 3613 
C 2176 4063 1798 4224 1466 4224 
C 1158 4224 768 4082 525 3620 
C 269 3137 243 2539 243 2038 
C 243 1671 250 1112 448 623 
C 723 -39 1216 -128 1466 -128 
C 1760 -128 2208 -7 2470 604 
C 2662 1048 2688 1568 2688 2038 
z
M 1466 -26 
C 1056 -26 813 328 723 816 
C 653 1196 653 1749 653 2109 
C 653 2604 653 3015 736 3407 
C 858 3954 1216 4121 1466 4121 
C 1728 4121 2067 3947 2189 3420 
C 2272 3054 2278 2623 2278 2109 
C 2278 1691 2278 1176 2202 797 
C 2067 96 1690 -26 1466 -26 
z
" transform="scale(0.015625)"/>
        <path id="CMMI12-3a" d="M 1178 307 
C 1178 492 1024 620 870 620 
C 685 620 557 467 557 313 
C 557 128 710 0 864 0 
C 1050 0 1178 153 1178 307 
z
" transform="scale(0.015625)"/>
        <path id="CMR17-31" d="M 1702 4083 
C 1702 4217 1696 4224 1606 4224 
C 1357 3927 979 3833 621 3820 
C 602 3820 570 3820 563 3808 
C 557 3795 557 3782 557 3648 
C 755 3648 1088 3686 1344 3839 
L 1344 467 
C 1344 243 1331 166 781 166 
L 589 166 
L 589 0 
C 896 6 1216 12 1523 12 
C 1830 12 2150 6 2458 0 
L 2458 166 
L 2266 166 
C 1715 166 1702 236 1702 467 
L 1702 4083 
z
" transform="scale(0.015625)"/>
       </defs>
       <use xlink:href="#CMSY10-0" transform="scale(0.996264)"/>
       <use xlink:href="#CMR17-30" transform="translate(77.487468 0) scale(0.996264)"/>
       <use xlink:href="#CMMI12-3a" transform="translate(123.177945 0) scale(0.996264)"/>
       <use xlink:href="#CMR17-31" transform="translate(150.275122 0) scale(0.996264)"/>
      </g>
     </g>
    </g>
    <g id="xtick_2">
     <g id="line2d_2">
      <g>
       <use xlink:href="#m736cb40d0b" x="73.225017" y="83.45841" style="stroke: #000000; stroke-width: 0.8"/>
      </g>
     </g>
     <g id="text_2">
      <!-- $\mathdefault{0.0}$ -->
      <g transform="translate(66.859978 97.376909) scale(0.1 -0.1)">
       <use xlink:href="#CMR17-30" transform="scale(0.996264)"/>
       <use xlink:href="#CMMI12-3a" transform="translate(45.690477 0) scale(0.996264)"/>
       <use xlink:href="#CMR17-30" transform="translate(72.787654 0) scale(0.996264)"/>
      </g>
     </g>
    </g>
    <g id="xtick_3">
     <g id="line2d_3">
      <g>
       <use xlink:href="#m736cb40d0b" x="105.804724" y="83.45841" style="stroke: #000000; stroke-width: 0.8"/>
      </g>
     </g>
     <g id="text_3">
      <!-- $\mathdefault{0.1}$ -->
      <g transform="translate(99.439685 97.376909) scale(0.1 -0.1)">
       <use xlink:href="#CMR17-30" transform="scale(0.996264)"/>
       <use xlink:href="#CMMI12-3a" transform="translate(45.690477 0) scale(0.996264)"/>
       <use xlink:href="#CMR17-31" transform="translate(72.787654 0) scale(0.996264)"/>
      </g>
     </g>
    </g>
    <g id="text_4">
     <!-- $m$ -->
     <g transform="translate(68.851351 110.232585) scale(0.1 -0.1)">
      <defs>
       <path id="CMMI12-6d" d="M 1318 1870 
C 1331 1909 1491 2228 1728 2432 
C 1894 2585 2112 2687 2362 2687 
C 2618 2687 2707 2496 2707 2241 
C 2707 2202 2707 2075 2630 1775 
L 2470 1117 
C 2419 925 2298 453 2285 383 
C 2259 287 2221 121 2221 95 
C 2221 6 2291 -64 2387 -64 
C 2579 -64 2611 83 2669 313 
L 3053 1838 
C 3066 1890 3398 2687 4102 2687 
C 4358 2687 4448 2496 4448 2241 
C 4448 1883 4198 1187 4058 804 
C 4000 651 3968 568 3968 453 
C 3968 166 4166 -64 4474 -64 
C 5069 -64 5293 874 5293 913 
C 5293 945 5267 970 5229 970 
C 5171 970 5165 951 5133 842 
C 4986 332 4749 64 4493 64 
C 4429 64 4326 70 4326 274 
C 4326 440 4403 645 4429 715 
C 4544 1021 4832 1775 4832 2145 
C 4832 2528 4608 2816 4122 2816 
C 3693 2816 3347 2573 3091 2196 
C 3072 2541 2861 2816 2381 2816 
C 1811 2816 1510 2413 1395 2253 
C 1376 2617 1114 2816 832 2816 
C 646 2816 499 2726 378 2483 
C 262 2253 173 1864 173 1838 
C 173 1813 198 1781 243 1781 
C 294 1781 301 1787 339 1934 
C 435 2311 557 2687 813 2687 
C 960 2687 1011 2585 1011 2394 
C 1011 2253 947 2004 902 1807 
L 723 1117 
C 698 996 627 708 595 593 
C 550 427 480 127 480 95 
C 480 6 550 -64 646 -64 
C 723 -64 813 -26 864 70 
C 877 102 934 325 966 453 
L 1107 1028 
L 1318 1870 
z
" transform="scale(0.015625)"/>
      </defs>
      <use xlink:href="#CMMI12-6d" transform="scale(0.996264)"/>
     </g>
    </g>
   </g>
   <g id="matplotlib.axis_2">
    <g id="ytick_1">
     <g id="line2d_4">
      <defs>
       <path id="m1f40ad9dd5" d="M 0 0 
L -3.5 0 
" style="stroke: #000000; stroke-width: 0.8"/>
      </defs>
      <g>
       <use xlink:href="#m1f40ad9dd5" x="40.645311" y="80.106664" style="stroke: #000000; stroke-width: 0.8"/>
      </g>
     </g>
     <g id="text_5">
      <!-- $\mathdefault{0}$ -->
      <g transform="translate(28.663975 83.565914) scale(0.1 -0.1)">
       <use xlink:href="#CMR17-30" transform="scale(0.996264)"/>
      </g>
     </g>
    </g>
    <g id="ytick_2">
     <g id="line2d_5">
      <g>
       <use xlink:href="#m1f40ad9dd5" x="40.645311" y="56.537004" style="stroke: #000000; stroke-width: 0.8"/>
      </g>
     </g>
     <g id="text_6">
      <!-- $\mathdefault{20}$ -->
      <g transform="translate(23.68264 59.996254) scale(0.1 -0.1)">
       <defs>
        <path id="CMR17-32" d="M 2669 990 
L 2554 990 
C 2490 537 2438 460 2413 422 
C 2381 371 1920 371 1830 371 
L 602 371 
C 832 620 1280 1073 1824 1596 
C 2214 1966 2669 2400 2669 3033 
C 2669 3788 2067 4224 1395 4224 
C 691 4224 262 3603 262 3027 
C 262 2777 448 2745 525 2745 
C 589 2745 781 2783 781 3007 
C 781 3206 614 3264 525 3264 
C 486 3264 448 3257 422 3244 
C 544 3788 915 4057 1306 4057 
C 1862 4057 2227 3616 2227 3033 
C 2227 2477 1901 1998 1536 1583 
L 262 147 
L 262 0 
L 2515 0 
L 2669 990 
z
" transform="scale(0.015625)"/>
       </defs>
       <use xlink:href="#CMR17-32" transform="scale(0.996264)"/>
       <use xlink:href="#CMR17-30" transform="translate(45.690477 0) scale(0.996264)"/>
      </g>
     </g>
    </g>
    <g id="ytick_3">
     <g id="line2d_6">
      <g>
       <use xlink:href="#m1f40ad9dd5" x="40.645311" y="32.967344" style="stroke: #000000; stroke-width: 0.8"/>
      </g>
     </g>
     <g id="text_7">
      <!-- $\mathdefault{40}$ -->
      <g transform="translate(23.68264 36.426593) scale(0.1 -0.1)">
       <defs>
        <path id="CMR17-34" d="M 2150 4147 
C 2150 4281 2144 4288 2029 4288 
L 128 1254 
L 128 1088 
L 1779 1088 
L 1779 460 
C 1779 230 1766 166 1318 166 
L 1197 166 
L 1197 0 
C 1402 12 1747 12 1965 12 
C 2182 12 2528 12 2733 0 
L 2733 166 
L 2611 166 
C 2163 166 2150 230 2150 460 
L 2150 1088 
L 2803 1088 
L 2803 1254 
L 2150 1254 
L 2150 4147 
z
M 1798 3723 
L 1798 1254 
L 256 1254 
L 1798 3723 
z
" transform="scale(0.015625)"/>
       </defs>
       <use xlink:href="#CMR17-34" transform="scale(0.996264)"/>
       <use xlink:href="#CMR17-30" transform="translate(45.690477 0) scale(0.996264)"/>
      </g>
     </g>
    </g>
    <g id="text_8">
     <!-- $P(m_X | m_Y=0 )$ -->
     <g transform="translate(17.19198 80.85232) rotate(-90) scale(0.1 -0.1)">
      <defs>
       <path id="CMMI12-50" d="M 1894 2022 
L 2970 2022 
C 3853 2022 4736 2673 4736 3400 
C 4736 3898 4314 4352 3507 4352 
L 1530 4352 
C 1408 4352 1350 4352 1350 4230 
C 1350 4166 1408 4166 1504 4166 
C 1894 4166 1894 4115 1894 4045 
C 1894 4032 1894 3994 1869 3898 
L 1005 471 
C 947 249 934 185 486 185 
C 365 185 301 185 301 70 
C 301 0 358 0 397 0 
C 518 0 646 12 768 12 
L 1517 12 
C 1638 12 1773 0 1894 0 
C 1946 0 2016 0 2016 121 
C 2016 185 1958 185 1862 185 
C 1478 185 1472 230 1472 293 
C 1472 325 1478 369 1485 401 
L 1894 2022 
z
M 2355 3917 
C 2413 4153 2438 4166 2688 4166 
L 3322 4166 
C 3802 4166 4198 4013 4198 3534 
C 4198 3369 4115 2826 3821 2533 
C 3712 2418 3405 2176 2822 2176 
L 1920 2176 
L 2355 3917 
z
" transform="scale(0.015625)"/>
       <path id="CMR17-28" d="M 1958 -1562 
C 1958 -1556 1958 -1543 1939 -1524 
C 1645 -1223 858 -403 858 1596 
C 858 3595 1632 4408 1946 4729 
C 1946 4735 1958 4748 1958 4767 
C 1958 4787 1939 4800 1914 4800 
C 1843 4800 1299 4325 986 3620 
C 666 2909 576 2218 576 1603 
C 576 1141 621 360 1005 -467 
C 1312 -1133 1837 -1600 1914 -1600 
C 1946 -1600 1958 -1588 1958 -1562 
z
" transform="scale(0.015625)"/>
       <path id="CMMI12-58" d="M 3040 2586 
L 2438 3981 
C 2522 4134 2714 4159 2790 4166 
C 2829 4166 2899 4172 2899 4281 
C 2899 4352 2842 4352 2803 4352 
C 2694 4352 2566 4339 2458 4339 
L 2086 4339 
C 1696 4339 1414 4352 1408 4352 
C 1357 4352 1293 4352 1293 4230 
C 1293 4166 1350 4166 1434 4166 
C 1805 4166 1830 4102 1894 3949 
L 2656 2179 
L 1267 701 
C 1037 453 762 211 288 185 
C 211 179 160 179 160 64 
C 160 44 166 0 237 0 
C 326 0 422 12 512 12 
L 813 12 
C 1018 12 1242 0 1440 0 
C 1485 0 1562 0 1562 115 
C 1562 179 1517 185 1478 185 
C 1350 198 1267 268 1267 370 
C 1267 478 1344 555 1530 746 
L 2099 1363 
C 2240 1510 2579 1879 2720 2019 
L 3392 453 
C 3398 440 3424 376 3424 370 
C 3424 312 3283 198 3078 185 
C 3040 185 2970 179 2970 64 
C 2970 0 3034 0 3066 0 
C 3174 0 3302 12 3411 12 
L 4115 12 
C 4230 12 4352 0 4461 0 
C 4506 0 4576 0 4576 121 
C 4576 185 4512 185 4454 185 
C 4070 191 4058 223 3949 459 
L 3104 2433 
L 3917 3300 
C 3981 3363 4128 3523 4186 3586 
C 4461 3873 4717 4134 5235 4166 
C 5299 4172 5363 4172 5363 4281 
C 5363 4352 5306 4352 5280 4352 
C 5190 4352 5094 4339 5005 4339 
L 4710 4339 
C 4506 4339 4282 4352 4083 4352 
C 4038 4352 3962 4352 3962 4236 
C 3962 4172 4006 4166 4045 4166 
C 4147 4153 4256 4102 4256 3981 
L 4250 3968 
C 4243 3924 4230 3860 4160 3784 
L 3040 2586 
z
" transform="scale(0.015625)"/>
       <path id="CMSY10-6a" d="M 1018 4569 
C 1018 4684 1018 4800 890 4800 
C 762 4800 762 4684 762 4569 
L 762 -1370 
C 762 -1485 762 -1600 890 -1600 
C 1018 -1600 1018 -1485 1018 -1370 
L 1018 4569 
z
" transform="scale(0.015625)"/>
       <path id="CMMI12-59" d="M 3763 3644 
L 3910 3790 
C 4192 4077 4429 4147 4653 4166 
C 4723 4172 4781 4179 4781 4287 
C 4781 4352 4717 4352 4704 4352 
C 4627 4352 4544 4339 4467 4339 
L 4205 4339 
C 4019 4339 3821 4352 3642 4352 
C 3597 4352 3526 4352 3526 4230 
C 3526 4172 3590 4166 3610 4166 
C 3802 4153 3802 4058 3802 4019 
C 3802 3949 3750 3854 3622 3707 
L 2099 1968 
L 1376 3905 
C 1338 3994 1338 4007 1338 4019 
C 1338 4153 1600 4166 1677 4166 
C 1754 4166 1824 4166 1824 4281 
C 1824 4352 1766 4352 1728 4352 
C 1619 4352 1491 4339 1382 4339 
L 672 4339 
C 557 4339 435 4352 326 4352 
C 282 4352 211 4352 211 4230 
C 211 4166 269 4166 365 4166 
C 678 4166 736 4109 794 3962 
L 1587 1841 
C 1594 1822 1613 1752 1613 1733 
C 1613 1714 1299 459 1280 395 
C 1229 223 1165 191 755 185 
C 646 185 595 185 595 64 
C 595 0 666 0 685 0 
C 800 0 934 12 1056 12 
L 1811 12 
C 1926 12 2061 0 2176 0 
C 2221 0 2298 0 2298 115 
C 2298 185 2253 185 2144 185 
C 1747 185 1747 230 1747 300 
C 1747 344 1798 548 1830 676 
L 2061 1593 
C 2099 1726 2099 1739 2157 1803 
L 3763 3644 
z
" transform="scale(0.015625)"/>
       <path id="CMR17-3d" d="M 4115 2048 
C 4211 2048 4307 2048 4307 2156 
C 4307 2272 4198 2272 4090 2272 
L 512 2272 
C 403 2272 294 2272 294 2156 
C 294 2048 390 2048 486 2048 
L 4115 2048 
z
M 4090 927 
C 4198 927 4307 927 4307 1043 
C 4307 1152 4211 1152 4115 1152 
L 486 1152 
C 390 1152 294 1152 294 1043 
C 294 927 403 927 512 927 
L 4090 927 
z
" transform="scale(0.015625)"/>
       <path id="CMR17-29" d="M 1683 1596 
C 1683 2057 1638 2839 1254 3665 
C 947 4332 422 4800 346 4800 
C 326 4800 301 4793 301 4761 
C 301 4748 307 4742 314 4729 
C 621 4408 1402 3595 1402 1603 
C 1402 -396 627 -1210 314 -1530 
C 307 -1543 301 -1549 301 -1562 
C 301 -1594 326 -1600 346 -1600 
C 416 -1600 960 -1127 1274 -422 
C 1594 289 1683 981 1683 1596 
z
" transform="scale(0.015625)"/>
      </defs>
      <use xlink:href="#CMMI12-50" transform="scale(0.996264)"/>
      <use xlink:href="#CMR17-28" transform="translate(76.425821 0) scale(0.996264)"/>
      <use xlink:href="#CMMI12-6d" transform="translate(111.706589 0) scale(0.996264)"/>
      <use xlink:href="#CMMI12-58" transform="translate(197.033813 -14.943915) scale(0.697382)"/>
      <use xlink:href="#CMSY10-6a" transform="translate(259.686454 0) scale(0.996264)"/>
      <use xlink:href="#CMMI12-6d" transform="translate(287.360539 0) scale(0.996264)"/>
      <use xlink:href="#CMMI12-59" transform="translate(372.687763 -14.943915) scale(0.697382)"/>
      <use xlink:href="#CMR17-3d" transform="translate(455.653102 0) scale(0.996264)"/>
      <use xlink:href="#CMR17-30" transform="translate(555.041899 0) scale(0.996264)"/>
      <use xlink:href="#CMR17-29" transform="translate(600.732376 0) scale(0.996264)"/>
     </g>
    </g>
   </g>
   <g id="line2d_7">
    <path d="M 40.319514 80.106664 
L 65.080091 80.037577 
L 66.383279 79.596261 
L 66.709076 79.194423 
L 67.034873 78.99139 
L 67.36067 78.392159 
L 68.012264 76.371693 
L 68.663858 73.131615 
L 68.989656 70.346953 
L 69.315453 68.87496 
L 70.944438 45.557118 
L 71.270235 40.12738 
L 71.596032 32.018726 
L 71.921829 30.085677 
L 72.573423 18.31819 
L 73.225017 13.88388 
L 73.550815 13.071746 
L 73.876612 13.098535 
L 74.528206 19.285419 
L 74.854003 24.61928 
L 75.1798 27.942545 
L 75.505597 35.017701 
L 75.831394 38.412874 
L 76.157191 43.497173 
L 76.808785 56.728194 
L 77.786176 67.871072 
L 78.111973 70.831978 
L 79.089365 76.614205 
L 79.415162 77.267014 
L 79.740959 78.524694 
L 80.71835 79.711877 
L 81.695741 79.905041 
L 82.021538 80.048856 
L 105.804724 80.106664 
L 105.804724 80.106664 
" clip-path="url(#p8f2c297191)" style="fill: none; stroke: #1f77b4; stroke-width: 1.5; stroke-linecap: square"/>
   </g>
   <g id="line2d_8">
    <path d="M 40.319514 80.106664 
L 48.790237 80.07956 
L 49.116034 79.971144 
L 49.441831 80.059848 
L 51.722411 79.852872 
L 52.048208 79.909544 
L 53.025599 79.668072 
L 54.328787 79.547336 
L 54.654585 79.310792 
L 55.957773 79.281224 
L 56.28357 78.857415 
L 56.609367 78.660295 
L 56.935164 78.234023 
L 57.260961 78.362151 
L 57.912555 78.002406 
L 58.238352 78.076327 
L 58.564149 77.916166 
L 58.889946 77.248422 
L 59.215744 77.157254 
L 59.867338 76.553573 
L 60.193135 76.257893 
L 61.170526 74.8337 
L 61.496323 74.109283 
L 61.82212 74.648899 
L 62.147917 74.368003 
L 62.473714 73.872739 
L 62.799511 72.007489 
L 63.125308 72.655522 
L 63.451105 71.02928 
L 63.776902 71.637889 
L 64.754294 70.100351 
L 65.080091 70.787808 
L 65.405888 68.368158 
L 65.731685 68.920094 
L 66.057482 68.459326 
L 66.383279 65.778491 
L 66.709076 66.419132 
L 67.034873 64.992475 
L 67.36067 66.231868 
L 67.686467 64.955514 
L 68.012264 64.85449 
L 68.338061 62.511224 
L 68.663858 63.521465 
L 68.989656 62.412664 
L 69.315453 63.297241 
L 69.64125 62.17612 
L 69.967047 63.270137 
L 70.618641 60.103894 
L 70.944438 60.862807 
L 71.270235 58.940885 
L 71.596032 58.879285 
L 72.247626 57.64482 
L 72.573423 58.672309 
L 72.89922 59.202069 
L 73.225017 56.304403 
L 73.550815 60.631191 
L 73.876612 60.843095 
L 74.202409 59.369621 
L 74.528206 58.938421 
L 74.854003 57.684244 
L 75.1798 60.232022 
L 75.505597 60.182742 
L 75.831394 59.174965 
L 76.157191 59.519925 
L 76.482988 60.27391 
L 76.808785 61.345751 
L 77.134582 61.025431 
L 77.460379 62.841401 
L 77.786176 62.368312 
L 78.111973 61.496055 
L 78.763568 64.652442 
L 79.089365 64.231098 
L 79.740959 65.679931 
L 80.066756 66.145628 
L 80.392553 67.229789 
L 81.044147 67.047452 
L 81.369944 69.733215 
L 81.695741 68.230174 
L 82.021538 69.841631 
L 82.347335 70.805056 
L 82.673132 70.600544 
L 82.99893 71.191904 
L 83.324727 70.676928 
L 83.650524 72.591458 
L 83.976321 73.17789 
L 84.302118 74.404963 
L 84.953712 73.860419 
L 85.279509 74.064931 
L 85.605306 75.651748 
L 85.931103 75.126916 
L 86.2569 75.942501 
L 86.582697 76.060773 
L 87.234291 76.570821 
L 87.560088 76.644741 
L 87.885886 77.31495 
L 88.211683 77.480038 
L 88.863277 77.960518 
L 89.189074 77.67223 
L 89.514871 78.416359 
L 89.840668 78.362151 
L 90.492262 78.677543 
L 90.818059 78.652903 
L 91.143856 79.034823 
L 91.79545 78.941191 
L 92.772842 79.485736 
L 93.098639 79.547336 
L 93.424436 79.4882 
L 93.750233 79.766632 
L 94.07603 79.724744 
L 94.401827 79.897224 
L 95.379218 79.840552 
L 96.356609 80.01796 
L 97.008203 79.936648 
L 97.334001 80.03028 
L 98.637189 80.03028 
L 104.827333 80.106664 
L 105.804724 80.106664 
L 105.804724 80.106664 
" clip-path="url(#p8f2c297191)" style="fill: none; stroke: #ff7f0e; stroke-width: 1.5; stroke-linecap: square"/>
   </g>
   <g id="line2d_9">
    <path d="M 40.319514 77.867317 
L 40.645311 77.832327 
L 40.971108 77.30748 
L 41.296905 77.189389 
L 41.622702 77.408075 
L 41.948499 78.291568 
L 42.274296 77.058177 
L 42.600093 76.878855 
L 42.92589 77.68362 
L 43.577484 76.279654 
L 43.903281 77.539287 
L 44.229078 76.734522 
L 44.554875 77.434318 
L 44.880672 77.045056 
L 45.20647 77.018814 
L 45.858064 76.625178 
L 46.183861 76.577067 
L 46.835455 76.358381 
L 47.161252 76.690784 
L 47.487049 75.645464 
L 47.812846 76.682037 
L 48.138643 76.752017 
L 48.46444 76.546451 
L 48.790237 76.79138 
L 49.116034 75.824787 
L 49.441831 76.367129 
L 49.767629 76.205301 
L 50.093426 75.837908 
L 50.419223 76.292775 
L 50.74502 75.614848 
L 51.070817 76.354007 
L 51.396614 74.836324 
L 51.722411 76.349634 
L 52.374005 75.0069 
L 52.699802 75.400535 
L 53.025599 74.893183 
L 53.351396 75.544868 
L 53.677193 75.886019 
L 54.00299 75.71107 
L 54.328787 74.167144 
L 54.654585 75.431151 
L 54.980382 75.964746 
L 55.306179 74.893183 
L 55.631976 75.374293 
L 55.957773 74.482053 
L 56.28357 75.391788 
L 56.609367 74.398952 
L 56.935164 74.871314 
L 57.260961 74.569527 
L 57.586758 75.269323 
L 57.912555 74.276488 
L 58.238352 74.910678 
L 58.564149 74.123407 
L 58.889946 75.824787 
L 59.541541 74.377083 
L 59.867338 75.396161 
L 60.193135 74.622012 
L 60.518932 74.578275 
L 60.844729 74.74885 
L 61.170526 74.665749 
L 61.496323 73.85661 
L 61.82212 73.769135 
L 62.147917 74.915052 
L 63.125308 73.239914 
L 63.451105 74.385831 
L 64.1027 74.140902 
L 64.428497 74.495174 
L 64.754294 73.804125 
L 65.080091 72.750057 
L 65.405888 74.158397 
L 65.731685 73.764762 
L 66.383279 74.084044 
L 66.709076 74.831951 
L 67.36067 73.506712 
L 67.686467 73.336136 
L 68.338061 73.616055 
L 68.663858 73.073713 
L 68.989656 75.155606 
L 69.315453 72.006524 
L 69.64125 74.215255 
L 70.292844 73.913468 
L 70.618641 72.631967 
L 71.270235 73.917842 
L 71.596032 73.764762 
L 71.921829 73.288025 
L 72.247626 74.127781 
L 72.573423 73.476096 
L 72.89922 74.67887 
L 73.225017 72.96437 
L 73.550815 72.986238 
L 73.876612 73.642297 
L 74.202409 73.559196 
L 74.528206 74.307104 
L 74.854003 72.426401 
L 75.1798 72.614472 
L 75.505597 73.66854 
L 75.831394 74.285235 
L 76.482988 71.722231 
L 76.808785 72.70632 
L 77.134582 74.622012 
L 77.786176 74.56078 
L 78.111973 73.834741 
L 78.437771 72.535745 
L 79.089365 74.320225 
L 79.415162 74.00969 
L 79.740959 73.086834 
L 80.066756 74.442689 
L 80.71835 73.200551 
L 81.044147 73.016854 
L 81.369944 73.572318 
L 81.695741 73.480469 
L 82.021538 75.181849 
L 82.347335 75.689201 
L 82.673132 75.011274 
L 82.99893 74.027185 
L 83.324727 73.41049 
L 83.650524 74.630759 
L 83.976321 73.82162 
L 84.302118 74.293982 
L 84.627915 72.885643 
L 84.953712 73.961579 
L 85.279509 73.244288 
L 85.605306 74.709486 
L 85.931103 74.477679 
L 86.2569 75.352424 
L 86.908494 73.629176 
L 87.234291 74.119033 
L 87.560088 74.989405 
L 87.885886 74.674497 
L 88.53748 73.589813 
L 88.863277 74.622012 
L 89.189074 75.107495 
L 89.514871 74.858193 
L 89.840668 75.776676 
L 90.166465 74.07967 
L 90.492262 75.404909 
L 90.818059 75.501131 
L 91.143856 74.93692 
L 91.469653 74.740103 
L 91.79545 75.697949 
L 92.121247 75.129364 
L 92.447044 75.059385 
L 92.772842 75.448646 
L 93.098639 74.582648 
L 93.424436 75.549242 
L 93.750233 75.431151 
L 94.07603 76.323391 
L 94.401827 75.181849 
L 94.727624 75.238707 
L 95.053421 75.986614 
L 95.379218 75.754807 
L 95.705015 76.161563 
L 96.030812 75.754807 
L 96.356609 75.706696 
L 96.682406 76.53333 
L 97.008203 77.018814 
L 97.334001 76.358381 
L 97.659798 76.262159 
L 97.985595 76.647047 
L 98.311392 75.951625 
L 98.637189 76.896349 
L 98.962986 76.559573 
L 99.288783 76.94446 
L 99.61458 76.56832 
L 99.940377 76.402118 
L 100.266174 77.11941 
L 100.591971 76.773885 
L 100.917768 77.211258 
L 101.243565 76.616431 
L 101.569362 77.377459 
L 101.895159 77.250621 
L 102.220957 76.82637 
L 102.546754 76.883228 
L 102.872551 77.705489 
L 103.198348 77.613641 
L 103.524145 77.241874 
L 103.849942 77.801711 
L 104.175739 77.176268 
L 104.501536 77.849822 
L 104.827333 76.948834 
L 105.478927 77.609267 
L 105.804724 77.486802 
L 105.804724 77.486802 
" clip-path="url(#p8f2c297191)" style="fill: none; stroke: #9467bd; stroke-width: 1.5; stroke-linecap: square"/>
   </g>
   <g id="line2d_10">
    <path d="M 40.319514 80.106664 
L 65.080091 80.029638 
L 66.057482 79.77157 
L 66.709076 79.298686 
L 67.36067 78.308311 
L 68.012264 76.411825 
L 68.663858 73.099156 
L 69.315453 67.83845 
L 69.967047 60.279963 
L 70.944438 45.047317 
L 72.247626 23.447932 
L 72.89922 16.224113 
L 73.225017 14.2786 
L 73.550815 13.617017 
L 73.876612 14.278601 
L 74.202409 16.224122 
L 74.854003 23.447983 
L 75.831394 39.373629 
L 77.134582 60.280318 
L 77.786176 67.838812 
L 78.437771 73.099473 
L 79.089365 76.412068 
L 79.740959 78.308476 
L 80.392553 79.298786 
L 81.044147 79.771625 
L 82.021538 80.029656 
L 83.650524 80.102214 
L 101.569362 80.106664 
L 105.804724 80.106664 
L 105.804724 80.106664 
" clip-path="url(#p8f2c297191)" style="fill: none; stroke-dasharray: 1.5,2.475; stroke-dashoffset: 0; stroke: #000000; stroke-width: 1.5"/>
   </g>
   <g id="line2d_11">
    <path d="M 40.319514 80.106038 
L 49.767629 80.005156 
L 52.699802 79.757691 
L 54.654585 79.380438 
L 56.28357 78.840936 
L 57.586758 78.202618 
L 58.889946 77.3328 
L 60.193135 76.193136 
L 61.496323 74.759394 
L 62.799511 73.030788 
L 64.428497 70.506526 
L 69.967047 61.474964 
L 70.944438 60.382081 
L 71.921829 59.597618 
L 72.89922 59.162373 
L 73.550815 59.078428 
L 74.202409 59.162373 
L 74.854003 59.412204 
L 75.831394 60.083988 
L 76.808785 61.079576 
L 78.111973 62.821343 
L 79.740959 65.450816 
L 83.976321 72.555751 
L 85.605306 74.759756 
L 86.908494 76.193495 
L 88.211683 77.333137 
L 89.514871 78.202917 
L 90.818059 78.841188 
L 92.447044 79.380627 
L 94.401827 79.757813 
L 97.008203 79.989346 
L 101.243565 80.091492 
L 105.804724 80.105519 
L 105.804724 80.105519 
" clip-path="url(#p8f2c297191)" style="fill: none; stroke-dasharray: 1.5,2.475; stroke-dashoffset: 0; stroke: #000000; stroke-width: 1.5"/>
   </g>
   <g id="line2d_12">
    <path d="M 40.319514 77.758683 
L 47.812846 76.542344 
L 60.844729 74.389027 
L 66.057482 73.792556 
L 70.618641 73.503227 
L 74.854003 73.460164 
L 79.089365 73.639171 
L 83.650524 74.0596 
L 88.863277 74.76946 
L 97.008203 76.144394 
L 105.804724 77.612575 
L 105.804724 77.612575 
" clip-path="url(#p8f2c297191)" style="fill: none; stroke-dasharray: 1.5,2.475; stroke-dashoffset: 0; stroke: #000000; stroke-width: 1.5"/>
   </g>
   <g id="patch_3">
    <path d="M 40.645311 83.45841 
L 40.645311 9.72 
" style="fill: none; stroke: #000000; stroke-width: 0.8; stroke-linejoin: miter; stroke-linecap: square"/>
   </g>
   <g id="patch_4">
    <path d="M 105.804724 83.45841 
L 105.804724 9.72 
" style="fill: none; stroke: #000000; stroke-width: 0.8; stroke-linejoin: miter; stroke-linecap: square"/>
   </g>
   <g id="patch_5">
    <path d="M 40.645311 83.45841 
L 105.804724 83.45841 
" style="fill: none; stroke: #000000; stroke-width: 0.8; stroke-linejoin: miter; stroke-linecap: square"/>
   </g>
   <g id="patch_6">
    <path d="M 40.645311 9.72 
L 105.804724 9.72 
" style="fill: none; stroke: #000000; stroke-width: 0.8; stroke-linejoin: miter; stroke-linecap: square"/>
   </g>
  </g>
 </g>
 <defs>
  <clipPath id="p8f2c297191">
   <rect x="40.645311" y="9.72" width="65.159414" height="73.73841"/>
  </clipPath>
 </defs>
</svg>
