<?xml version="1.0" encoding="utf-8" standalone="no"?>
<!DOCTYPE svg PUBLIC "-//W3C//DTD SVG 1.1//EN"
  "http://www.w3.org/Graphics/SVG/1.1/DTD/svg11.dtd">
<svg xmlns:xlink="http://www.w3.org/1999/xlink" width="121.889764pt" height="121.889764pt" viewBox="0 0 121.889764 121.889764" xmlns="http://www.w3.org/2000/svg" version="1.1">
 <metadata>
  <rdf:RDF xmlns:dc="http://purl.org/dc/elements/1.1/" xmlns:cc="http://creativecommons.org/ns#" xmlns:rdf="http://www.w3.org/1999/02/22-rdf-syntax-ns#">
   <cc:Work>
    <dc:type rdf:resource="http://purl.org/dc/dcmitype/StillImage"/>
    <dc:date>2024-06-26T20:01:01.625135</dc:date>
    <dc:format>image/svg+xml</dc:format>
    <dc:creator>
     <cc:Agent>
      <dc:title>Matplotlib v3.8.4, https://matplotlib.org/</dc:title>
     </cc:Agent>
    </dc:creator>
   </cc:Work>
  </rdf:RDF>
 </metadata>
 <defs>
  <style type="text/css">*{stroke-linejoin: round; stroke-linecap: butt}</style>
 </defs>
 <g id="figure_1">
  <g id="patch_1">
   <path d="M 0 121.889764 
L 121.889764 121.889764 
L 121.889764 0 
L 0 0 
z
" style="fill: #ffffff"/>
  </g>
  <g id="axes_1">
   <g id="patch_2">
    <path d="M 30.472441 91.417323 
L 115.795276 91.417323 
L 115.795276 12.188976 
L 30.472441 12.188976 
z
" style="fill: #ffffff"/>
   </g>
   <g id="matplotlib.axis_1">
    <g id="xtick_1">
     <g id="line2d_1">
      <defs>
       <path id="m7890bd2c0d" d="M 0 0 
L 0 3.5 
" style="stroke: #000000; stroke-width: 0.8"/>
      </defs>
      <g>
       <use xlink:href="#m7890bd2c0d" x="30.472441" y="91.417323" style="stroke: #000000; stroke-width: 0.8"/>
      </g>
     </g>
     <g id="text_1">
      <!-- $\mathdefault{−0.1}$ -->
      <g transform="translate(20.23303 105.335821) scale(0.1 -0.1)">
       <defs>
        <path id="CMSY10-0" d="M 4218 1472 
C 4326 1472 4442 1472 4442 1600 
C 4442 1728 4326 1728 4218 1728 
L 755 1728 
C 646 1728 531 1728 531 1600 
C 531 1472 646 1472 755 1472 
L 4218 1472 
z
" transform="scale(0.015625)"/>
        <path id="CMR17-30" d="M 2688 2038 
C 2688 2430 2682 3099 2413 3613 
C 2176 4063 1798 4224 1466 4224 
C 1158 4224 768 4082 525 3620 
C 269 3137 243 2539 243 2038 
C 243 1671 250 1112 448 623 
C 723 -39 1216 -128 1466 -128 
C 1760 -128 2208 -7 2470 604 
C 2662 1048 2688 1568 2688 2038 
z
M 1466 -26 
C 1056 -26 813 328 723 816 
C 653 1196 653 1749 653 2109 
C 653 2604 653 3015 736 3407 
C 858 3954 1216 4121 1466 4121 
C 1728 4121 2067 3947 2189 3420 
C 2272 3054 2278 2623 2278 2109 
C 2278 1691 2278 1176 2202 797 
C 2067 96 1690 -26 1466 -26 
z
" transform="scale(0.015625)"/>
        <path id="CMMI12-3a" d="M 1178 307 
C 1178 492 1024 620 870 620 
C 685 620 557 467 557 313 
C 557 128 710 0 864 0 
C 1050 0 1178 153 1178 307 
z
" transform="scale(0.015625)"/>
        <path id="CMR17-31" d="M 1702 4083 
C 1702 4217 1696 4224 1606 4224 
C 1357 3927 979 3833 621 3820 
C 602 3820 570 3820 563 3808 
C 557 3795 557 3782 557 3648 
C 755 3648 1088 3686 1344 3839 
L 1344 467 
C 1344 243 1331 166 781 166 
L 589 166 
L 589 0 
C 896 6 1216 12 1523 12 
C 1830 12 2150 6 2458 0 
L 2458 166 
L 2266 166 
C 1715 166 1702 236 1702 467 
L 1702 4083 
z
" transform="scale(0.015625)"/>
       </defs>
       <use xlink:href="#CMSY10-0" transform="scale(0.996264)"/>
       <use xlink:href="#CMR17-30" transform="translate(77.487468 0) scale(0.996264)"/>
       <use xlink:href="#CMMI12-3a" transform="translate(123.177945 0) scale(0.996264)"/>
       <use xlink:href="#CMR17-31" transform="translate(150.275122 0) scale(0.996264)"/>
      </g>
     </g>
    </g>
    <g id="xtick_2">
     <g id="line2d_2">
      <g>
       <use xlink:href="#m7890bd2c0d" x="73.133858" y="91.417323" style="stroke: #000000; stroke-width: 0.8"/>
      </g>
     </g>
     <g id="text_2">
      <!-- $\mathdefault{0.0}$ -->
      <g transform="translate(66.768819 105.335821) scale(0.1 -0.1)">
       <use xlink:href="#CMR17-30" transform="scale(0.996264)"/>
       <use xlink:href="#CMMI12-3a" transform="translate(45.690477 0) scale(0.996264)"/>
       <use xlink:href="#CMR17-30" transform="translate(72.787654 0) scale(0.996264)"/>
      </g>
     </g>
    </g>
    <g id="xtick_3">
     <g id="line2d_3">
      <g>
       <use xlink:href="#m7890bd2c0d" x="115.795276" y="91.417323" style="stroke: #000000; stroke-width: 0.8"/>
      </g>
     </g>
     <g id="text_3">
      <!-- $\mathdefault{0.1}$ -->
      <g transform="translate(109.430236 105.335821) scale(0.1 -0.1)">
       <use xlink:href="#CMR17-30" transform="scale(0.996264)"/>
       <use xlink:href="#CMMI12-3a" transform="translate(45.690477 0) scale(0.996264)"/>
       <use xlink:href="#CMR17-31" transform="translate(72.787654 0) scale(0.996264)"/>
      </g>
     </g>
    </g>
    <g id="text_4">
     <!-- $H$ -->
     <g transform="translate(68.993136 118.191498) scale(0.1 -0.1)">
      <defs>
       <path id="CMMI12-48" d="M 4787 3886 
C 4845 4102 4858 4166 5312 4166 
C 5427 4166 5491 4166 5491 4281 
C 5491 4352 5434 4352 5395 4352 
C 5280 4352 5146 4339 5024 4339 
L 4269 4339 
C 4147 4339 4013 4352 3891 4352 
C 3846 4352 3770 4352 3770 4230 
C 3770 4166 3814 4166 3936 4166 
C 4320 4166 4320 4115 4320 4045 
C 4320 4032 4320 3994 4294 3899 
L 3904 2361 
L 1971 2361 
L 2355 3886 
C 2413 4102 2426 4166 2880 4166 
C 2995 4166 3059 4166 3059 4281 
C 3059 4352 3002 4352 2963 4352 
C 2848 4352 2714 4339 2592 4339 
L 1837 4339 
C 1715 4339 1581 4352 1459 4352 
C 1414 4352 1338 4352 1338 4230 
C 1338 4166 1382 4166 1504 4166 
C 1888 4166 1888 4115 1888 4045 
C 1888 4032 1888 3994 1862 3899 
L 998 472 
C 941 249 928 185 486 185 
C 339 185 294 185 294 64 
C 294 0 365 0 384 0 
C 499 0 634 12 755 12 
L 1510 12 
C 1632 12 1766 0 1888 0 
C 1939 0 2010 0 2010 121 
C 2010 185 1952 185 1856 185 
C 1466 185 1466 236 1466 300 
C 1466 306 1466 351 1478 402 
L 1920 2176 
L 3859 2176 
C 3750 1755 3424 421 3411 383 
C 3341 191 3238 191 2861 185 
C 2784 185 2726 185 2726 64 
C 2726 0 2797 0 2816 0 
C 2931 0 3066 12 3187 12 
L 3942 12 
C 4064 12 4198 0 4320 0 
C 4371 0 4442 0 4442 121 
C 4442 185 4384 185 4288 185 
C 3898 185 3898 236 3898 300 
C 3898 306 3898 351 3910 402 
L 4787 3886 
z
" transform="scale(0.015625)"/>
      </defs>
      <use xlink:href="#CMMI12-48" transform="scale(0.996264)"/>
     </g>
    </g>
   </g>
   <g id="matplotlib.axis_2">
    <g id="ytick_1">
     <g id="line2d_4">
      <defs>
       <path id="md966c82b84" d="M 0 0 
L -3.5 0 
" style="stroke: #000000; stroke-width: 0.8"/>
      </defs>
      <g>
       <use xlink:href="#md966c82b84" x="30.472441" y="91.417323" style="stroke: #000000; stroke-width: 0.8"/>
      </g>
     </g>
     <g id="text_5">
      <!-- $\mathdefault{0}$ -->
      <g transform="translate(18.491106 94.876572) scale(0.1 -0.1)">
       <use xlink:href="#CMR17-30" transform="scale(0.996264)"/>
      </g>
     </g>
    </g>
    <g id="ytick_2">
     <g id="line2d_5">
      <g>
       <use xlink:href="#md966c82b84" x="30.472441" y="65.007874" style="stroke: #000000; stroke-width: 0.8"/>
      </g>
     </g>
     <g id="text_6">
      <!-- $\mathdefault{1}$ -->
      <g transform="translate(18.491106 68.467123) scale(0.1 -0.1)">
       <use xlink:href="#CMR17-31" transform="scale(0.996264)"/>
      </g>
     </g>
    </g>
    <g id="ytick_3">
     <g id="line2d_6">
      <g>
       <use xlink:href="#md966c82b84" x="30.472441" y="38.598425" style="stroke: #000000; stroke-width: 0.8"/>
      </g>
     </g>
     <g id="text_7">
      <!-- $\mathdefault{2}$ -->
      <g transform="translate(18.491106 42.057674) scale(0.1 -0.1)">
       <defs>
        <path id="CMR17-32" d="M 2669 990 
L 2554 990 
C 2490 537 2438 460 2413 422 
C 2381 371 1920 371 1830 371 
L 602 371 
C 832 620 1280 1073 1824 1596 
C 2214 1966 2669 2400 2669 3033 
C 2669 3788 2067 4224 1395 4224 
C 691 4224 262 3603 262 3027 
C 262 2777 448 2745 525 2745 
C 589 2745 781 2783 781 3007 
C 781 3206 614 3264 525 3264 
C 486 3264 448 3257 422 3244 
C 544 3788 915 4057 1306 4057 
C 1862 4057 2227 3616 2227 3033 
C 2227 2477 1901 1998 1536 1583 
L 262 147 
L 262 0 
L 2515 0 
L 2669 990 
z
" transform="scale(0.015625)"/>
       </defs>
       <use xlink:href="#CMR17-32" transform="scale(0.996264)"/>
      </g>
     </g>
    </g>
    <g id="ytick_4">
     <g id="line2d_7">
      <g>
       <use xlink:href="#md966c82b84" x="30.472441" y="12.188976" style="stroke: #000000; stroke-width: 0.8"/>
      </g>
     </g>
     <g id="text_8">
      <!-- $\mathdefault{3}$ -->
      <g transform="translate(18.491106 15.648226) scale(0.1 -0.1)">
       <defs>
        <path id="CMR17-33" d="M 1414 2176 
C 1984 2176 2234 1673 2234 1094 
C 2234 322 1824 25 1453 25 
C 1114 25 563 193 390 691 
C 422 678 454 678 486 678 
C 640 678 755 780 755 947 
C 755 1132 614 1216 486 1216 
C 378 1216 211 1164 211 927 
C 211 335 787 -128 1466 -128 
C 2176 -128 2720 432 2720 1087 
C 2720 1718 2208 2176 1600 2246 
C 2086 2347 2554 2776 2554 3353 
C 2554 3856 2048 4224 1472 4224 
C 890 4224 378 3862 378 3347 
C 378 3123 544 3084 627 3084 
C 762 3084 877 3167 877 3334 
C 877 3500 762 3584 627 3584 
C 602 3584 570 3584 544 3571 
C 730 3999 1235 4076 1459 4076 
C 1683 4076 2106 3966 2106 3347 
C 2106 3167 2080 2851 1862 2574 
C 1670 2329 1453 2316 1242 2297 
C 1210 2297 1062 2284 1037 2284 
C 992 2278 966 2272 966 2227 
C 966 2182 973 2176 1101 2176 
L 1414 2176 
z
" transform="scale(0.015625)"/>
       </defs>
       <use xlink:href="#CMR17-33" transform="scale(0.996264)"/>
      </g>
     </g>
    </g>
    <g id="text_9">
     <!-- $I(X;Y)$ -->
     <g transform="translate(12.000446 68.988689) rotate(-90) scale(0.1 -0.1)">
      <defs>
       <path id="CMMI12-49" d="M 2355 3879 
C 2413 4102 2426 4166 2893 4166 
C 3034 4166 3085 4166 3085 4287 
C 3085 4352 3014 4352 2995 4352 
C 2880 4352 2739 4339 2624 4339 
L 1837 4339 
C 1709 4339 1562 4352 1434 4352 
C 1382 4352 1312 4352 1312 4230 
C 1312 4166 1363 4166 1491 4166 
C 1888 4166 1888 4115 1888 4045 
C 1888 4000 1875 3962 1862 3905 
L 998 472 
C 941 249 928 185 461 185 
C 320 185 262 185 262 64 
C 262 0 326 0 358 0 
C 474 0 614 12 730 12 
L 1517 12 
C 1645 12 1786 0 1914 0 
C 1965 0 2042 0 2042 115 
C 2042 185 2003 185 1862 185 
C 1466 185 1466 236 1466 312 
C 1466 325 1466 357 1491 459 
L 2355 3879 
z
" transform="scale(0.015625)"/>
       <path id="CMR17-28" d="M 1958 -1562 
C 1958 -1556 1958 -1543 1939 -1524 
C 1645 -1223 858 -403 858 1596 
C 858 3595 1632 4408 1946 4729 
C 1946 4735 1958 4748 1958 4767 
C 1958 4787 1939 4800 1914 4800 
C 1843 4800 1299 4325 986 3620 
C 666 2909 576 2218 576 1603 
C 576 1141 621 360 1005 -467 
C 1312 -1133 1837 -1600 1914 -1600 
C 1946 -1600 1958 -1588 1958 -1562 
z
" transform="scale(0.015625)"/>
       <path id="CMMI12-58" d="M 3040 2586 
L 2438 3981 
C 2522 4134 2714 4159 2790 4166 
C 2829 4166 2899 4172 2899 4281 
C 2899 4352 2842 4352 2803 4352 
C 2694 4352 2566 4339 2458 4339 
L 2086 4339 
C 1696 4339 1414 4352 1408 4352 
C 1357 4352 1293 4352 1293 4230 
C 1293 4166 1350 4166 1434 4166 
C 1805 4166 1830 4102 1894 3949 
L 2656 2179 
L 1267 701 
C 1037 453 762 211 288 185 
C 211 179 160 179 160 64 
C 160 44 166 0 237 0 
C 326 0 422 12 512 12 
L 813 12 
C 1018 12 1242 0 1440 0 
C 1485 0 1562 0 1562 115 
C 1562 179 1517 185 1478 185 
C 1350 198 1267 268 1267 370 
C 1267 478 1344 555 1530 746 
L 2099 1363 
C 2240 1510 2579 1879 2720 2019 
L 3392 453 
C 3398 440 3424 376 3424 370 
C 3424 312 3283 198 3078 185 
C 3040 185 2970 179 2970 64 
C 2970 0 3034 0 3066 0 
C 3174 0 3302 12 3411 12 
L 4115 12 
C 4230 12 4352 0 4461 0 
C 4506 0 4576 0 4576 121 
C 4576 185 4512 185 4454 185 
C 4070 191 4058 223 3949 459 
L 3104 2433 
L 3917 3300 
C 3981 3363 4128 3523 4186 3586 
C 4461 3873 4717 4134 5235 4166 
C 5299 4172 5363 4172 5363 4281 
C 5363 4352 5306 4352 5280 4352 
C 5190 4352 5094 4339 5005 4339 
L 4710 4339 
C 4506 4339 4282 4352 4083 4352 
C 4038 4352 3962 4352 3962 4236 
C 3962 4172 4006 4166 4045 4166 
C 4147 4153 4256 4102 4256 3981 
L 4250 3968 
C 4243 3924 4230 3860 4160 3784 
L 3040 2586 
z
" transform="scale(0.015625)"/>
       <path id="CMR17-3b" d="M 1062 2489 
C 1062 2649 934 2752 800 2752 
C 672 2752 538 2649 538 2489 
C 538 2329 666 2227 800 2227 
C 928 2227 1062 2329 1062 2489 
z
M 979 -69 
C 979 -469 851 -795 634 -1095 
C 595 -1140 595 -1152 595 -1159 
C 595 -1191 621 -1216 646 -1216 
C 678 -1216 1082 -782 1082 -57 
C 1082 192 1062 524 800 524 
C 659 524 538 428 538 262 
C 538 96 659 0 800 0 
C 864 0 934 19 979 64 
L 979 -69 
z
" transform="scale(0.015625)"/>
       <path id="CMMI12-59" d="M 3763 3644 
L 3910 3790 
C 4192 4077 4429 4147 4653 4166 
C 4723 4172 4781 4179 4781 4287 
C 4781 4352 4717 4352 4704 4352 
C 4627 4352 4544 4339 4467 4339 
L 4205 4339 
C 4019 4339 3821 4352 3642 4352 
C 3597 4352 3526 4352 3526 4230 
C 3526 4172 3590 4166 3610 4166 
C 3802 4153 3802 4058 3802 4019 
C 3802 3949 3750 3854 3622 3707 
L 2099 1968 
L 1376 3905 
C 1338 3994 1338 4007 1338 4019 
C 1338 4153 1600 4166 1677 4166 
C 1754 4166 1824 4166 1824 4281 
C 1824 4352 1766 4352 1728 4352 
C 1619 4352 1491 4339 1382 4339 
L 672 4339 
C 557 4339 435 4352 326 4352 
C 282 4352 211 4352 211 4230 
C 211 4166 269 4166 365 4166 
C 678 4166 736 4109 794 3962 
L 1587 1841 
C 1594 1822 1613 1752 1613 1733 
C 1613 1714 1299 459 1280 395 
C 1229 223 1165 191 755 185 
C 646 185 595 185 595 64 
C 595 0 666 0 685 0 
C 800 0 934 12 1056 12 
L 1811 12 
C 1926 12 2061 0 2176 0 
C 2221 0 2298 0 2298 115 
C 2298 185 2253 185 2144 185 
C 1747 185 1747 230 1747 300 
C 1747 344 1798 548 1830 676 
L 2061 1593 
C 2099 1726 2099 1739 2157 1803 
L 3763 3644 
z
" transform="scale(0.015625)"/>
       <path id="CMR17-29" d="M 1683 1596 
C 1683 2057 1638 2839 1254 3665 
C 947 4332 422 4800 346 4800 
C 326 4800 301 4793 301 4761 
C 301 4748 307 4742 314 4729 
C 621 4408 1402 3595 1402 1603 
C 1402 -396 627 -1210 314 -1530 
C 307 -1543 301 -1549 301 -1562 
C 301 -1594 326 -1600 346 -1600 
C 416 -1600 960 -1127 1274 -422 
C 1594 289 1683 981 1683 1596 
z
" transform="scale(0.015625)"/>
      </defs>
      <use xlink:href="#CMMI12-49" transform="scale(0.996264)"/>
      <use xlink:href="#CMR17-28" transform="translate(50.856514 0) scale(0.996264)"/>
      <use xlink:href="#CMMI12-58" transform="translate(86.137282 0) scale(0.996264)"/>
      <use xlink:href="#CMR17-3b" transform="translate(174.929844 0) scale(0.996264)"/>
      <use xlink:href="#CMMI12-59" transform="translate(216.405307 0) scale(0.996264)"/>
      <use xlink:href="#CMR17-29" transform="translate(294.681656 0) scale(0.996264)"/>
     </g>
    </g>
   </g>
   <g id="line2d_8">
    <path d="M 115.795276 72.093925 
L 115.528215 71.955117 
L 114.72874 72.032286 
L 113.929265 71.851117 
L 110.728806 71.190537 
L 109.129003 70.698714 
L 101.930315 68.565887 
L 101.530151 68.363564 
L 100.330512 68.059459 
L 99.930348 67.954191 
L 99.130873 67.451355 
L 98.730709 67.443908 
L 93.131824 64.923285 
L 90.331529 63.296885 
L 87.932251 61.716517 
L 87.532087 61.564214 
L 85.932283 60.146898 
L 85.532119 59.952973 
L 84.33248 58.843407 
L 83.132841 57.711419 
L 82.332513 56.808664 
L 81.932349 56.225359 
L 81.132874 55.491414 
L 79.533071 53.123464 
L 77.533104 49.514507 
L 76.733629 47.989546 
L 75.533136 45.064805 
L 73.534022 39.022667 
L 71.934219 33.228803 
L 70.334416 26.990099 
L 69.534088 24.574955 
L 68.734613 23.024826 
L 68.334449 22.453748 
L 67.934285 22.444426 
L 67.534121 22.826834 
L 67.13481 23.377313 
L 66.734646 24.566214 
L 65.934317 28.12832 
L 65.134843 32.717754 
L 62.734711 48.6918 
L 61.935236 52.429001 
L 61.134908 55.108794 
L 60.335433 57.069854 
L 59.935269 57.88242 
L 58.73563 59.281223 
L 58.335466 59.668623 
L 57.935302 60.217279 
L 57.135827 60.851317 
L 55.536024 62.267313 
L 55.13586 62.42054 
L 53.536056 63.579044 
L 52.336417 64.272503 
L 51.136778 64.859321 
L 50.736614 65.179007 
L 50.33645 65.301785 
L 49.136811 66.040219 
L 47.937172 66.437814 
L 46.737533 67.087803 
L 45.937205 67.263663 
L 43.937237 68.099892 
L 43.137763 68.375792 
L 42.737598 68.635185 
L 41.938123 68.738975 
L 40.737631 69.283881 
L 40.33832 69.300149 
L 39.137828 69.700305 
L 38.338353 69.891615 
L 35.538911 70.730194 
L 35.138747 70.615392 
L 34.338419 71.05025 
L 33.939108 71.034008 
L 33.538944 71.264431 
L 30.739501 71.765894 
L 30.739501 71.765894 
" clip-path="url(#p5271f3f9ae)" style="fill: none; stroke: #00bfbf; stroke-width: 1.5; stroke-linecap: square"/>
   </g>
   <g id="line2d_9">
    <path d="M 115.795276 72.115898 
L 115.528215 71.943259 
L 115.128904 72.119807 
L 114.72874 71.970884 
L 113.928839 71.916639 
L 112.728773 71.569037 
L 112.329462 71.546035 
L 111.929298 71.309591 
L 110.729232 71.050435 
L 109.929331 70.907481 
L 108.329528 70.626484 
L 107.929363 70.367513 
L 105.530085 69.6782 
L 105.129921 69.435656 
L 104.729757 69.534348 
L 104.330446 69.407556 
L 103.930282 69.113408 
L 103.530118 69.190048 
L 102.330479 68.68024 
L 101.130413 68.180045 
L 100.330512 68.030884 
L 99.130873 67.580154 
L 98.730709 67.499236 
L 97.930807 66.984648 
L 97.53107 66.941812 
L 92.331496 64.450687 
L 91.931332 64.102664 
L 91.532021 64.049185 
L 89.13189 62.47497 
L 88.731726 62.329243 
L 85.132382 59.562695 
L 83.932316 58.568881 
L 83.132841 57.588615 
L 81.533038 55.785246 
L 78.733169 51.782313 
L 76.733629 47.906673 
L 75.9333 45.977146 
L 75.133826 43.963188 
L 71.934219 33.174743 
L 70.73458 28.678006 
L 69.934252 26.054069 
L 69.133924 23.895942 
L 68.734613 23.253057 
L 68.334449 22.900015 
L 67.934285 22.866369 
L 67.534547 23.175545 
L 67.13481 23.960909 
L 66.734646 25.138982 
L 66.334482 26.667376 
L 65.535007 30.862913 
L 62.3354 50.693055 
L 61.535072 53.964235 
L 60.735597 56.225676 
L 59.535958 58.292374 
L 58.335466 59.794807 
L 56.335925 61.589488 
L 55.936188 61.78159 
L 53.93622 63.294587 
L 53.136319 63.703617 
L 52.336417 64.241815 
L 51.536516 64.667641 
L 50.736614 65.097613 
L 49.936713 65.533686 
L 49.536975 65.773352 
L 49.136811 65.879993 
L 47.937172 66.508802 
L 45.537041 67.40131 
L 44.337402 68.002785 
L 43.937237 68.041765 
L 40.337467 69.334191 
L 39.137828 69.676246 
L 34.338419 71.042486 
L 33.938254 71.231129 
L 32.338878 71.42228 
L 31.538976 71.678848 
L 30.739501 71.837886 
L 30.739501 71.837886 
" clip-path="url(#p5271f3f9ae)" style="fill: none; stroke-dasharray: 5.55,2.4; stroke-dashoffset: 0; stroke: #bfbf00; stroke-width: 1.5"/>
   </g>
   <g id="line2d_10">
    <path d="M 115.795975 72.338239 
L 115.528923 72.084524 
L 114.728498 72.171754 
L 113.927949 72.084893 
L 113.127646 71.869868 
L 112.327612 71.649586 
L 111.927127 71.474571 
L 111.526888 71.498524 
L 111.126907 71.269502 
L 110.726766 71.269686 
L 110.326442 71.11189 
L 109.926803 71.09718 
L 109.126504 70.774879 
L 105.52637 69.841199 
L 101.926398 68.763667 
L 101.126701 68.394754 
L 100.726464 68.354136 
L 100.326776 68.029881 
L 99.926398 68.01694 
L 99.12732 67.636169 
L 98.726905 67.627586 
L 91.529148 64.148775 
L 89.130159 62.70946 
L 87.130563 61.353361 
L 86.330894 60.755293 
L 85.930849 60.377373 
L 85.530813 60.176265 
L 84.331442 58.870477 
L 83.531627 58.096548 
L 83.131889 57.882103 
L 79.532604 53.256911 
L 77.533378 49.827512 
L 75.933335 46.258433 
L 74.333613 41.842984 
L 73.133858 37.896647 
L 71.134029 30.575182 
L 69.934382 26.466505 
L 69.134297 24.269319 
L 68.334306 23.174488 
L 67.934448 23.262062 
L 67.534386 23.629919 
L 67.134539 24.297524 
L 66.734054 25.387759 
L 65.934142 28.948122 
L 64.73428 36.283347 
L 63.134355 46.706073 
L 62.33436 50.891231 
L 61.534152 54.195687 
L 60.733688 56.510924 
L 59.533828 58.641586 
L 57.533686 60.850551 
L 56.733535 61.422606 
L 56.333603 61.85345 
L 55.133892 62.679115 
L 54.733433 63.034983 
L 53.933573 63.417867 
L 53.133531 64.082117 
L 52.333259 64.453355 
L 51.53316 64.980936 
L 47.132932 67.063453 
L 46.732944 67.128157 
L 46.332932 67.414224 
L 45.933328 67.4625 
L 45.532826 67.71714 
L 43.932903 68.249106 
L 43.133004 68.514996 
L 41.533176 69.153022 
L 41.133629 69.29521 
L 40.733567 69.305748 
L 38.334287 70.196354 
L 37.13462 70.347944 
L 36.735003 70.560329 
L 33.537305 71.325595 
L 30.739605 71.982504 
L 30.739605 71.982504 
" clip-path="url(#p5271f3f9ae)" style="fill: none; stroke-dasharray: 1.5,2.475; stroke-dashoffset: 0; stroke: #bf00bf; stroke-width: 1.5"/>
   </g>
   <g id="line2d_11">
    <path d="M 30.472441 73.443004 
L 31.538976 73.205051 
L 32.605512 72.973193 
L 33.672047 72.733856 
L 34.738583 72.491591 
L 35.805118 72.210122 
L 36.871654 71.945047 
L 37.938189 71.689372 
L 39.004724 71.398471 
L 40.07126 71.106818 
L 41.137795 70.782528 
L 42.204331 70.467754 
L 43.270866 70.119109 
L 44.337402 69.780163 
L 45.403937 69.393412 
L 46.470472 69.02651 
L 47.537008 68.621872 
L 48.603543 68.205881 
L 49.670079 67.730196 
L 50.736614 67.267595 
L 51.80315 66.779053 
L 52.869685 66.231727 
L 53.93622 65.633327 
L 55.002756 65.04164 
L 56.069291 64.373341 
L 57.135827 63.681786 
L 58.202362 62.92309 
L 59.268898 62.062838 
L 60.335433 61.156085 
L 61.401969 60.149038 
L 62.468504 59.018099 
L 63.535039 57.673276 
L 64.601575 56.228035 
L 65.66811 54.424618 
L 66.734646 52.332428 
L 67.801181 49.639351 
L 68.867717 46.124148 
L 69.934252 41.276765 
L 71.000787 34.601801 
L 72.067323 27.075567 
L 73.133858 23.311403 
L 74.200394 27.059285 
L 75.266929 34.617693 
L 76.333465 41.293155 
L 77.4 46.102581 
L 78.466535 49.605663 
L 79.533071 52.304001 
L 80.599606 54.440591 
L 81.666142 56.242013 
L 82.732677 57.728844 
L 83.799213 59.00314 
L 84.865748 60.107285 
L 85.932283 61.146234 
L 86.998819 62.056676 
L 88.065354 62.932896 
L 89.13189 63.689101 
L 90.198425 64.375413 
L 91.264961 65.032848 
L 92.331496 65.65315 
L 93.398031 66.221124 
L 94.464567 66.764406 
L 95.531102 67.267386 
L 96.597638 67.740215 
L 97.664173 68.198909 
L 98.730709 68.629884 
L 99.797244 69.009425 
L 100.86378 69.390193 
L 101.930315 69.781522 
L 102.99685 70.134607 
L 104.063386 70.456245 
L 105.129921 70.793333 
L 106.196457 71.108925 
L 107.262992 71.412245 
L 108.329528 71.704323 
L 109.396063 71.978109 
L 110.462598 72.238536 
L 111.529134 72.479968 
L 112.595669 72.719407 
L 113.662205 72.979661 
L 114.72874 73.208555 
L 115.795276 73.417712 
" clip-path="url(#p5271f3f9ae)" style="fill: none; stroke-dasharray: 5.55,2.4; stroke-dashoffset: 0; stroke: #000000; stroke-width: 1.5"/>
   </g>
   <g id="patch_3">
    <path d="M 30.472441 91.417323 
L 30.472441 12.188976 
" style="fill: none; stroke: #000000; stroke-width: 0.8; stroke-linejoin: miter; stroke-linecap: square"/>
   </g>
   <g id="patch_4">
    <path d="M 115.795276 91.417323 
L 115.795276 12.188976 
" style="fill: none; stroke: #000000; stroke-width: 0.8; stroke-linejoin: miter; stroke-linecap: square"/>
   </g>
   <g id="patch_5">
    <path d="M 30.472441 91.417323 
L 115.795276 91.417323 
" style="fill: none; stroke: #000000; stroke-width: 0.8; stroke-linejoin: miter; stroke-linecap: square"/>
   </g>
   <g id="patch_6">
    <path d="M 30.472441 12.188976 
L 115.795276 12.188976 
" style="fill: none; stroke: #000000; stroke-width: 0.8; stroke-linejoin: miter; stroke-linecap: square"/>
   </g>
  </g>
 </g>
 <defs>
  <clipPath id="p5271f3f9ae">
   <rect x="30.472441" y="12.188976" width="85.322835" height="79.228346"/>
  </clipPath>
 </defs>
</svg>
