<?xml version="1.0" encoding="utf-8" standalone="no"?>
<!DOCTYPE svg PUBLIC "-//W3C//DTD SVG 1.1//EN"
  "http://www.w3.org/Graphics/SVG/1.1/DTD/svg11.dtd">
<svg xmlns:xlink="http://www.w3.org/1999/xlink" width="121.889764pt" height="121.889764pt" viewBox="0 0 121.889764 121.889764" xmlns="http://www.w3.org/2000/svg" version="1.1">
 <metadata>
  <rdf:RDF xmlns:dc="http://purl.org/dc/elements/1.1/" xmlns:cc="http://creativecommons.org/ns#" xmlns:rdf="http://www.w3.org/1999/02/22-rdf-syntax-ns#">
   <cc:Work>
    <dc:type rdf:resource="http://purl.org/dc/dcmitype/StillImage"/>
    <dc:date>2024-06-26T20:05:39.414154</dc:date>
    <dc:format>image/svg+xml</dc:format>
    <dc:creator>
     <cc:Agent>
      <dc:title>Matplotlib v3.8.4, https://matplotlib.org/</dc:title>
     </cc:Agent>
    </dc:creator>
   </cc:Work>
  </rdf:RDF>
 </metadata>
 <defs>
  <style type="text/css">*{stroke-linejoin: round; stroke-linecap: butt}</style>
 </defs>
 <g id="figure_1">
  <g id="patch_1">
   <path d="M 0 121.889764 
L 121.889764 121.889764 
L 121.889764 0 
L 0 0 
z
" style="fill: #ffffff"/>
  </g>
  <g id="axes_1">
   <g id="patch_2">
    <path d="M 42.661417 79.228346 
L 115.795276 79.228346 
L 115.795276 12.188976 
L 42.661417 12.188976 
z
" style="fill: #ffffff"/>
   </g>
   <g id="matplotlib.axis_1">
    <g id="xtick_1">
     <g id="line2d_1">
      <path d="M 42.661417 79.228346 
L 42.661417 12.188976 
" clip-path="url(#pd3190dabb8)" style="fill: none; stroke: #b0b0b0; stroke-width: 0.8; stroke-linecap: square"/>
     </g>
     <g id="line2d_2">
      <defs>
       <path id="m1b0af03c7c" d="M 0 0 
L 0 3.5 
" style="stroke: #000000; stroke-width: 0.8"/>
      </defs>
      <g>
       <use xlink:href="#m1b0af03c7c" x="42.661417" y="79.228346" style="stroke: #000000; stroke-width: 0.8"/>
      </g>
     </g>
     <g id="text_1">
      <!-- $\mathdefault{−0.1}$ -->
      <g transform="translate(33.190053 92.454997) scale(0.09 -0.09)">
       <defs>
        <path id="CMSY10-0" d="M 4218 1472 
C 4326 1472 4442 1472 4442 1600 
C 4442 1728 4326 1728 4218 1728 
L 755 1728 
C 646 1728 531 1728 531 1600 
C 531 1472 646 1472 755 1472 
L 4218 1472 
z
" transform="scale(0.015625)"/>
        <path id="CMR17-30" d="M 2688 2038 
C 2688 2430 2682 3099 2413 3613 
C 2176 4063 1798 4224 1466 4224 
C 1158 4224 768 4082 525 3620 
C 269 3137 243 2539 243 2038 
C 243 1671 250 1112 448 623 
C 723 -39 1216 -128 1466 -128 
C 1760 -128 2208 -7 2470 604 
C 2662 1048 2688 1568 2688 2038 
z
M 1466 -26 
C 1056 -26 813 328 723 816 
C 653 1196 653 1749 653 2109 
C 653 2604 653 3015 736 3407 
C 858 3954 1216 4121 1466 4121 
C 1728 4121 2067 3947 2189 3420 
C 2272 3054 2278 2623 2278 2109 
C 2278 1691 2278 1176 2202 797 
C 2067 96 1690 -26 1466 -26 
z
" transform="scale(0.015625)"/>
        <path id="CMMI12-3a" d="M 1178 307 
C 1178 492 1024 620 870 620 
C 685 620 557 467 557 313 
C 557 128 710 0 864 0 
C 1050 0 1178 153 1178 307 
z
" transform="scale(0.015625)"/>
        <path id="CMR17-31" d="M 1702 4083 
C 1702 4217 1696 4224 1606 4224 
C 1357 3927 979 3833 621 3820 
C 602 3820 570 3820 563 3808 
C 557 3795 557 3782 557 3648 
C 755 3648 1088 3686 1344 3839 
L 1344 467 
C 1344 243 1331 166 781 166 
L 589 166 
L 589 0 
C 896 6 1216 12 1523 12 
C 1830 12 2150 6 2458 0 
L 2458 166 
L 2266 166 
C 1715 166 1702 236 1702 467 
L 1702 4083 
z
" transform="scale(0.015625)"/>
       </defs>
       <use xlink:href="#CMSY10-0" transform="scale(0.996264)"/>
       <use xlink:href="#CMR17-30" transform="translate(77.487468 0) scale(0.996264)"/>
       <use xlink:href="#CMMI12-3a" transform="translate(123.177945 0) scale(0.996264)"/>
       <use xlink:href="#CMR17-31" transform="translate(150.275122 0) scale(0.996264)"/>
      </g>
     </g>
    </g>
    <g id="xtick_2">
     <g id="line2d_3">
      <path d="M 79.228346 79.228346 
L 79.228346 12.188976 
" clip-path="url(#pd3190dabb8)" style="fill: none; stroke: #b0b0b0; stroke-width: 0.8; stroke-linecap: square"/>
     </g>
     <g id="line2d_4">
      <g>
       <use xlink:href="#m1b0af03c7c" x="79.228346" y="79.228346" style="stroke: #000000; stroke-width: 0.8"/>
      </g>
     </g>
     <g id="text_2">
      <!-- $\mathdefault{0.0}$ -->
      <g transform="translate(73.340742 92.454997) scale(0.09 -0.09)">
       <use xlink:href="#CMR17-30" transform="scale(0.996264)"/>
       <use xlink:href="#CMMI12-3a" transform="translate(45.690477 0) scale(0.996264)"/>
       <use xlink:href="#CMR17-30" transform="translate(72.787654 0) scale(0.996264)"/>
      </g>
     </g>
    </g>
    <g id="xtick_3">
     <g id="line2d_5">
      <path d="M 115.795276 79.228346 
L 115.795276 12.188976 
" clip-path="url(#pd3190dabb8)" style="fill: none; stroke: #b0b0b0; stroke-width: 0.8; stroke-linecap: square"/>
     </g>
     <g id="line2d_6">
      <g>
       <use xlink:href="#m1b0af03c7c" x="115.795276" y="79.228346" style="stroke: #000000; stroke-width: 0.8"/>
      </g>
     </g>
     <g id="text_3">
      <!-- $\mathdefault{0.1}$ -->
      <g transform="translate(109.907671 92.454997) scale(0.09 -0.09)">
       <use xlink:href="#CMR17-30" transform="scale(0.996264)"/>
       <use xlink:href="#CMMI12-3a" transform="translate(45.690477 0) scale(0.996264)"/>
       <use xlink:href="#CMR17-31" transform="translate(72.787654 0) scale(0.996264)"/>
      </g>
     </g>
    </g>
    <g id="text_4">
     <!-- $H$ -->
     <g transform="translate(75.416971 104.425109) scale(0.09 -0.09)">
      <defs>
       <path id="CMMI12-48" d="M 4787 3886 
C 4845 4102 4858 4166 5312 4166 
C 5427 4166 5491 4166 5491 4281 
C 5491 4352 5434 4352 5395 4352 
C 5280 4352 5146 4339 5024 4339 
L 4269 4339 
C 4147 4339 4013 4352 3891 4352 
C 3846 4352 3770 4352 3770 4230 
C 3770 4166 3814 4166 3936 4166 
C 4320 4166 4320 4115 4320 4045 
C 4320 4032 4320 3994 4294 3899 
L 3904 2361 
L 1971 2361 
L 2355 3886 
C 2413 4102 2426 4166 2880 4166 
C 2995 4166 3059 4166 3059 4281 
C 3059 4352 3002 4352 2963 4352 
C 2848 4352 2714 4339 2592 4339 
L 1837 4339 
C 1715 4339 1581 4352 1459 4352 
C 1414 4352 1338 4352 1338 4230 
C 1338 4166 1382 4166 1504 4166 
C 1888 4166 1888 4115 1888 4045 
C 1888 4032 1888 3994 1862 3899 
L 998 472 
C 941 249 928 185 486 185 
C 339 185 294 185 294 64 
C 294 0 365 0 384 0 
C 499 0 634 12 755 12 
L 1510 12 
C 1632 12 1766 0 1888 0 
C 1939 0 2010 0 2010 121 
C 2010 185 1952 185 1856 185 
C 1466 185 1466 236 1466 300 
C 1466 306 1466 351 1478 402 
L 1920 2176 
L 3859 2176 
C 3750 1755 3424 421 3411 383 
C 3341 191 3238 191 2861 185 
C 2784 185 2726 185 2726 64 
C 2726 0 2797 0 2816 0 
C 2931 0 3066 12 3187 12 
L 3942 12 
C 4064 12 4198 0 4320 0 
C 4371 0 4442 0 4442 121 
C 4442 185 4384 185 4288 185 
C 3898 185 3898 236 3898 300 
C 3898 306 3898 351 3910 402 
L 4787 3886 
z
" transform="scale(0.015625)"/>
      </defs>
      <use xlink:href="#CMMI12-48" transform="scale(0.996264)"/>
     </g>
    </g>
   </g>
   <g id="matplotlib.axis_2">
    <g id="ytick_1">
     <g id="line2d_7">
      <path d="M 42.661417 79.228346 
L 115.795276 79.228346 
" clip-path="url(#pd3190dabb8)" style="fill: none; stroke: #b0b0b0; stroke-width: 0.8; stroke-linecap: square"/>
     </g>
     <g id="line2d_8">
      <defs>
       <path id="m8fd979e5b6" d="M 0 0 
L -3.5 0 
" style="stroke: #000000; stroke-width: 0.8"/>
      </defs>
      <g>
       <use xlink:href="#m8fd979e5b6" x="42.661417" y="79.228346" style="stroke: #000000; stroke-width: 0.8"/>
      </g>
     </g>
     <g id="text_5">
      <!-- $\mathdefault{0}$ -->
      <g transform="translate(31.053727 82.341671) scale(0.09 -0.09)">
       <use xlink:href="#CMR17-30" transform="scale(0.996264)"/>
      </g>
     </g>
    </g>
    <g id="ytick_2">
     <g id="line2d_9">
      <path d="M 42.661417 45.708661 
L 115.795276 45.708661 
" clip-path="url(#pd3190dabb8)" style="fill: none; stroke: #b0b0b0; stroke-width: 0.8; stroke-linecap: square"/>
     </g>
     <g id="line2d_10">
      <g>
       <use xlink:href="#m8fd979e5b6" x="42.661417" y="45.708661" style="stroke: #000000; stroke-width: 0.8"/>
      </g>
     </g>
     <g id="text_6">
      <!-- $\mathdefault{2}$ -->
      <g transform="translate(31.053727 48.821986) scale(0.09 -0.09)">
       <defs>
        <path id="CMR17-32" d="M 2669 990 
L 2554 990 
C 2490 537 2438 460 2413 422 
C 2381 371 1920 371 1830 371 
L 602 371 
C 832 620 1280 1073 1824 1596 
C 2214 1966 2669 2400 2669 3033 
C 2669 3788 2067 4224 1395 4224 
C 691 4224 262 3603 262 3027 
C 262 2777 448 2745 525 2745 
C 589 2745 781 2783 781 3007 
C 781 3206 614 3264 525 3264 
C 486 3264 448 3257 422 3244 
C 544 3788 915 4057 1306 4057 
C 1862 4057 2227 3616 2227 3033 
C 2227 2477 1901 1998 1536 1583 
L 262 147 
L 262 0 
L 2515 0 
L 2669 990 
z
" transform="scale(0.015625)"/>
       </defs>
       <use xlink:href="#CMR17-32" transform="scale(0.996264)"/>
      </g>
     </g>
    </g>
    <g id="ytick_3">
     <g id="line2d_11">
      <path d="M 42.661417 12.188976 
L 115.795276 12.188976 
" clip-path="url(#pd3190dabb8)" style="fill: none; stroke: #b0b0b0; stroke-width: 0.8; stroke-linecap: square"/>
     </g>
     <g id="line2d_12">
      <g>
       <use xlink:href="#m8fd979e5b6" x="42.661417" y="12.188976" style="stroke: #000000; stroke-width: 0.8"/>
      </g>
     </g>
     <g id="text_7">
      <!-- $\mathdefault{4}$ -->
      <g transform="translate(31.053727 15.302301) scale(0.09 -0.09)">
       <defs>
        <path id="CMR17-34" d="M 2150 4147 
C 2150 4281 2144 4288 2029 4288 
L 128 1254 
L 128 1088 
L 1779 1088 
L 1779 460 
C 1779 230 1766 166 1318 166 
L 1197 166 
L 1197 0 
C 1402 12 1747 12 1965 12 
C 2182 12 2528 12 2733 0 
L 2733 166 
L 2611 166 
C 2163 166 2150 230 2150 460 
L 2150 1088 
L 2803 1088 
L 2803 1254 
L 2150 1254 
L 2150 4147 
z
M 1798 3723 
L 1798 1254 
L 256 1254 
L 1798 3723 
z
" transform="scale(0.015625)"/>
       </defs>
       <use xlink:href="#CMR17-34" transform="scale(0.996264)"/>
      </g>
     </g>
    </g>
    <g id="text_8">
     <!-- $I(X;Y)$ -->
     <g transform="translate(24.812133 61.560571) rotate(-90) scale(0.09 -0.09)">
      <defs>
       <path id="CMMI12-49" d="M 2355 3879 
C 2413 4102 2426 4166 2893 4166 
C 3034 4166 3085 4166 3085 4287 
C 3085 4352 3014 4352 2995 4352 
C 2880 4352 2739 4339 2624 4339 
L 1837 4339 
C 1709 4339 1562 4352 1434 4352 
C 1382 4352 1312 4352 1312 4230 
C 1312 4166 1363 4166 1491 4166 
C 1888 4166 1888 4115 1888 4045 
C 1888 4000 1875 3962 1862 3905 
L 998 472 
C 941 249 928 185 461 185 
C 320 185 262 185 262 64 
C 262 0 326 0 358 0 
C 474 0 614 12 730 12 
L 1517 12 
C 1645 12 1786 0 1914 0 
C 1965 0 2042 0 2042 115 
C 2042 185 2003 185 1862 185 
C 1466 185 1466 236 1466 312 
C 1466 325 1466 357 1491 459 
L 2355 3879 
z
" transform="scale(0.015625)"/>
       <path id="CMR17-28" d="M 1958 -1562 
C 1958 -1556 1958 -1543 1939 -1524 
C 1645 -1223 858 -403 858 1596 
C 858 3595 1632 4408 1946 4729 
C 1946 4735 1958 4748 1958 4767 
C 1958 4787 1939 4800 1914 4800 
C 1843 4800 1299 4325 986 3620 
C 666 2909 576 2218 576 1603 
C 576 1141 621 360 1005 -467 
C 1312 -1133 1837 -1600 1914 -1600 
C 1946 -1600 1958 -1588 1958 -1562 
z
" transform="scale(0.015625)"/>
       <path id="CMMI12-58" d="M 3040 2586 
L 2438 3981 
C 2522 4134 2714 4159 2790 4166 
C 2829 4166 2899 4172 2899 4281 
C 2899 4352 2842 4352 2803 4352 
C 2694 4352 2566 4339 2458 4339 
L 2086 4339 
C 1696 4339 1414 4352 1408 4352 
C 1357 4352 1293 4352 1293 4230 
C 1293 4166 1350 4166 1434 4166 
C 1805 4166 1830 4102 1894 3949 
L 2656 2179 
L 1267 701 
C 1037 453 762 211 288 185 
C 211 179 160 179 160 64 
C 160 44 166 0 237 0 
C 326 0 422 12 512 12 
L 813 12 
C 1018 12 1242 0 1440 0 
C 1485 0 1562 0 1562 115 
C 1562 179 1517 185 1478 185 
C 1350 198 1267 268 1267 370 
C 1267 478 1344 555 1530 746 
L 2099 1363 
C 2240 1510 2579 1879 2720 2019 
L 3392 453 
C 3398 440 3424 376 3424 370 
C 3424 312 3283 198 3078 185 
C 3040 185 2970 179 2970 64 
C 2970 0 3034 0 3066 0 
C 3174 0 3302 12 3411 12 
L 4115 12 
C 4230 12 4352 0 4461 0 
C 4506 0 4576 0 4576 121 
C 4576 185 4512 185 4454 185 
C 4070 191 4058 223 3949 459 
L 3104 2433 
L 3917 3300 
C 3981 3363 4128 3523 4186 3586 
C 4461 3873 4717 4134 5235 4166 
C 5299 4172 5363 4172 5363 4281 
C 5363 4352 5306 4352 5280 4352 
C 5190 4352 5094 4339 5005 4339 
L 4710 4339 
C 4506 4339 4282 4352 4083 4352 
C 4038 4352 3962 4352 3962 4236 
C 3962 4172 4006 4166 4045 4166 
C 4147 4153 4256 4102 4256 3981 
L 4250 3968 
C 4243 3924 4230 3860 4160 3784 
L 3040 2586 
z
" transform="scale(0.015625)"/>
       <path id="CMR17-3b" d="M 1062 2489 
C 1062 2649 934 2752 800 2752 
C 672 2752 538 2649 538 2489 
C 538 2329 666 2227 800 2227 
C 928 2227 1062 2329 1062 2489 
z
M 979 -69 
C 979 -469 851 -795 634 -1095 
C 595 -1140 595 -1152 595 -1159 
C 595 -1191 621 -1216 646 -1216 
C 678 -1216 1082 -782 1082 -57 
C 1082 192 1062 524 800 524 
C 659 524 538 428 538 262 
C 538 96 659 0 800 0 
C 864 0 934 19 979 64 
L 979 -69 
z
" transform="scale(0.015625)"/>
       <path id="CMMI12-59" d="M 3763 3644 
L 3910 3790 
C 4192 4077 4429 4147 4653 4166 
C 4723 4172 4781 4179 4781 4287 
C 4781 4352 4717 4352 4704 4352 
C 4627 4352 4544 4339 4467 4339 
L 4205 4339 
C 4019 4339 3821 4352 3642 4352 
C 3597 4352 3526 4352 3526 4230 
C 3526 4172 3590 4166 3610 4166 
C 3802 4153 3802 4058 3802 4019 
C 3802 3949 3750 3854 3622 3707 
L 2099 1968 
L 1376 3905 
C 1338 3994 1338 4007 1338 4019 
C 1338 4153 1600 4166 1677 4166 
C 1754 4166 1824 4166 1824 4281 
C 1824 4352 1766 4352 1728 4352 
C 1619 4352 1491 4339 1382 4339 
L 672 4339 
C 557 4339 435 4352 326 4352 
C 282 4352 211 4352 211 4230 
C 211 4166 269 4166 365 4166 
C 678 4166 736 4109 794 3962 
L 1587 1841 
C 1594 1822 1613 1752 1613 1733 
C 1613 1714 1299 459 1280 395 
C 1229 223 1165 191 755 185 
C 646 185 595 185 595 64 
C 595 0 666 0 685 0 
C 800 0 934 12 1056 12 
L 1811 12 
C 1926 12 2061 0 2176 0 
C 2221 0 2298 0 2298 115 
C 2298 185 2253 185 2144 185 
C 1747 185 1747 230 1747 300 
C 1747 344 1798 548 1830 676 
L 2061 1593 
C 2099 1726 2099 1739 2157 1803 
L 3763 3644 
z
" transform="scale(0.015625)"/>
       <path id="CMR17-29" d="M 1683 1596 
C 1683 2057 1638 2839 1254 3665 
C 947 4332 422 4800 346 4800 
C 326 4800 301 4793 301 4761 
C 301 4748 307 4742 314 4729 
C 621 4408 1402 3595 1402 1603 
C 1402 -396 627 -1210 314 -1530 
C 307 -1543 301 -1549 301 -1562 
C 301 -1594 326 -1600 346 -1600 
C 416 -1600 960 -1127 1274 -422 
C 1594 289 1683 981 1683 1596 
z
" transform="scale(0.015625)"/>
      </defs>
      <use xlink:href="#CMMI12-49" transform="scale(0.996264)"/>
      <use xlink:href="#CMR17-28" transform="translate(50.856514 0) scale(0.996264)"/>
      <use xlink:href="#CMMI12-58" transform="translate(86.137282 0) scale(0.996264)"/>
      <use xlink:href="#CMR17-3b" transform="translate(174.929844 0) scale(0.996264)"/>
      <use xlink:href="#CMMI12-59" transform="translate(216.405307 0) scale(0.996264)"/>
      <use xlink:href="#CMR17-29" transform="translate(294.681656 0) scale(0.996264)"/>
     </g>
    </g>
   </g>
   <g id="line2d_13">
    <path d="M 42.661417 66.786353 
L 43.575591 66.601332 
L 44.489764 66.436316 
L 45.403937 66.220447 
L 46.31811 66.019697 
L 47.232283 65.839258 
L 48.146457 65.618819 
L 49.06063 65.372705 
L 49.974803 65.148763 
L 50.888976 64.901784 
L 51.80315 64.642898 
L 52.717323 64.354448 
L 53.631496 64.075303 
L 54.545669 63.740983 
L 55.459843 63.44385 
L 56.374016 63.076821 
L 57.288189 62.727159 
L 58.202362 62.338647 
L 59.116535 61.920164 
L 60.030709 61.516457 
L 60.944882 61.029839 
L 61.859055 60.514561 
L 62.773228 59.990483 
L 63.687402 59.452454 
L 64.601575 58.855918 
L 65.515748 58.191585 
L 66.429921 57.553955 
L 67.344094 56.835637 
L 68.258268 56.058723 
L 69.172441 55.332838 
L 70.086614 54.522559 
L 71.000787 53.739771 
L 71.914961 52.93237 
L 72.829134 52.127905 
L 73.743307 51.467528 
L 74.65748 50.735838 
L 75.571654 50.13328 
L 76.485827 49.65172 
L 77.4 49.264302 
L 78.314173 49.025428 
L 79.228346 48.97776 
L 80.14252 49.056297 
L 81.056693 49.265892 
L 81.970866 49.660202 
L 82.885039 50.142726 
L 83.799213 50.723687 
L 84.713386 51.430197 
L 85.627559 52.184078 
L 86.541732 52.945369 
L 87.455906 53.741461 
L 88.370079 54.505745 
L 89.284252 55.323194 
L 90.198425 56.073382 
L 91.112598 56.774511 
L 92.026772 57.469961 
L 92.940945 58.207635 
L 93.855118 58.840931 
L 94.769291 59.411975 
L 95.683465 59.98221 
L 96.597638 60.541125 
L 97.511811 61.024103 
L 98.425984 61.467774 
L 99.340157 61.947919 
L 100.254331 62.3425 
L 101.168504 62.726445 
L 102.082677 63.08818 
L 102.99685 63.421484 
L 103.911024 63.742316 
L 104.825197 64.069117 
L 105.73937 64.333299 
L 106.653543 64.618497 
L 107.567717 64.894751 
L 108.48189 65.128861 
L 109.396063 65.369992 
L 110.310236 65.621068 
L 111.224409 65.824548 
L 112.138583 66.047019 
L 113.052756 66.228769 
L 113.966929 66.416812 
L 114.881102 66.607831 
L 115.795276 66.785928 
" clip-path="url(#pd3190dabb8)" style="fill: none; stroke: #9467bd; stroke-width: 1.5; stroke-linecap: square"/>
   </g>
   <g id="line2d_14">
    <path d="M 42.661417 67.582083 
L 43.575591 67.43018 
L 44.489764 67.282737 
L 45.403937 67.12926 
L 46.31811 66.96073 
L 47.232283 66.793336 
L 48.146457 66.593304 
L 49.06063 66.407151 
L 49.974803 66.223453 
L 50.888976 66.025821 
L 51.80315 65.816721 
L 52.717323 65.579874 
L 53.631496 65.372114 
L 54.545669 65.127378 
L 55.459843 64.864023 
L 56.374016 64.598754 
L 57.288189 64.323395 
L 58.202362 64.034299 
L 59.116535 63.710938 
L 60.030709 63.397378 
L 60.944882 63.034537 
L 61.859055 62.626285 
L 62.773228 62.230352 
L 63.687402 61.80446 
L 64.601575 61.309376 
L 65.515748 60.812305 
L 66.429921 60.248179 
L 67.344094 59.63411 
L 68.258268 58.932079 
L 69.172441 58.118729 
L 70.086614 57.178532 
L 71.000787 56.16563 
L 71.914961 55.01039 
L 72.829134 53.57276 
L 73.743307 51.965439 
L 74.65748 50.069617 
L 75.571654 48.088299 
L 76.485827 45.974679 
L 77.4 44.163933 
L 78.314173 42.785859 
L 79.228346 42.316368 
L 80.14252 42.778513 
L 81.056693 44.12596 
L 81.970866 46.021522 
L 82.885039 48.081926 
L 83.799213 50.081009 
L 84.713386 51.951575 
L 85.627559 53.5963 
L 86.541732 54.963484 
L 87.455906 56.182414 
L 88.370079 57.218195 
L 89.284252 58.14352 
L 90.198425 58.920042 
L 91.112598 59.622301 
L 92.026772 60.244813 
L 92.940945 60.786103 
L 93.855118 61.3385 
L 94.769291 61.82018 
L 95.683465 62.23232 
L 96.597638 62.646714 
L 97.511811 63.020645 
L 98.425984 63.378181 
L 99.340157 63.727371 
L 100.254331 64.040452 
L 101.168504 64.333287 
L 102.082677 64.603093 
L 102.99685 64.881363 
L 103.911024 65.122929 
L 104.825197 65.358308 
L 105.73937 65.573426 
L 106.653543 65.825355 
L 107.567717 66.044692 
L 108.48189 66.23083 
L 109.396063 66.415944 
L 110.310236 66.598719 
L 111.224409 66.788279 
L 112.138583 66.955921 
L 113.052756 67.108007 
L 113.966929 67.276042 
L 114.881102 67.424923 
L 115.795276 67.588967 
" clip-path="url(#pd3190dabb8)" style="fill: none; stroke: #d62728; stroke-width: 1.5; stroke-linecap: square"/>
   </g>
   <g id="line2d_15">
    <path d="M 42.661417 67.696162 
L 43.575591 67.549662 
L 44.489764 67.399252 
L 45.403937 67.245656 
L 46.31811 67.084485 
L 47.232283 66.905383 
L 48.146457 66.718857 
L 49.06063 66.557751 
L 49.974803 66.370279 
L 50.888976 66.182715 
L 51.80315 65.957641 
L 52.717323 65.760381 
L 53.631496 65.532819 
L 54.545669 65.293189 
L 55.459843 65.074658 
L 56.374016 64.815026 
L 57.288189 64.533656 
L 58.202362 64.253339 
L 59.116535 63.9642 
L 60.030709 63.645058 
L 60.944882 63.294848 
L 61.859055 62.937444 
L 62.773228 62.589793 
L 63.687402 62.131695 
L 64.601575 61.698651 
L 65.515748 61.213134 
L 66.429921 60.69945 
L 67.344094 60.108862 
L 68.258268 59.466205 
L 69.172441 58.763357 
L 70.086614 57.955014 
L 71.000787 56.99158 
L 71.914961 55.908561 
L 72.829134 54.620085 
L 73.743307 53.004986 
L 74.65748 51.107752 
L 75.571654 48.759742 
L 76.485827 46.015156 
L 77.4 43.179254 
L 78.314173 40.889897 
L 79.228346 39.99735 
L 80.14252 40.900069 
L 81.056693 43.106117 
L 81.970866 46.007764 
L 82.885039 48.680828 
L 83.799213 51.087022 
L 84.713386 52.964435 
L 85.627559 54.588668 
L 86.541732 55.915587 
L 87.455906 56.992036 
L 88.370079 57.95519 
L 89.284252 58.729691 
L 90.198425 59.459663 
L 91.112598 60.116703 
L 92.026772 60.708006 
L 92.940945 61.200337 
L 93.855118 61.703864 
L 94.769291 62.159366 
L 95.683465 62.559821 
L 96.597638 62.926836 
L 97.511811 63.304499 
L 98.425984 63.635184 
L 99.340157 63.956993 
L 100.254331 64.272743 
L 101.168504 64.537968 
L 102.082677 64.805512 
L 102.99685 65.059285 
L 103.911024 65.307552 
L 104.825197 65.533506 
L 105.73937 65.751661 
L 106.653543 65.959872 
L 107.567717 66.180493 
L 108.48189 66.386043 
L 109.396063 66.548488 
L 110.310236 66.725708 
L 111.224409 66.920169 
L 112.138583 67.08402 
L 113.052756 67.233424 
L 113.966929 67.395053 
L 114.881102 67.564891 
L 115.795276 67.685718 
" clip-path="url(#pd3190dabb8)" style="fill: none; stroke: #2ca02c; stroke-width: 1.5; stroke-linecap: square"/>
   </g>
   <g id="line2d_16">
    <path d="M 42.661417 67.796572 
L 43.575591 67.65446 
L 44.489764 67.502588 
L 45.403937 67.362079 
L 46.31811 67.201849 
L 47.232283 67.031963 
L 48.146457 66.861894 
L 49.06063 66.688807 
L 49.974803 66.518573 
L 50.888976 66.327575 
L 51.80315 66.106464 
L 52.717323 65.903739 
L 53.631496 65.692059 
L 54.545669 65.467213 
L 55.459843 65.251235 
L 56.374016 64.999013 
L 57.288189 64.747023 
L 58.202362 64.464635 
L 59.116535 64.186395 
L 60.030709 63.876941 
L 60.944882 63.570996 
L 61.859055 63.210751 
L 62.773228 62.858753 
L 63.687402 62.448591 
L 64.601575 62.055911 
L 65.515748 61.596755 
L 66.429921 61.108438 
L 67.344094 60.582549 
L 68.258268 59.988096 
L 69.172441 59.3505 
L 70.086614 58.628119 
L 71.000787 57.790094 
L 71.914961 56.853809 
L 72.829134 55.720301 
L 73.743307 54.336071 
L 74.65748 52.696954 
L 75.571654 50.453824 
L 76.485827 47.318188 
L 77.4 43.123034 
L 78.314173 38.341978 
L 79.228346 35.96498 
L 80.14252 38.43864 
L 81.056693 43.033662 
L 81.970866 47.264739 
L 82.885039 50.42314 
L 83.799213 52.640478 
L 84.713386 54.364335 
L 85.627559 55.698741 
L 86.541732 56.854917 
L 87.455906 57.794709 
L 88.370079 58.622301 
L 89.284252 59.330723 
L 90.198425 59.994352 
L 91.112598 60.582093 
L 92.026772 61.09697 
L 92.940945 61.630129 
L 93.855118 62.06425 
L 94.769291 62.473915 
L 95.683465 62.853931 
L 96.597638 63.210639 
L 97.511811 63.56837 
L 98.425984 63.873767 
L 99.340157 64.183843 
L 100.254331 64.462577 
L 101.168504 64.733506 
L 102.082677 64.992019 
L 102.99685 65.248743 
L 103.911024 65.46353 
L 104.825197 65.7141 
L 105.73937 65.912223 
L 106.653543 66.129486 
L 107.567717 66.316328 
L 108.48189 66.508278 
L 109.396063 66.683364 
L 110.310236 66.869526 
L 111.224409 67.04691 
L 112.138583 67.210163 
L 113.052756 67.35993 
L 113.966929 67.50849 
L 114.881102 67.64697 
L 115.795276 67.79974 
" clip-path="url(#pd3190dabb8)" style="fill: none; stroke: #ff7f0e; stroke-width: 1.5; stroke-linecap: square"/>
   </g>
   <g id="line2d_17">
    <path d="M 42.661417 67.926016 
L 43.575591 67.778192 
L 44.489764 67.63897 
L 45.403937 67.48067 
L 46.31811 67.334754 
L 47.232283 67.159284 
L 48.146457 67.004682 
L 49.06063 66.837976 
L 49.974803 66.650954 
L 50.888976 66.462139 
L 51.80315 66.286817 
L 52.717323 66.102738 
L 53.631496 65.866022 
L 54.545669 65.646871 
L 55.459843 65.420578 
L 56.374016 65.203125 
L 57.288189 64.953262 
L 58.202362 64.683677 
L 59.116535 64.413489 
L 60.030709 64.125496 
L 60.944882 63.813789 
L 61.859055 63.483932 
L 62.773228 63.149214 
L 63.687402 62.766812 
L 64.601575 62.380061 
L 65.515748 61.954512 
L 66.429921 61.500965 
L 67.344094 61.005191 
L 68.258268 60.466787 
L 69.172441 59.890912 
L 70.086614 59.194246 
L 71.000787 58.457735 
L 71.914961 57.647592 
L 72.829134 56.677405 
L 73.743307 55.568475 
L 74.65748 54.199337 
L 75.571654 52.536279 
L 76.485827 50.307958 
L 77.4 47.013404 
L 78.314173 40.829346 
L 79.228346 22.313942 
L 80.14252 40.828028 
L 81.056693 47.044645 
L 81.970866 50.296525 
L 82.885039 52.555609 
L 83.799213 54.207557 
L 84.713386 55.574326 
L 85.627559 56.681751 
L 86.541732 57.66411 
L 87.455906 58.47073 
L 88.370079 59.23745 
L 89.284252 59.885036 
L 90.198425 60.479077 
L 91.112598 60.989844 
L 92.026772 61.514668 
L 92.940945 61.96866 
L 93.855118 62.385653 
L 94.769291 62.777784 
L 95.683465 63.141759 
L 96.597638 63.50538 
L 97.511811 63.79644 
L 98.425984 64.142271 
L 99.340157 64.414177 
L 100.254331 64.690953 
L 101.168504 64.938426 
L 102.082677 65.193543 
L 102.99685 65.438627 
L 103.911024 65.665956 
L 104.825197 65.862484 
L 105.73937 66.082625 
L 106.653543 66.304122 
L 107.567717 66.47994 
L 108.48189 66.638897 
L 109.396063 66.844018 
L 110.310236 67.013859 
L 111.224409 67.159876 
L 112.138583 67.333577 
L 113.052756 67.482328 
L 113.966929 67.642579 
L 114.881102 67.783973 
L 115.795276 67.925936 
" clip-path="url(#pd3190dabb8)" style="fill: none; stroke: #1f77b4; stroke-width: 1.5; stroke-linecap: square"/>
   </g>
   <g id="line2d_18">
    <path d="M 42.661417 67.901708 
L 43.897127 67.711619 
L 45.132837 67.513204 
L 46.368547 67.305816 
L 47.604257 67.088713 
L 48.839967 66.861086 
L 50.075677 66.621999 
L 51.311387 66.370405 
L 52.547097 66.105114 
L 53.782807 65.824738 
L 55.018518 65.527726 
L 56.254228 65.212213 
L 57.489938 64.876074 
L 58.725648 64.516776 
L 59.961358 64.131276 
L 61.197068 63.716027 
L 62.432778 63.26651 
L 63.668488 62.777404 
L 64.904198 62.241799 
L 66.139908 61.650991 
L 67.375618 60.993863 
L 68.611328 60.25476 
L 69.847038 59.413893 
L 71.082748 58.44021 
L 72.318458 57.290234 
L 73.554168 55.893256 
L 74.789878 54.116129 
L 76.025588 52.2493 
L 77.261298 48.885454 
L 78.497008 31.373593 
L 79.959685 31.373593 
L 81.195395 48.885454 
L 82.431105 52.2493 
L 83.666815 54.116129 
L 84.902525 55.893256 
L 86.138235 57.290234 
L 87.373945 58.44021 
L 88.609655 59.413893 
L 89.845365 60.25476 
L 91.081075 60.993863 
L 92.316785 61.650991 
L 93.552495 62.241799 
L 94.788205 62.777404 
L 96.023915 63.26651 
L 97.259625 63.716027 
L 98.495335 64.131276 
L 99.731045 64.516776 
L 100.966755 64.876074 
L 102.202465 65.212213 
L 103.438175 65.527726 
L 104.673885 65.824738 
L 105.909595 66.105114 
L 107.145305 66.370405 
L 108.381015 66.621999 
L 109.616725 66.861086 
L 110.852436 67.088713 
L 112.088146 67.305816 
L 113.323856 67.513204 
L 114.559566 67.711619 
L 115.795276 67.901708 
" clip-path="url(#pd3190dabb8)" style="fill: none; stroke-dasharray: 2,3.3; stroke-dashoffset: 0; stroke: #000000; stroke-width: 2"/>
   </g>
   <g id="patch_3">
    <path d="M 42.661417 79.228346 
L 42.661417 12.188976 
" style="fill: none; stroke: #000000; stroke-width: 0.8; stroke-linejoin: miter; stroke-linecap: square"/>
   </g>
   <g id="patch_4">
    <path d="M 115.795276 79.228346 
L 115.795276 12.188976 
" style="fill: none; stroke: #000000; stroke-width: 0.8; stroke-linejoin: miter; stroke-linecap: square"/>
   </g>
   <g id="patch_5">
    <path d="M 42.661417 79.228346 
L 115.795276 79.228346 
" style="fill: none; stroke: #000000; stroke-width: 0.8; stroke-linejoin: miter; stroke-linecap: square"/>
   </g>
   <g id="patch_6">
    <path d="M 42.661417 12.188976 
L 115.795276 12.188976 
" style="fill: none; stroke: #000000; stroke-width: 0.8; stroke-linejoin: miter; stroke-linecap: square"/>
   </g>
   <g id="legend_1">
    <g id="patch_7">
     <path d="M 36.593065 95.572663 
L 109.495276 95.572663 
Q 111.295276 95.572663 111.295276 93.772663 
L 111.295276 18.488976 
Q 111.295276 16.688976 109.495276 16.688976 
L 36.593065 16.688976 
Q 34.793065 16.688976 34.793065 18.488976 
L 34.793065 93.772663 
Q 34.793065 95.572663 36.593065 95.572663 
z
" style="fill: #ffffff; opacity: 0.8; stroke: #cccccc; stroke-linejoin: miter"/>
    </g>
    <g id="line2d_19">
     <path d="M 38.393065 23.438976 
L 47.393065 23.438976 
L 56.393065 23.438976 
" style="fill: none; stroke: #9467bd; stroke-width: 1.5; stroke-linecap: square"/>
    </g>
    <g id="text_9">
     <!-- $10 k_BT_{MC}$ -->
     <g transform="translate(63.593065 26.588976) scale(0.09 -0.09)">
      <defs>
       <path id="CMMI12-6b" d="M 1798 4255 
C 1805 4281 1818 4319 1818 4351 
C 1818 4416 1754 4416 1741 4416 
C 1734 4416 1504 4396 1389 4383 
C 1280 4377 1184 4364 1069 4358 
C 915 4345 870 4339 870 4223 
C 870 4159 934 4159 998 4159 
C 1325 4159 1325 4103 1325 4040 
C 1325 4014 1325 4002 1293 3888 
L 378 250 
C 352 153 352 141 352 102 
C 352 -39 461 -64 525 -64 
C 704 -64 742 76 794 275 
L 1094 1476 
C 1555 1425 1830 1232 1830 924 
C 1830 885 1830 860 1811 763 
C 1786 667 1786 590 1786 558 
C 1786 185 2029 -64 2355 -64 
C 2650 -64 2803 205 2854 295 
C 2989 532 3072 892 3072 917 
C 3072 949 3046 975 3008 975 
C 2950 975 2944 949 2918 847 
C 2829 513 2694 64 2368 64 
C 2240 64 2157 128 2157 372 
C 2157 494 2182 635 2208 731 
C 2234 847 2234 853 2234 930 
C 2234 1309 1894 1521 1306 1598 
C 1536 1739 1766 1989 1856 2086 
C 2221 2495 2470 2687 2765 2687 
C 2912 2687 2950 2655 2995 2624 
C 2758 2598 2669 2431 2669 2303 
C 2669 2150 2790 2099 2880 2099 
C 3053 2099 3206 2246 3206 2451 
C 3206 2634 3059 2816 2771 2816 
C 2419 2816 2131 2579 1677 2067 
C 1613 1989 1376 1746 1139 1656 
L 1798 4255 
z
" transform="scale(0.015625)"/>
       <path id="CMMI12-42" d="M 2342 3915 
C 2400 4153 2426 4166 2675 4166 
L 3507 4166 
C 4230 4166 4230 3547 4230 3489 
C 4230 2967 3712 2304 2867 2304 
L 1946 2304 
L 2342 3915 
z
M 3424 2252 
C 4122 2381 4755 2871 4755 3463 
C 4755 3966 4314 4352 3590 4352 
L 1536 4352 
C 1414 4352 1357 4352 1357 4230 
C 1357 4166 1414 4166 1510 4166 
C 1901 4166 1901 4114 1901 4043 
C 1901 4031 1901 3992 1875 3895 
L 1011 469 
C 954 248 941 185 493 185 
C 371 185 307 185 307 70 
C 307 0 346 0 474 0 
L 2669 0 
C 3648 0 4403 733 4403 1369 
C 4403 1886 3942 2201 3424 2252 
z
M 2515 185 
L 1651 185 
C 1562 185 1549 185 1510 191 
C 1440 198 1434 210 1434 261 
C 1434 305 1446 343 1459 399 
L 1907 2176 
L 3110 2176 
C 3866 2176 3866 1483 3866 1432 
C 3866 828 3309 185 2515 185 
z
" transform="scale(0.015625)"/>
       <path id="CMMI12-54" d="M 2669 3886 
C 2707 4038 2720 4096 2816 4121 
C 2867 4134 3078 4134 3213 4134 
C 3853 4134 4154 4109 4154 3612 
C 4154 3516 4128 3274 4090 3038 
L 4083 2962 
C 4083 2937 4109 2898 4147 2898 
C 4211 2898 4211 2930 4230 3032 
L 4416 4159 
C 4429 4217 4429 4230 4429 4249 
C 4429 4319 4390 4319 4262 4319 
L 762 4319 
C 614 4319 608 4313 570 4198 
L 179 3051 
C 173 3038 154 2968 154 2962 
C 154 2930 179 2898 218 2898 
C 269 2898 282 2924 307 3007 
C 576 3777 710 4134 1562 4134 
L 1990 4134 
C 2144 4134 2208 4134 2208 4064 
C 2208 4045 2208 4032 2176 3917 
L 1318 497 
C 1254 249 1242 185 563 185 
C 403 185 358 185 358 64 
C 358 0 429 0 461 0 
C 621 0 787 12 947 12 
L 1946 12 
C 2106 12 2278 0 2438 0 
C 2509 0 2573 0 2573 121 
C 2573 185 2528 185 2362 185 
C 1786 185 1786 242 1786 338 
C 1786 344 1786 389 1811 491 
L 2669 3886 
z
" transform="scale(0.015625)"/>
       <path id="CMMI12-4d" d="M 5811 3886 
C 5869 4102 5882 4166 6336 4166 
C 6458 4166 6515 4166 6515 4287 
C 6515 4352 6470 4352 6349 4352 
L 5581 4352 
C 5421 4352 5414 4345 5344 4243 
L 3008 567 
L 2528 4211 
C 2509 4352 2502 4352 2336 4352 
L 1542 4352 
C 1421 4352 1363 4352 1363 4230 
C 1363 4166 1421 4166 1517 4166 
C 1907 4166 1907 4115 1907 4045 
C 1907 4032 1907 3994 1882 3898 
L 1062 650 
C 986 344 838 204 410 185 
C 390 185 314 179 314 70 
C 314 0 371 0 397 0 
C 525 0 851 12 979 12 
L 1286 12 
C 1376 12 1485 0 1574 0 
C 1619 0 1690 0 1690 121 
C 1690 179 1626 185 1600 185 
C 1389 191 1184 230 1184 459 
C 1184 523 1184 529 1210 618 
L 2093 4128 
L 2099 4128 
L 2630 172 
C 2650 19 2656 0 2714 0 
C 2784 0 2816 51 2848 108 
L 5421 4159 
L 5427 4159 
L 4499 472 
C 4442 249 4429 185 3981 185 
C 3859 185 3795 185 3795 70 
C 3795 0 3853 0 3891 0 
C 4000 0 4128 12 4237 12 
L 4992 12 
C 5101 12 5235 0 5344 0 
C 5395 0 5466 0 5466 121 
C 5466 185 5408 185 5312 185 
C 4922 185 4922 236 4922 300 
C 4922 306 4922 351 4934 402 
L 5811 3886 
z
" transform="scale(0.015625)"/>
       <path id="CMMI12-43" d="M 4781 4422 
C 4781 4480 4736 4480 4723 4480 
C 4710 4480 4685 4480 4634 4415 
L 4192 3881 
C 3968 4262 3616 4480 3136 4480 
C 1754 4480 320 3087 320 1594 
C 320 533 1069 -128 2003 -128 
C 2515 -128 2963 89 3334 400 
C 3891 864 4058 1480 4058 1531 
C 4058 1588 4006 1588 3987 1588 
C 3930 1588 3923 1550 3910 1524 
C 3616 533 2752 57 2112 57 
C 1434 57 845 489 845 1391 
C 845 1594 909 2699 1632 3531 
C 1984 3938 2586 4294 3194 4294 
C 3898 4294 4211 3716 4211 3068 
C 4211 2903 4192 2763 4192 2737 
C 4192 2680 4256 2680 4275 2680 
C 4346 2680 4352 2687 4378 2801 
L 4781 4422 
z
" transform="scale(0.015625)"/>
      </defs>
      <use xlink:href="#CMR17-31" transform="scale(0.996264)"/>
      <use xlink:href="#CMR17-30" transform="translate(45.690477 0) scale(0.996264)"/>
      <use xlink:href="#CMMI12-6b" transform="translate(91.380954 0) scale(0.996264)"/>
      <use xlink:href="#CMMI12-42" transform="translate(142.116143 -14.943915) scale(0.697382)"/>
      <use xlink:href="#CMMI12-54" transform="translate(198.008901 0) scale(0.996264)"/>
      <use xlink:href="#CMMI12-4d" transform="translate(255.183945 -14.943915) scale(0.697382)"/>
      <use xlink:href="#CMMI12-43" transform="translate(328.529687 -14.943915) scale(0.697382)"/>
     </g>
    </g>
    <g id="line2d_20">
     <path d="M 38.393065 35.982438 
L 47.393065 35.982438 
L 56.393065 35.982438 
" style="fill: none; stroke: #d62728; stroke-width: 1.5; stroke-linecap: square"/>
    </g>
    <g id="text_10">
     <!-- $3k_BT_{MC}$ -->
     <g transform="translate(63.593065 39.132438) scale(0.09 -0.09)">
      <defs>
       <path id="CMR17-33" d="M 1414 2176 
C 1984 2176 2234 1673 2234 1094 
C 2234 322 1824 25 1453 25 
C 1114 25 563 193 390 691 
C 422 678 454 678 486 678 
C 640 678 755 780 755 947 
C 755 1132 614 1216 486 1216 
C 378 1216 211 1164 211 927 
C 211 335 787 -128 1466 -128 
C 2176 -128 2720 432 2720 1087 
C 2720 1718 2208 2176 1600 2246 
C 2086 2347 2554 2776 2554 3353 
C 2554 3856 2048 4224 1472 4224 
C 890 4224 378 3862 378 3347 
C 378 3123 544 3084 627 3084 
C 762 3084 877 3167 877 3334 
C 877 3500 762 3584 627 3584 
C 602 3584 570 3584 544 3571 
C 730 3999 1235 4076 1459 4076 
C 1683 4076 2106 3966 2106 3347 
C 2106 3167 2080 2851 1862 2574 
C 1670 2329 1453 2316 1242 2297 
C 1210 2297 1062 2284 1037 2284 
C 992 2278 966 2272 966 2227 
C 966 2182 973 2176 1101 2176 
L 1414 2176 
z
" transform="scale(0.015625)"/>
      </defs>
      <use xlink:href="#CMR17-33" transform="scale(0.996264)"/>
      <use xlink:href="#CMMI12-6b" transform="translate(45.690477 0) scale(0.996264)"/>
      <use xlink:href="#CMMI12-42" transform="translate(96.425666 -14.943915) scale(0.697382)"/>
      <use xlink:href="#CMMI12-54" transform="translate(152.318424 0) scale(0.996264)"/>
      <use xlink:href="#CMMI12-4d" transform="translate(209.493467 -14.943915) scale(0.697382)"/>
      <use xlink:href="#CMMI12-43" transform="translate(282.83921 -14.943915) scale(0.697382)"/>
     </g>
    </g>
    <g id="line2d_21">
     <path d="M 38.393065 48.5259 
L 47.393065 48.5259 
L 56.393065 48.5259 
" style="fill: none; stroke: #2ca02c; stroke-width: 1.5; stroke-linecap: square"/>
    </g>
    <g id="text_11">
     <!-- $2 k_BT_{MC}$ -->
     <g transform="translate(63.593065 51.6759) scale(0.09 -0.09)">
      <use xlink:href="#CMR17-32" transform="scale(0.996264)"/>
      <use xlink:href="#CMMI12-6b" transform="translate(45.690477 0) scale(0.996264)"/>
      <use xlink:href="#CMMI12-42" transform="translate(96.425666 -14.943915) scale(0.697382)"/>
      <use xlink:href="#CMMI12-54" transform="translate(152.318424 0) scale(0.996264)"/>
      <use xlink:href="#CMMI12-4d" transform="translate(209.493467 -14.943915) scale(0.697382)"/>
      <use xlink:href="#CMMI12-43" transform="translate(282.83921 -14.943915) scale(0.697382)"/>
     </g>
    </g>
    <g id="line2d_22">
     <path d="M 38.393065 61.069362 
L 47.393065 61.069362 
L 56.393065 61.069362 
" style="fill: none; stroke: #ff7f0e; stroke-width: 1.5; stroke-linecap: square"/>
    </g>
    <g id="text_12">
     <!-- $k_BT_{MC}$ -->
     <g transform="translate(63.593065 64.219362) scale(0.09 -0.09)">
      <use xlink:href="#CMMI12-6b" transform="scale(0.996264)"/>
      <use xlink:href="#CMMI12-42" transform="translate(50.735189 -14.943915) scale(0.697382)"/>
      <use xlink:href="#CMMI12-54" transform="translate(106.627947 0) scale(0.996264)"/>
      <use xlink:href="#CMMI12-4d" transform="translate(163.80299 -14.943915) scale(0.697382)"/>
      <use xlink:href="#CMMI12-43" transform="translate(237.148732 -14.943915) scale(0.697382)"/>
     </g>
    </g>
    <g id="line2d_23">
     <path d="M 38.393065 74.037607 
L 47.393065 74.037607 
L 56.393065 74.037607 
" style="fill: none; stroke: #1f77b4; stroke-width: 1.5; stroke-linecap: square"/>
    </g>
    <g id="text_13">
     <!-- $k_BT_{MC}/10$ -->
     <g transform="translate(63.593065 77.187607) scale(0.09 -0.09)">
      <defs>
       <path id="CMMI12-3d" d="M 2746 4563 
C 2746 4569 2784 4665 2784 4678 
C 2784 4755 2720 4800 2669 4800 
C 2637 4800 2579 4800 2528 4659 
L 384 -1364 
C 384 -1370 346 -1466 346 -1479 
C 346 -1556 410 -1600 461 -1600 
C 499 -1600 557 -1594 602 -1460 
L 2746 4563 
z
" transform="scale(0.015625)"/>
      </defs>
      <use xlink:href="#CMMI12-6b" transform="scale(0.996264)"/>
      <use xlink:href="#CMMI12-42" transform="translate(50.735189 -14.943915) scale(0.697382)"/>
      <use xlink:href="#CMMI12-54" transform="translate(106.627947 0) scale(0.996264)"/>
      <use xlink:href="#CMMI12-4d" transform="translate(163.80299 -14.943915) scale(0.697382)"/>
      <use xlink:href="#CMMI12-43" transform="translate(237.148732 -14.943915) scale(0.697382)"/>
      <use xlink:href="#CMMI12-3d" transform="translate(291.509409 0) scale(0.996264)"/>
      <use xlink:href="#CMR17-31" transform="translate(340.284328 0) scale(0.996264)"/>
      <use xlink:href="#CMR17-30" transform="translate(385.974805 0) scale(0.996264)"/>
     </g>
    </g>
    <g id="line2d_24">
     <path d="M 38.393065 87.079201 
L 47.393065 87.079201 
L 56.393065 87.079201 
" style="fill: none; stroke-dasharray: 2,3.3; stroke-dashoffset: 0; stroke: #000000; stroke-width: 2"/>
    </g>
    <g id="text_14">
     <!-- Gauss -->
     <g transform="translate(63.593065 90.229201) scale(0.09 -0.09)">
      <defs>
       <path id="CMR17-47" d="M 3974 1258 
C 3974 1503 3994 1536 4390 1536 
L 4390 1702 
C 4237 1689 3891 1689 3718 1689 
C 3539 1689 3040 1696 2797 1702 
L 2797 1536 
L 2989 1536 
C 3539 1536 3552 1464 3552 1232 
L 3552 806 
C 3552 96 2720 38 2522 38 
C 1862 38 781 496 781 2179 
C 781 3862 1843 4313 2464 4313 
C 3187 4313 3712 3681 3834 2785 
C 3846 2708 3846 2695 3904 2695 
C 3974 2695 3974 2708 3974 2824 
L 3974 4351 
C 3974 4467 3968 4473 3930 4473 
C 3904 4473 3898 4467 3853 4390 
L 3571 3849 
C 3258 4249 2874 4480 2381 4480 
C 1286 4480 294 3507 294 2179 
C 294 858 1267 -128 2394 -128 
C 2912 -128 3418 57 3616 425 
C 3725 161 3904 -20 3936 -20 
C 3968 -20 3974 -13 3974 102 
L 3974 1258 
z
" transform="scale(0.015625)"/>
       <path id="CMR17-61" d="M 2304 1656 
C 2304 2048 2304 2275 2035 2534 
C 1798 2751 1523 2816 1306 2816 
C 800 2816 435 2408 435 1977 
C 435 1740 627 1728 666 1728 
C 749 1728 896 1779 896 1958 
C 896 2118 774 2188 666 2188 
C 640 2188 608 2182 589 2176 
C 723 2594 1069 2713 1293 2713 
C 1613 2713 1965 2421 1965 1875 
L 1965 1632 
C 1587 1619 1133 1568 774 1373 
C 371 1147 256 822 256 576 
C 256 77 832 -64 1171 -64 
C 1523 -64 1850 135 1990 505 
C 2003 219 2182 -39 2464 -39 
C 2598 -39 2938 51 2938 563 
L 2938 926 
L 2822 926 
L 2822 557 
C 2822 161 2650 109 2566 109 
C 2304 109 2304 446 2304 732 
L 2304 1656 
z
M 1965 887 
C 1965 323 1568 38 1216 38 
C 896 38 646 278 646 576 
C 646 771 730 1114 1101 1322 
C 1408 1497 1760 1523 1965 1536 
L 1965 887 
z
" transform="scale(0.015625)"/>
       <path id="CMR17-75" d="M 1882 2745 
L 1882 2579 
C 2259 2579 2317 2540 2317 2229 
L 2317 1053 
C 2317 510 2029 38 1555 38 
C 1030 38 986 355 986 691 
L 986 2816 
L 211 2745 
L 211 2579 
C 467 2579 640 2579 646 2320 
L 646 1079 
C 646 646 646 368 813 187 
C 896 103 1056 -64 1517 -64 
C 2061 -64 2272 400 2323 536 
L 2330 536 
L 2330 -64 
L 3091 -13 
L 3091 154 
C 2714 154 2656 193 2656 503 
L 2656 2816 
L 1882 2745 
z
" transform="scale(0.015625)"/>
       <path id="CMR17-73" d="M 1978 2688 
C 1978 2803 1971 2809 1933 2809 
C 1907 2809 1901 2803 1824 2707 
C 1805 2681 1747 2617 1728 2592 
C 1523 2809 1235 2816 1126 2816 
C 416 2816 160 2444 160 2073 
C 160 1497 813 1363 998 1324 
C 1402 1241 1542 1216 1677 1100 
C 1760 1024 1901 883 1901 652 
C 1901 384 1747 38 1158 38 
C 602 38 403 460 288 1024 
C 269 1113 269 1120 218 1120 
C 166 1120 160 1113 160 985 
L 160 64 
C 160 -52 166 -58 205 -58 
C 237 -58 243 -52 275 0 
C 314 57 410 211 448 275 
C 576 102 800 -64 1158 -64 
C 1792 -64 2131 281 2131 780 
C 2131 1107 1958 1280 1875 1356 
C 1683 1555 1459 1600 1190 1651 
C 838 1728 390 1817 390 2208 
C 390 2374 480 2726 1126 2726 
C 1811 2726 1850 2086 1862 1881 
C 1869 1849 1901 1843 1920 1843 
C 1978 1843 1978 1862 1978 1971 
L 1978 2688 
z
" transform="scale(0.015625)"/>
      </defs>
      <use xlink:href="#CMR17-47" transform="scale(0.996264)"/>
      <use xlink:href="#CMR17-61" transform="translate(72.355346 0) scale(0.996264)"/>
      <use xlink:href="#CMR17-75" transform="translate(118.045823 0) scale(0.996264)"/>
      <use xlink:href="#CMR17-73" transform="translate(168.941193 0) scale(0.996264)"/>
      <use xlink:href="#CMR17-73" transform="translate(204.74253 0) scale(0.996264)"/>
     </g>
    </g>
   </g>
  </g>
 </g>
 <defs>
  <clipPath id="pd3190dabb8">
   <rect x="42.661417" y="12.188976" width="73.133858" height="67.03937"/>
  </clipPath>
 </defs>
</svg>
