<?xml version="1.0" encoding="utf-8" standalone="no"?>
<!DOCTYPE svg PUBLIC "-//W3C//DTD SVG 1.1//EN"
  "http://www.w3.org/Graphics/SVG/1.1/DTD/svg11.dtd">
<svg xmlns:xlink="http://www.w3.org/1999/xlink" width="243.779528pt" height="121.889764pt" viewBox="0 0 243.779528 121.889764" xmlns="http://www.w3.org/2000/svg" version="1.1">
 <metadata>
  <rdf:RDF xmlns:dc="http://purl.org/dc/elements/1.1/" xmlns:cc="http://creativecommons.org/ns#" xmlns:rdf="http://www.w3.org/1999/02/22-rdf-syntax-ns#">
   <cc:Work>
    <dc:type rdf:resource="http://purl.org/dc/dcmitype/StillImage"/>
    <dc:date>2024-06-26T20:01:02.118117</dc:date>
    <dc:format>image/svg+xml</dc:format>
    <dc:creator>
     <cc:Agent>
      <dc:title>Matplotlib v3.8.4, https://matplotlib.org/</dc:title>
     </cc:Agent>
    </dc:creator>
   </cc:Work>
  </rdf:RDF>
 </metadata>
 <defs>
  <style type="text/css">*{stroke-linejoin: round; stroke-linecap: butt}</style>
 </defs>
 <g id="figure_1">
  <g id="patch_1">
   <path d="M 0 121.889764 
L 243.779528 121.889764 
L 243.779528 0 
L 0 0 
z
" style="fill: #ffffff"/>
  </g>
  <g id="axes_1">
   <g id="patch_2">
    <path d="M 40.270419 91.417323 
L 101.596086 91.417323 
L 101.596086 32.910236 
L 40.270419 32.910236 
z
" style="fill: #ffffff"/>
   </g>
   <g id="matplotlib.axis_1">
    <g id="text_1">
     <!-- Time, $t$ -->
     <g transform="translate(55.956533 101.643973) scale(0.09 -0.09)">
      <defs>
       <path id="CMR17-54" d="M 3981 4332 
L 288 4332 
L 179 2924 
L 294 2924 
C 378 3981 467 4166 1453 4166 
C 1568 4166 1754 4166 1805 4159 
C 1926 4140 1926 4064 1926 3917 
L 1926 465 
C 1926 236 1907 166 1376 166 
L 1197 166 
L 1197 0 
C 1504 6 1824 12 2138 12 
C 2451 12 2771 6 3078 0 
L 3078 166 
L 2899 166 
C 2368 166 2349 236 2349 465 
L 2349 3917 
C 2349 4057 2349 4134 2464 4159 
C 2515 4166 2701 4166 2816 4166 
C 3795 4166 3891 3981 3974 2924 
L 4090 2924 
L 3981 4332 
z
" transform="scale(0.015625)"/>
       <path id="CMR17-69" d="M 992 3961 
C 992 4102 877 4224 730 4224 
C 589 4224 467 4108 467 3961 
C 467 3820 582 3699 730 3699 
C 870 3699 992 3814 992 3961 
z
M 243 2745 
L 243 2579 
C 602 2579 653 2540 653 2231 
L 653 443 
C 653 198 627 166 218 166 
L 218 0 
C 371 12 646 12 806 12 
C 960 12 1222 12 1370 0 
L 1370 166 
C 992 166 979 205 979 436 
L 979 2816 
L 243 2745 
z
" transform="scale(0.015625)"/>
       <path id="CMR17-6d" d="M 4326 1954 
C 4326 2276 4269 2816 3507 2816 
C 3072 2816 2771 2520 2656 2173 
L 2650 2173 
C 2573 2700 2195 2816 1837 2816 
C 1331 2816 1069 2424 973 2166 
L 966 2166 
L 966 2816 
L 211 2745 
L 211 2578 
C 589 2578 646 2540 646 2231 
L 646 443 
C 646 198 621 166 211 166 
L 211 0 
C 365 12 646 12 813 12 
C 979 12 1267 12 1421 0 
L 1421 166 
C 1011 166 986 192 986 443 
L 986 1678 
C 986 2269 1344 2713 1792 2713 
C 2266 2713 2317 2289 2317 1980 
L 2317 443 
C 2317 198 2291 166 1882 166 
L 1882 0 
C 2035 12 2317 12 2483 12 
C 2650 12 2938 12 3091 0 
L 3091 166 
C 2682 166 2656 192 2656 443 
L 2656 1678 
C 2656 2269 3014 2713 3462 2713 
C 3936 2713 3987 2289 3987 1980 
L 3987 443 
C 3987 198 3962 166 3552 166 
L 3552 0 
C 3706 12 3987 12 4154 12 
C 4320 12 4608 12 4762 0 
L 4762 166 
C 4352 166 4326 192 4326 443 
L 4326 1954 
z
" transform="scale(0.015625)"/>
       <path id="CMR17-65" d="M 2438 1503 
C 2464 1529 2464 1542 2464 1606 
C 2464 2251 2118 2816 1389 2816 
C 710 2816 173 2175 173 1394 
C 173 554 781 -64 1459 -64 
C 2176 -64 2458 619 2458 755 
C 2458 800 2419 800 2406 800 
C 2362 800 2355 787 2330 709 
C 2189 270 1837 51 1504 51 
C 1229 51 954 206 781 490 
C 582 819 582 1200 582 1503 
L 2438 1503 
z
M 589 1600 
C 634 2511 1126 2713 1382 2713 
C 1818 2713 2112 2308 2118 1600 
L 589 1600 
z
" transform="scale(0.015625)"/>
       <path id="CMR17-2c" d="M 1011 102 
C 1024 44 1024 25 1024 -76 
C 1024 -451 896 -795 627 -1108 
C 595 -1140 595 -1152 595 -1165 
C 595 -1191 621 -1216 646 -1216 
C 685 -1216 1126 -776 1126 -82 
C 1126 128 1101 524 800 524 
C 659 524 538 428 538 262 
C 538 96 659 0 800 0 
C 877 0 960 32 1011 102 
z
" transform="scale(0.015625)"/>
       <path id="CMMI12-74" d="M 1286 2566 
L 1875 2566 
C 1997 2566 2061 2566 2061 2681 
C 2061 2752 2022 2752 1894 2752 
L 1331 2752 
L 1568 3664 
C 1594 3752 1594 3764 1594 3808 
C 1594 3910 1510 3968 1427 3968 
C 1376 3968 1229 3948 1178 3746 
L 928 2752 
L 326 2752 
C 198 2752 141 2752 141 2630 
C 141 2566 186 2566 307 2566 
L 877 2566 
L 454 881 
C 403 657 384 593 384 510 
C 384 210 595 -64 954 -64 
C 1600 -64 1946 868 1946 913 
C 1946 951 1920 970 1882 970 
C 1869 970 1843 970 1830 944 
C 1824 938 1818 932 1773 830 
C 1638 510 1344 64 973 64 
C 781 64 768 223 768 364 
C 768 370 768 491 787 568 
L 1286 2566 
z
" transform="scale(0.015625)"/>
      </defs>
      <use xlink:href="#CMR17-54" transform="scale(0.996264)"/>
      <use xlink:href="#CMR17-69" transform="translate(66.509881 0) scale(0.996264)"/>
      <use xlink:href="#CMR17-6d" transform="translate(91.380939 0) scale(0.996264)"/>
      <use xlink:href="#CMR17-65" transform="translate(168.300529 0) scale(0.996264)"/>
      <use xlink:href="#CMR17-2c" transform="translate(208.786189 0) scale(0.996264)"/>
      <use xlink:href="#CMMI12-74" transform="translate(263.733214 0) scale(0.996264)"/>
     </g>
    </g>
   </g>
   <g id="matplotlib.axis_2">
    <g id="ytick_1">
     <g id="line2d_1">
      <defs>
       <path id="m74f53731ef" d="M 0 0 
L -3.5 0 
" style="stroke: #000000; stroke-width: 0.8"/>
      </defs>
      <g>
       <use xlink:href="#m74f53731ef" x="40.270419" y="88.75791" style="stroke: #000000; stroke-width: 0.8"/>
      </g>
     </g>
     <g id="text_2">
      <!-- $\mathdefault{−0.1}$ -->
      <g transform="translate(14.327691 91.871235) scale(0.09 -0.09)">
       <defs>
        <path id="CMSY10-0" d="M 4218 1472 
C 4326 1472 4442 1472 4442 1600 
C 4442 1728 4326 1728 4218 1728 
L 755 1728 
C 646 1728 531 1728 531 1600 
C 531 1472 646 1472 755 1472 
L 4218 1472 
z
" transform="scale(0.015625)"/>
        <path id="CMR17-30" d="M 2688 2038 
C 2688 2430 2682 3099 2413 3613 
C 2176 4063 1798 4224 1466 4224 
C 1158 4224 768 4082 525 3620 
C 269 3137 243 2539 243 2038 
C 243 1671 250 1112 448 623 
C 723 -39 1216 -128 1466 -128 
C 1760 -128 2208 -7 2470 604 
C 2662 1048 2688 1568 2688 2038 
z
M 1466 -26 
C 1056 -26 813 328 723 816 
C 653 1196 653 1749 653 2109 
C 653 2604 653 3015 736 3407 
C 858 3954 1216 4121 1466 4121 
C 1728 4121 2067 3947 2189 3420 
C 2272 3054 2278 2623 2278 2109 
C 2278 1691 2278 1176 2202 797 
C 2067 96 1690 -26 1466 -26 
z
" transform="scale(0.015625)"/>
        <path id="CMMI12-3a" d="M 1178 307 
C 1178 492 1024 620 870 620 
C 685 620 557 467 557 313 
C 557 128 710 0 864 0 
C 1050 0 1178 153 1178 307 
z
" transform="scale(0.015625)"/>
        <path id="CMR17-31" d="M 1702 4083 
C 1702 4217 1696 4224 1606 4224 
C 1357 3927 979 3833 621 3820 
C 602 3820 570 3820 563 3808 
C 557 3795 557 3782 557 3648 
C 755 3648 1088 3686 1344 3839 
L 1344 467 
C 1344 243 1331 166 781 166 
L 589 166 
L 589 0 
C 896 6 1216 12 1523 12 
C 1830 12 2150 6 2458 0 
L 2458 166 
L 2266 166 
C 1715 166 1702 236 1702 467 
L 1702 4083 
z
" transform="scale(0.015625)"/>
       </defs>
       <use xlink:href="#CMSY10-0" transform="scale(0.996264)"/>
       <use xlink:href="#CMR17-30" transform="translate(77.487468 0) scale(0.996264)"/>
       <use xlink:href="#CMMI12-3a" transform="translate(123.177945 0) scale(0.996264)"/>
       <use xlink:href="#CMR17-31" transform="translate(150.275122 0) scale(0.996264)"/>
      </g>
     </g>
    </g>
    <g id="ytick_2">
     <g id="line2d_2">
      <g>
       <use xlink:href="#m74f53731ef" x="40.270419" y="62.16378" style="stroke: #000000; stroke-width: 0.8"/>
      </g>
     </g>
     <g id="text_3">
      <!-- $\mathdefault{0.0}$ -->
      <g transform="translate(21.495209 65.277105) scale(0.09 -0.09)">
       <use xlink:href="#CMR17-30" transform="scale(0.996264)"/>
       <use xlink:href="#CMMI12-3a" transform="translate(45.690477 0) scale(0.996264)"/>
       <use xlink:href="#CMR17-30" transform="translate(72.787654 0) scale(0.996264)"/>
      </g>
     </g>
    </g>
    <g id="ytick_3">
     <g id="line2d_3">
      <g>
       <use xlink:href="#m74f53731ef" x="40.270419" y="35.569649" style="stroke: #000000; stroke-width: 0.8"/>
      </g>
     </g>
     <g id="text_4">
      <!-- $\mathdefault{0.1}$ -->
      <g transform="translate(21.495209 38.682974) scale(0.09 -0.09)">
       <use xlink:href="#CMR17-30" transform="scale(0.996264)"/>
       <use xlink:href="#CMMI12-3a" transform="translate(45.690477 0) scale(0.996264)"/>
       <use xlink:href="#CMR17-31" transform="translate(72.787654 0) scale(0.996264)"/>
      </g>
     </g>
    </g>
   </g>
   <g id="line2d_4">
    <path d="M 43.057949 48.866714 
L 43.379704 48.974687 
L 54.171547 54.131554 
L 60.56317 57.185624 
L 71.363709 62.346747 
L 77.755332 65.400817 
L 88.547174 70.557685 
L 94.938798 73.611755 
L 98.808556 75.460845 
L 98.808556 75.460845 
" clip-path="url(#p920dac0a0c)" style="fill: none; stroke: #1b9e77; stroke-width: 1.5; stroke-linecap: square"/>
   </g>
   <g id="line2d_5">
    <path d="M 43.057949 48.866714 
L 43.379704 48.974687 
L 54.171547 54.131554 
L 60.56317 57.185624 
L 71.363709 62.346747 
L 77.755332 65.400817 
L 88.547174 70.557685 
L 94.938798 73.611755 
L 98.808556 75.460845 
L 98.808556 75.460845 
" clip-path="url(#p920dac0a0c)" style="fill: none; stroke-dasharray: 5.55,2.4; stroke-dashoffset: 0; stroke: #1b9e77; stroke-width: 1.5"/>
   </g>
   <g id="line2d_6">
    <path d="M 43.057949 62.16378 
L 98.808556 62.16378 
L 98.808556 62.16378 
" clip-path="url(#p920dac0a0c)" style="fill: none; stroke: #d95f02; stroke-width: 1.5; stroke-linecap: square"/>
   </g>
   <g id="line2d_7">
    <path d="M 43.057949 62.16378 
L 98.808556 62.16378 
L 98.808556 62.16378 
" clip-path="url(#p920dac0a0c)" style="fill: none; stroke-dasharray: 5.55,2.4; stroke-dashoffset: 0; stroke: #d95f02; stroke-width: 1.5"/>
   </g>
   <g id="line2d_8">
    <path d="M 43.057949 35.569649 
L 43.266655 35.677621 
L 50.040906 42.151696 
L 70.0506 61.274472 
L 76.824851 67.748547 
L 96.84324 86.879566 
L 98.808556 88.75791 
L 98.808556 88.75791 
" clip-path="url(#p920dac0a0c)" style="fill: none; stroke: #000000; stroke-width: 1.5; stroke-linecap: square"/>
   </g>
   <g id="patch_3">
    <path d="M 40.270419 91.417323 
L 40.270419 32.910236 
" style="fill: none; stroke: #000000; stroke-width: 0.8; stroke-linejoin: miter; stroke-linecap: square"/>
   </g>
   <g id="patch_4">
    <path d="M 101.596086 91.417323 
L 101.596086 32.910236 
" style="fill: none; stroke: #000000; stroke-width: 0.8; stroke-linejoin: miter; stroke-linecap: square"/>
   </g>
   <g id="patch_5">
    <path d="M 40.270419 91.417323 
L 101.596086 91.417323 
" style="fill: none; stroke: #000000; stroke-width: 0.8; stroke-linejoin: miter; stroke-linecap: square"/>
   </g>
   <g id="patch_6">
    <path d="M 40.270419 32.910236 
L 101.596086 32.910236 
" style="fill: none; stroke: #000000; stroke-width: 0.8; stroke-linejoin: miter; stroke-linecap: square"/>
   </g>
   <g id="text_5">
    <!-- Protocol 1 -->
    <g style="fill: #00bfbf" transform="translate(46.484895 26.910236) scale(0.108 -0.108)">
     <defs>
      <path id="CMR17-50" d="M 1267 2048 
L 2291 2048 
C 3117 2048 3718 2583 3718 3187 
C 3718 3791 3130 4352 2291 4352 
L 333 4352 
L 333 4185 
C 774 4185 845 4185 845 3899 
L 845 453 
C 845 166 774 166 333 166 
L 333 0 
C 518 12 858 12 1056 12 
C 1254 12 1594 12 1779 0 
L 1779 166 
C 1338 166 1267 166 1267 453 
L 1267 2048 
z
M 1254 2182 
L 1254 3937 
C 1254 4153 1267 4185 1523 4185 
L 2170 4185 
C 2995 4185 3232 3715 3232 3187 
C 3232 2608 2950 2182 2170 2182 
L 1254 2182 
z
" transform="scale(0.015625)"/>
      <path id="CMR17-72" d="M 960 1517 
C 960 2134 1222 2713 1702 2713 
C 1747 2713 1792 2707 1837 2687 
C 1837 2687 1696 2642 1696 2475 
C 1696 2321 1818 2257 1914 2257 
C 1990 2257 2131 2302 2131 2482 
C 2131 2687 1926 2816 1709 2816 
C 1222 2816 1011 2340 947 2115 
L 941 2115 
L 941 2816 
L 198 2745 
L 198 2578 
C 576 2578 634 2540 634 2231 
L 634 443 
C 634 198 608 166 198 166 
L 198 0 
C 352 12 646 12 813 12 
C 998 12 1325 12 1498 0 
L 1498 166 
C 1037 166 960 166 960 455 
L 960 1517 
z
" transform="scale(0.015625)"/>
      <path id="CMR17-6f" d="M 2758 1356 
C 2758 2176 2163 2816 1466 2816 
C 768 2816 173 2176 173 1356 
C 173 550 768 -64 1466 -64 
C 2163 -64 2758 550 2758 1356 
z
M 1466 51 
C 1165 51 909 230 762 480 
C 602 768 582 1126 582 1408 
C 582 1676 595 2009 762 2297 
C 890 2508 1139 2713 1466 2713 
C 1754 2713 1997 2553 2150 2329 
C 2349 2028 2349 1606 2349 1408 
C 2349 1158 2336 774 2163 467 
C 1984 172 1709 51 1466 51 
z
" transform="scale(0.015625)"/>
      <path id="CMR17-74" d="M 966 2585 
L 1862 2585 
L 1862 2752 
L 966 2752 
L 966 3968 
L 851 3968 
C 838 3292 614 2700 70 2687 
L 70 2585 
L 627 2585 
L 627 778 
C 627 655 627 -64 1370 -64 
C 1747 -64 1965 308 1965 784 
L 1965 1151 
L 1850 1151 
L 1850 790 
C 1850 347 1677 51 1408 51 
C 1222 51 966 179 966 765 
L 966 2585 
z
" transform="scale(0.015625)"/>
      <path id="CMR17-63" d="M 2234 2240 
C 2112 2240 1933 2240 1933 2015 
C 1933 1836 2080 1785 2163 1785 
C 2208 1785 2394 1804 2394 2028 
C 2394 2476 1958 2816 1466 2816 
C 787 2816 211 2201 211 1379 
C 211 521 813 -64 1466 -64 
C 2259 -64 2458 676 2458 747 
C 2458 773 2451 792 2406 792 
C 2362 792 2355 786 2330 702 
C 2163 180 1798 51 1523 51 
C 1114 51 621 431 621 1385 
C 621 2358 1094 2700 1472 2700 
C 1722 2700 2093 2582 2234 2240 
z
" transform="scale(0.015625)"/>
      <path id="CMR17-6c" d="M 979 4416 
L 218 4345 
L 218 4179 
C 595 4179 653 4141 653 3835 
L 653 439 
C 653 198 627 166 218 166 
L 218 0 
C 371 12 653 12 813 12 
C 979 12 1261 12 1414 0 
L 1414 166 
C 1005 166 979 191 979 439 
L 979 4416 
z
" transform="scale(0.015625)"/>
     </defs>
     <use xlink:href="#CMR17-50" transform="scale(0.996264)"/>
     <use xlink:href="#CMR17-72" transform="translate(62.586301 0) scale(0.996264)"/>
     <use xlink:href="#CMR17-6f" transform="translate(97.867068 0) scale(0.996264)"/>
     <use xlink:href="#CMR17-74" transform="translate(143.557545 0) scale(0.996264)"/>
     <use xlink:href="#CMR17-6f" transform="translate(178.838313 0) scale(0.996264)"/>
     <use xlink:href="#CMR17-63" transform="translate(227.131229 0) scale(0.996264)"/>
     <use xlink:href="#CMR17-6f" transform="translate(267.61689 0) scale(0.996264)"/>
     <use xlink:href="#CMR17-6c" transform="translate(313.307367 0) scale(0.996264)"/>
     <use xlink:href="#CMR17-31" transform="translate(368.254391 0) scale(0.996264)"/>
    </g>
   </g>
  </g>
  <g id="axes_2">
   <g id="patch_7">
    <path d="M 106.50214 91.417323 
L 167.827807 91.417323 
L 167.827807 32.910236 
L 106.50214 32.910236 
z
" style="fill: #ffffff"/>
   </g>
   <g id="matplotlib.axis_3">
    <g id="text_6">
     <!-- Time, $t$ -->
     <g transform="translate(122.188253 101.643973) scale(0.09 -0.09)">
      <use xlink:href="#CMR17-54" transform="scale(0.996264)"/>
      <use xlink:href="#CMR17-69" transform="translate(66.509881 0) scale(0.996264)"/>
      <use xlink:href="#CMR17-6d" transform="translate(91.380939 0) scale(0.996264)"/>
      <use xlink:href="#CMR17-65" transform="translate(168.300529 0) scale(0.996264)"/>
      <use xlink:href="#CMR17-2c" transform="translate(208.786189 0) scale(0.996264)"/>
      <use xlink:href="#CMMI12-74" transform="translate(263.733214 0) scale(0.996264)"/>
     </g>
    </g>
   </g>
   <g id="matplotlib.axis_4">
    <g id="ytick_4">
     <g id="line2d_9">
      <g>
       <use xlink:href="#m74f53731ef" x="106.50214" y="88.75791" style="stroke: #000000; stroke-width: 0.8"/>
      </g>
     </g>
    </g>
    <g id="ytick_5">
     <g id="line2d_10">
      <g>
       <use xlink:href="#m74f53731ef" x="106.50214" y="62.16378" style="stroke: #000000; stroke-width: 0.8"/>
      </g>
     </g>
    </g>
    <g id="ytick_6">
     <g id="line2d_11">
      <g>
       <use xlink:href="#m74f53731ef" x="106.50214" y="35.569649" style="stroke: #000000; stroke-width: 0.8"/>
      </g>
     </g>
    </g>
   </g>
   <g id="line2d_12">
    <path d="M 109.28967 35.569649 
L 109.611425 35.677621 
L 120.403268 40.834489 
L 126.794891 43.888559 
L 137.595429 49.049682 
L 143.995749 52.107741 
L 154.796287 57.268864 
L 161.18791 60.322934 
L 165.040277 62.16378 
L 165.040277 62.16378 
" clip-path="url(#pae324e7e58)" style="fill: none; stroke: #1b9e77; stroke-width: 1.5; stroke-linecap: square"/>
   </g>
   <g id="line2d_13">
    <path d="M 109.28967 62.16378 
L 109.611425 62.271752 
L 120.411964 67.432875 
L 126.812283 70.490934 
L 137.612822 75.652056 
L 144.004445 78.706126 
L 154.796287 83.862994 
L 161.18791 86.917064 
L 165.040277 88.75791 
L 165.040277 88.75791 
" clip-path="url(#pae324e7e58)" style="fill: none; stroke-dasharray: 5.55,2.4; stroke-dashoffset: 0; stroke: #1b9e77; stroke-width: 1.5"/>
   </g>
   <g id="line2d_14">
    <path d="M 109.28967 62.16378 
L 165.040277 62.16378 
L 165.040277 62.16378 
" clip-path="url(#pae324e7e58)" style="fill: none; stroke: #d95f02; stroke-width: 1.5; stroke-linecap: square"/>
   </g>
   <g id="line2d_15">
    <path d="M 109.28967 62.16378 
L 165.040277 62.16378 
L 165.040277 62.16378 
" clip-path="url(#pae324e7e58)" style="fill: none; stroke-dasharray: 5.55,2.4; stroke-dashoffset: 0; stroke: #d95f02; stroke-width: 1.5"/>
   </g>
   <g id="line2d_16">
    <path d="M 109.28967 35.569649 
L 109.498376 35.677621 
L 116.272627 42.151696 
L 136.291017 61.282716 
L 143.073964 67.765301 
L 163.109745 86.912809 
L 165.040277 88.75791 
L 165.040277 88.75791 
" clip-path="url(#pae324e7e58)" style="fill: none; stroke: #000000; stroke-width: 1.5; stroke-linecap: square"/>
   </g>
   <g id="patch_8">
    <path d="M 106.50214 91.417323 
L 106.50214 32.910236 
" style="fill: none; stroke: #000000; stroke-width: 0.8; stroke-linejoin: miter; stroke-linecap: square"/>
   </g>
   <g id="patch_9">
    <path d="M 167.827807 91.417323 
L 167.827807 32.910236 
" style="fill: none; stroke: #000000; stroke-width: 0.8; stroke-linejoin: miter; stroke-linecap: square"/>
   </g>
   <g id="patch_10">
    <path d="M 106.50214 91.417323 
L 167.827807 91.417323 
" style="fill: none; stroke: #000000; stroke-width: 0.8; stroke-linejoin: miter; stroke-linecap: square"/>
   </g>
   <g id="patch_11">
    <path d="M 106.50214 32.910236 
L 167.827807 32.910236 
" style="fill: none; stroke: #000000; stroke-width: 0.8; stroke-linejoin: miter; stroke-linecap: square"/>
   </g>
   <g id="text_7">
    <!-- Protocol 2 -->
    <g style="fill: #bfbf00" transform="translate(112.716615 26.910236) scale(0.108 -0.108)">
     <defs>
      <path id="CMR17-32" d="M 2669 990 
L 2554 990 
C 2490 537 2438 460 2413 422 
C 2381 371 1920 371 1830 371 
L 602 371 
C 832 620 1280 1073 1824 1596 
C 2214 1966 2669 2400 2669 3033 
C 2669 3788 2067 4224 1395 4224 
C 691 4224 262 3603 262 3027 
C 262 2777 448 2745 525 2745 
C 589 2745 781 2783 781 3007 
C 781 3206 614 3264 525 3264 
C 486 3264 448 3257 422 3244 
C 544 3788 915 4057 1306 4057 
C 1862 4057 2227 3616 2227 3033 
C 2227 2477 1901 1998 1536 1583 
L 262 147 
L 262 0 
L 2515 0 
L 2669 990 
z
" transform="scale(0.015625)"/>
     </defs>
     <use xlink:href="#CMR17-50" transform="scale(0.996264)"/>
     <use xlink:href="#CMR17-72" transform="translate(62.586301 0) scale(0.996264)"/>
     <use xlink:href="#CMR17-6f" transform="translate(97.867068 0) scale(0.996264)"/>
     <use xlink:href="#CMR17-74" transform="translate(143.557545 0) scale(0.996264)"/>
     <use xlink:href="#CMR17-6f" transform="translate(178.838313 0) scale(0.996264)"/>
     <use xlink:href="#CMR17-63" transform="translate(227.131229 0) scale(0.996264)"/>
     <use xlink:href="#CMR17-6f" transform="translate(267.61689 0) scale(0.996264)"/>
     <use xlink:href="#CMR17-6c" transform="translate(313.307367 0) scale(0.996264)"/>
     <use xlink:href="#CMR17-32" transform="translate(368.254391 0) scale(0.996264)"/>
    </g>
   </g>
  </g>
  <g id="axes_3">
   <g id="patch_12">
    <path d="M 172.73386 91.417323 
L 234.059528 91.417323 
L 234.059528 32.910236 
L 172.73386 32.910236 
z
" style="fill: #ffffff"/>
   </g>
   <g id="matplotlib.axis_5">
    <g id="text_8">
     <!-- Time, $t$ -->
     <g transform="translate(188.419974 101.643973) scale(0.09 -0.09)">
      <use xlink:href="#CMR17-54" transform="scale(0.996264)"/>
      <use xlink:href="#CMR17-69" transform="translate(66.509881 0) scale(0.996264)"/>
      <use xlink:href="#CMR17-6d" transform="translate(91.380939 0) scale(0.996264)"/>
      <use xlink:href="#CMR17-65" transform="translate(168.300529 0) scale(0.996264)"/>
      <use xlink:href="#CMR17-2c" transform="translate(208.786189 0) scale(0.996264)"/>
      <use xlink:href="#CMMI12-74" transform="translate(263.733214 0) scale(0.996264)"/>
     </g>
    </g>
   </g>
   <g id="matplotlib.axis_6">
    <g id="ytick_7">
     <g id="line2d_17">
      <g>
       <use xlink:href="#m74f53731ef" x="172.73386" y="88.75791" style="stroke: #000000; stroke-width: 0.8"/>
      </g>
     </g>
    </g>
    <g id="ytick_8">
     <g id="line2d_18">
      <g>
       <use xlink:href="#m74f53731ef" x="172.73386" y="62.163912" style="stroke: #000000; stroke-width: 0.8"/>
      </g>
     </g>
    </g>
    <g id="ytick_9">
     <g id="line2d_19">
      <g>
       <use xlink:href="#m74f53731ef" x="172.73386" y="35.569915" style="stroke: #000000; stroke-width: 0.8"/>
      </g>
     </g>
    </g>
   </g>
   <g id="line2d_20">
    <path d="M 175.521391 35.569915 
L 178.156305 35.680546 
L 180.834699 36.037438 
L 183.52179 36.642983 
L 185.434928 37.225126 
L 188.017666 38.210433 
L 190.730845 39.492264 
L 193.45272 41.032322 
L 196.174595 42.826885 
L 198.905166 44.882601 
L 201.644433 47.20213 
L 205.366357 50.767055 
L 208.053448 53.636281 
L 211.723196 57.955412 
L 215.366856 62.701643 
L 218.140908 66.620535 
L 221.749783 72.114588 
L 225.410835 78.145043 
L 229.063191 84.619884 
L 231.271997 88.75791 
L 231.271997 88.75791 
" clip-path="url(#p3e47b2160f)" style="fill: none; stroke: #1b9e77; stroke-width: 1.5; stroke-linecap: square"/>
   </g>
   <g id="line2d_21">
    <path d="M 175.521391 61.662084 
L 175.730097 61.769789 
L 178.92156 64.642739 
L 181.713004 66.887006 
L 185.469713 69.506515 
L 188.095931 71.061466 
L 190.783021 72.414037 
L 193.45272 73.516624 
L 196.09633 74.368696 
L 198.713852 74.974507 
L 201.322677 75.34044 
L 203.905415 75.465964 
L 206.462064 75.355599 
L 209.010017 75.010941 
L 211.540578 74.433851 
L 214.045051 73.629648 
L 216.532132 72.599131 
L 219.00182 71.344426 
L 221.44542 69.873512 
L 224.741237 67.523135 
L 227.897916 64.871713 
L 230.254555 62.633562 
L 231.271997 61.597992 
L 231.271997 61.597992 
" clip-path="url(#p3e47b2160f)" style="fill: none; stroke-dasharray: 5.55,2.4; stroke-dashoffset: 0; stroke: #1b9e77; stroke-width: 1.5"/>
   </g>
   <g id="line2d_22">
    <path d="M 175.521391 51.526314 
L 175.904018 51.636147 
L 183.652231 54.59792 
L 191.470012 57.586554 
L 199.226921 60.551518 
L 207.044702 63.540152 
L 214.792914 66.501925 
L 222.610696 69.490559 
L 230.350212 72.449141 
L 231.271997 72.801511 
L 231.271997 72.801511 
" clip-path="url(#p3e47b2160f)" style="fill: none; stroke: #d95f02; stroke-width: 1.5; stroke-linecap: square"/>
   </g>
   <g id="line2d_23">
    <path d="M 175.521391 72.392496 
L 175.930107 72.281599 
L 181.730396 70.213384 
L 205.714201 61.293491 
L 231.271997 51.082992 
L 231.271997 51.082992 
" clip-path="url(#p3e47b2160f)" style="fill: none; stroke-dasharray: 5.55,2.4; stroke-dashoffset: 0; stroke: #d95f02; stroke-width: 1.5"/>
   </g>
   <g id="line2d_24">
    <path d="M 175.521391 35.569649 
L 175.730097 35.677621 
L 195.600653 54.668394 
L 202.348816 61.116907 
L 222.028058 79.926309 
L 228.741436 86.340781 
L 231.271997 88.757378 
L 231.271997 88.757378 
" clip-path="url(#p3e47b2160f)" style="fill: none; stroke: #000000; stroke-width: 1.5; stroke-linecap: square"/>
   </g>
   <g id="patch_13">
    <path d="M 172.73386 91.417323 
L 172.73386 32.910236 
" style="fill: none; stroke: #000000; stroke-width: 0.8; stroke-linejoin: miter; stroke-linecap: square"/>
   </g>
   <g id="patch_14">
    <path d="M 234.059528 91.417323 
L 234.059528 32.910236 
" style="fill: none; stroke: #000000; stroke-width: 0.8; stroke-linejoin: miter; stroke-linecap: square"/>
   </g>
   <g id="patch_15">
    <path d="M 172.73386 91.417323 
L 234.059528 91.417323 
" style="fill: none; stroke: #000000; stroke-width: 0.8; stroke-linejoin: miter; stroke-linecap: square"/>
   </g>
   <g id="patch_16">
    <path d="M 172.73386 32.910236 
L 234.059528 32.910236 
" style="fill: none; stroke: #000000; stroke-width: 0.8; stroke-linejoin: miter; stroke-linecap: square"/>
   </g>
   <g id="text_9">
    <!-- Protocol 3 -->
    <g style="fill: #bf00bf" transform="translate(178.948336 26.910236) scale(0.108 -0.108)">
     <defs>
      <path id="CMR17-33" d="M 1414 2176 
C 1984 2176 2234 1673 2234 1094 
C 2234 322 1824 25 1453 25 
C 1114 25 563 193 390 691 
C 422 678 454 678 486 678 
C 640 678 755 780 755 947 
C 755 1132 614 1216 486 1216 
C 378 1216 211 1164 211 927 
C 211 335 787 -128 1466 -128 
C 2176 -128 2720 432 2720 1087 
C 2720 1718 2208 2176 1600 2246 
C 2086 2347 2554 2776 2554 3353 
C 2554 3856 2048 4224 1472 4224 
C 890 4224 378 3862 378 3347 
C 378 3123 544 3084 627 3084 
C 762 3084 877 3167 877 3334 
C 877 3500 762 3584 627 3584 
C 602 3584 570 3584 544 3571 
C 730 3999 1235 4076 1459 4076 
C 1683 4076 2106 3966 2106 3347 
C 2106 3167 2080 2851 1862 2574 
C 1670 2329 1453 2316 1242 2297 
C 1210 2297 1062 2284 1037 2284 
C 992 2278 966 2272 966 2227 
C 966 2182 973 2176 1101 2176 
L 1414 2176 
z
" transform="scale(0.015625)"/>
     </defs>
     <use xlink:href="#CMR17-50" transform="scale(0.996264)"/>
     <use xlink:href="#CMR17-72" transform="translate(62.586301 0) scale(0.996264)"/>
     <use xlink:href="#CMR17-6f" transform="translate(97.867068 0) scale(0.996264)"/>
     <use xlink:href="#CMR17-74" transform="translate(143.557545 0) scale(0.996264)"/>
     <use xlink:href="#CMR17-6f" transform="translate(178.838313 0) scale(0.996264)"/>
     <use xlink:href="#CMR17-63" transform="translate(227.131229 0) scale(0.996264)"/>
     <use xlink:href="#CMR17-6f" transform="translate(267.61689 0) scale(0.996264)"/>
     <use xlink:href="#CMR17-6c" transform="translate(313.307367 0) scale(0.996264)"/>
     <use xlink:href="#CMR17-33" transform="translate(368.254391 0) scale(0.996264)"/>
    </g>
   </g>
  </g>
  <g id="legend_1">
   <g id="line2d_25">
    <path d="M 1.661144 11.25 
L 10.661144 11.25 
L 19.661144 11.25 
" style="fill: none; stroke: #1b9e77; stroke-width: 1.5; stroke-linecap: square"/>
   </g>
   <g id="text_10">
    <!-- $h_x$ -->
    <g transform="translate(26.861144 14.4) scale(0.09 -0.09)">
     <defs>
      <path id="CMMI12-68" d="M 1798 4255 
C 1805 4281 1818 4319 1818 4351 
C 1818 4416 1754 4416 1741 4416 
C 1734 4416 1421 4390 1389 4383 
C 1280 4377 1184 4364 1069 4358 
C 909 4345 864 4339 864 4223 
C 864 4159 915 4159 1005 4159 
C 1318 4159 1325 4103 1325 4040 
C 1325 4002 1312 3951 1306 3932 
L 378 249 
C 352 153 352 140 352 102 
C 352 -39 461 -64 525 -64 
C 634 -64 717 19 749 89 
L 1037 1245 
C 1069 1385 1107 1519 1139 1660 
C 1210 1928 1210 1934 1331 2119 
C 1453 2305 1741 2687 2234 2687 
C 2490 2687 2579 2496 2579 2241 
C 2579 1883 2330 1187 2189 804 
C 2131 651 2099 568 2099 453 
C 2099 166 2298 -64 2605 -64 
C 3200 -64 3424 874 3424 913 
C 3424 945 3398 970 3360 970 
C 3302 970 3296 951 3264 842 
C 3117 332 2880 64 2624 64 
C 2560 64 2458 70 2458 274 
C 2458 440 2534 645 2560 715 
C 2675 1021 2963 1775 2963 2145 
C 2963 2528 2739 2816 2253 2816 
C 1888 2816 1568 2643 1306 2311 
L 1798 4255 
z
" transform="scale(0.015625)"/>
      <path id="CMMI12-78" d="M 3034 2624 
C 2829 2585 2752 2431 2752 2310 
C 2752 2156 2874 2105 2963 2105 
C 3155 2105 3290 2271 3290 2444 
C 3290 2694 2982 2816 2714 2816 
C 2323 2816 2106 2451 2048 2329 
C 1901 2790 1504 2816 1389 2816 
C 736 2816 390 1993 390 1849 
C 390 1823 416 1790 461 1790 
C 512 1790 525 1829 538 1855 
C 755 2572 1184 2687 1370 2687 
C 1658 2687 1715 2438 1715 2284 
C 1715 2143 1677 1993 1600 1678 
L 1382 778 
C 1286 390 1101 64 762 64 
C 730 64 570 64 435 126 
C 666 166 717 358 717 435 
C 717 563 621 640 499 640 
C 346 640 179 505 179 300 
C 179 57 480 -64 755 -64 
C 1062 -64 1280 153 1414 415 
C 1517 64 1837 -64 2074 -64 
C 2726 -64 3072 751 3072 896 
C 3072 929 3046 955 3008 955 
C 2950 955 2944 922 2925 870 
C 2752 300 2381 64 2093 64 
C 1869 64 1747 204 1747 467 
C 1747 607 1773 712 1875 1146 
L 2099 2039 
C 2195 2425 2413 2687 2707 2687 
C 2720 2687 2899 2687 3034 2624 
z
" transform="scale(0.015625)"/>
     </defs>
     <use xlink:href="#CMMI12-68" transform="scale(0.996264)"/>
     <use xlink:href="#CMMI12-78" transform="translate(56.154624 -14.943915) scale(0.697382)"/>
    </g>
   </g>
   <g id="line2d_26">
    <path d="M 54.342906 11.25 
L 63.342906 11.25 
L 72.342906 11.25 
" style="fill: none; stroke-dasharray: 5.55,2.4; stroke-dashoffset: 0; stroke: #1b9e77; stroke-width: 1.5"/>
   </g>
   <g id="text_11">
    <!-- $h_y$ -->
    <g transform="translate(79.542906 14.4) scale(0.09 -0.09)">
     <defs>
      <path id="CMMI12-79" d="M 1683 -673 
C 1510 -921 1261 -1152 947 -1152 
C 870 -1152 563 -1139 467 -826 
C 486 -833 518 -833 531 -833 
C 723 -833 851 -666 851 -519 
C 851 -372 730 -320 634 -320 
C 531 -320 307 -397 307 -711 
C 307 -1050 582 -1280 947 -1280 
C 1587 -1280 2234 -673 2413 -7 
L 3040 2483 
C 3046 2515 3059 2553 3059 2591 
C 3059 2687 2982 2752 2886 2752 
C 2829 2752 2694 2726 2643 2534 
L 2170 657 
C 2138 542 2138 530 2086 459 
C 1958 281 1747 64 1440 64 
C 1082 64 1050 415 1050 587 
C 1050 951 1222 1443 1395 1902 
C 1466 2087 1504 2177 1504 2305 
C 1504 2573 1312 2816 998 2816 
C 410 2816 173 1890 173 1838 
C 173 1813 198 1781 243 1781 
C 301 1781 307 1807 333 1896 
C 486 2432 730 2687 979 2687 
C 1037 2687 1146 2687 1146 2477 
C 1146 2311 1075 2126 979 1883 
C 666 1047 666 836 666 683 
C 666 76 1101 -64 1421 -64 
C 1606 -64 1837 -7 2061 230 
L 2067 223 
C 1971 -141 1907 -359 1683 -673 
z
" transform="scale(0.015625)"/>
     </defs>
     <use xlink:href="#CMMI12-68" transform="scale(0.996264)"/>
     <use xlink:href="#CMMI12-79" transform="translate(56.154624 -14.943915) scale(0.697382)"/>
    </g>
   </g>
   <g id="line2d_27">
    <path d="M 106.63722 11.25 
L 115.63722 11.25 
L 124.63722 11.25 
" style="fill: none; stroke: #d95f02; stroke-width: 1.5; stroke-linecap: square"/>
   </g>
   <g id="text_12">
    <!-- $\theta_x$ -->
    <g transform="translate(131.83722 14.4) scale(0.09 -0.09)">
     <defs>
      <path id="CMMI12-12" d="M 2835 3200 
C 2835 3849 2630 4480 2106 4480 
C 1210 4480 256 2615 256 1215 
C 256 922 320 -64 992 -64 
C 1862 -64 2835 1755 2835 3200 
z
M 896 2304 
C 992 2679 1126 3213 1382 3665 
C 1594 4046 1818 4351 2099 4351 
C 2310 4351 2451 4173 2451 3563 
C 2451 3334 2432 3016 2246 2304 
L 896 2304 
z
M 2202 2112 
C 2042 1488 1907 1088 1677 687 
C 1491 362 1267 64 998 64 
C 800 64 640 216 640 846 
C 640 1259 742 1692 845 2112 
L 2202 2112 
z
" transform="scale(0.015625)"/>
     </defs>
     <use xlink:href="#CMMI12-12" transform="scale(0.996264)"/>
     <use xlink:href="#CMMI12-78" transform="translate(45.45979 -14.943915) scale(0.697382)"/>
    </g>
   </g>
   <g id="line2d_28">
    <path d="M 158.322733 11.25 
L 167.322733 11.25 
L 176.322733 11.25 
" style="fill: none; stroke-dasharray: 5.55,2.4; stroke-dashoffset: 0; stroke: #d95f02; stroke-width: 1.5"/>
   </g>
   <g id="text_13">
    <!-- $\theta_x$ -->
    <g transform="translate(183.522733 14.4) scale(0.09 -0.09)">
     <use xlink:href="#CMMI12-12" transform="scale(0.996264)"/>
     <use xlink:href="#CMMI12-78" transform="translate(45.45979 -14.943915) scale(0.697382)"/>
    </g>
   </g>
   <g id="line2d_29">
    <path d="M 210.008247 11.25 
L 219.008247 11.25 
L 228.008247 11.25 
" style="fill: none; stroke: #000000; stroke-width: 1.5; stroke-linecap: square"/>
   </g>
   <g id="text_14">
    <!-- H -->
    <g transform="translate(235.208247 14.4) scale(0.09 -0.09)">
     <defs>
      <path id="CMR17-48" d="M 3590 3898 
C 3590 4185 3661 4185 4102 4185 
L 4102 4352 
C 3917 4339 3578 4339 3379 4339 
C 3181 4339 2842 4339 2656 4352 
L 2656 4185 
C 3098 4185 3168 4185 3168 3898 
L 3168 2342 
L 1261 2342 
L 1261 3898 
C 1261 4185 1331 4185 1773 4185 
L 1773 4352 
C 1587 4339 1248 4339 1050 4339 
C 851 4339 512 4339 326 4352 
L 326 4185 
C 768 4185 838 4185 838 3898 
L 838 452 
C 838 166 768 166 326 166 
L 326 0 
C 512 12 851 12 1050 12 
C 1248 12 1587 12 1773 0 
L 1773 166 
C 1331 166 1261 166 1261 452 
L 1261 2176 
L 3168 2176 
L 3168 452 
C 3168 166 3098 166 2656 166 
L 2656 0 
C 2842 12 3181 12 3379 12 
C 3578 12 3917 12 4102 0 
L 4102 166 
C 3661 166 3590 166 3590 452 
L 3590 3898 
z
" transform="scale(0.015625)"/>
     </defs>
     <use xlink:href="#CMR17-48" transform="scale(0.996264)"/>
    </g>
   </g>
  </g>
 </g>
 <defs>
  <clipPath id="p920dac0a0c">
   <rect x="40.270419" y="32.910236" width="61.325667" height="58.507087"/>
  </clipPath>
  <clipPath id="pae324e7e58">
   <rect x="106.50214" y="32.910236" width="61.325667" height="58.507087"/>
  </clipPath>
  <clipPath id="p3e47b2160f">
   <rect x="172.73386" y="32.910236" width="61.325667" height="58.507087"/>
  </clipPath>
 </defs>
</svg>
