<?xml version="1.0" encoding="utf-8" standalone="no"?>
<!DOCTYPE svg PUBLIC "-//W3C//DTD SVG 1.1//EN"
  "http://www.w3.org/Graphics/SVG/1.1/DTD/svg11.dtd">
<svg xmlns:xlink="http://www.w3.org/1999/xlink" width="121.889764pt" height="121.889764pt" viewBox="0 0 121.889764 121.889764" xmlns="http://www.w3.org/2000/svg" version="1.1">
 <metadata>
  <rdf:RDF xmlns:dc="http://purl.org/dc/elements/1.1/" xmlns:cc="http://creativecommons.org/ns#" xmlns:rdf="http://www.w3.org/1999/02/22-rdf-syntax-ns#">
   <cc:Work>
    <dc:type rdf:resource="http://purl.org/dc/dcmitype/StillImage"/>
    <dc:date>2024-06-26T20:01:23.015338</dc:date>
    <dc:format>image/svg+xml</dc:format>
    <dc:creator>
     <cc:Agent>
      <dc:title>Matplotlib v3.8.4, https://matplotlib.org/</dc:title>
     </cc:Agent>
    </dc:creator>
   </cc:Work>
  </rdf:RDF>
 </metadata>
 <defs>
  <style type="text/css">*{stroke-linejoin: round; stroke-linecap: butt}</style>
 </defs>
 <g id="figure_1">
  <g id="patch_1">
   <path d="M 0 121.889764 
L 121.889764 121.889764 
L 121.889764 0 
L 0 0 
z
" style="fill: #ffffff"/>
  </g>
  <g id="axes_1">
   <g id="patch_2">
    <path d="M 30.472441 91.417323 
L 115.795276 91.417323 
L 115.795276 12.188976 
L 30.472441 12.188976 
z
" style="fill: #ffffff"/>
   </g>
   <g id="matplotlib.axis_1">
    <g id="xtick_1">
     <g id="line2d_1">
      <defs>
       <path id="m439ac97314" d="M 0 0 
L 0 3.5 
" style="stroke: #000000; stroke-width: 0.8"/>
      </defs>
      <g>
       <use xlink:href="#m439ac97314" x="30.472441" y="91.417323" style="stroke: #000000; stroke-width: 0.8"/>
      </g>
     </g>
     <g id="text_1">
      <!-- $\mathdefault{−0.1}$ -->
      <g transform="translate(20.23303 105.335821) scale(0.1 -0.1)">
       <defs>
        <path id="CMSY10-0" d="M 4218 1472 
C 4326 1472 4442 1472 4442 1600 
C 4442 1728 4326 1728 4218 1728 
L 755 1728 
C 646 1728 531 1728 531 1600 
C 531 1472 646 1472 755 1472 
L 4218 1472 
z
" transform="scale(0.015625)"/>
        <path id="CMR17-30" d="M 2688 2038 
C 2688 2430 2682 3099 2413 3613 
C 2176 4063 1798 4224 1466 4224 
C 1158 4224 768 4082 525 3620 
C 269 3137 243 2539 243 2038 
C 243 1671 250 1112 448 623 
C 723 -39 1216 -128 1466 -128 
C 1760 -128 2208 -7 2470 604 
C 2662 1048 2688 1568 2688 2038 
z
M 1466 -26 
C 1056 -26 813 328 723 816 
C 653 1196 653 1749 653 2109 
C 653 2604 653 3015 736 3407 
C 858 3954 1216 4121 1466 4121 
C 1728 4121 2067 3947 2189 3420 
C 2272 3054 2278 2623 2278 2109 
C 2278 1691 2278 1176 2202 797 
C 2067 96 1690 -26 1466 -26 
z
" transform="scale(0.015625)"/>
        <path id="CMMI12-3a" d="M 1178 307 
C 1178 492 1024 620 870 620 
C 685 620 557 467 557 313 
C 557 128 710 0 864 0 
C 1050 0 1178 153 1178 307 
z
" transform="scale(0.015625)"/>
        <path id="CMR17-31" d="M 1702 4083 
C 1702 4217 1696 4224 1606 4224 
C 1357 3927 979 3833 621 3820 
C 602 3820 570 3820 563 3808 
C 557 3795 557 3782 557 3648 
C 755 3648 1088 3686 1344 3839 
L 1344 467 
C 1344 243 1331 166 781 166 
L 589 166 
L 589 0 
C 896 6 1216 12 1523 12 
C 1830 12 2150 6 2458 0 
L 2458 166 
L 2266 166 
C 1715 166 1702 236 1702 467 
L 1702 4083 
z
" transform="scale(0.015625)"/>
       </defs>
       <use xlink:href="#CMSY10-0" transform="scale(0.996264)"/>
       <use xlink:href="#CMR17-30" transform="translate(77.487468 0) scale(0.996264)"/>
       <use xlink:href="#CMMI12-3a" transform="translate(123.177945 0) scale(0.996264)"/>
       <use xlink:href="#CMR17-31" transform="translate(150.275122 0) scale(0.996264)"/>
      </g>
     </g>
    </g>
    <g id="xtick_2">
     <g id="line2d_2">
      <g>
       <use xlink:href="#m439ac97314" x="73.133858" y="91.417323" style="stroke: #000000; stroke-width: 0.8"/>
      </g>
     </g>
     <g id="text_2">
      <!-- $\mathdefault{0.0}$ -->
      <g transform="translate(66.768819 105.335821) scale(0.1 -0.1)">
       <use xlink:href="#CMR17-30" transform="scale(0.996264)"/>
       <use xlink:href="#CMMI12-3a" transform="translate(45.690477 0) scale(0.996264)"/>
       <use xlink:href="#CMR17-30" transform="translate(72.787654 0) scale(0.996264)"/>
      </g>
     </g>
    </g>
    <g id="xtick_3">
     <g id="line2d_3">
      <g>
       <use xlink:href="#m439ac97314" x="115.795276" y="91.417323" style="stroke: #000000; stroke-width: 0.8"/>
      </g>
     </g>
     <g id="text_3">
      <!-- $\mathdefault{0.1}$ -->
      <g transform="translate(109.430236 105.335821) scale(0.1 -0.1)">
       <use xlink:href="#CMR17-30" transform="scale(0.996264)"/>
       <use xlink:href="#CMMI12-3a" transform="translate(45.690477 0) scale(0.996264)"/>
       <use xlink:href="#CMR17-31" transform="translate(72.787654 0) scale(0.996264)"/>
      </g>
     </g>
    </g>
    <g id="text_4">
     <!-- $H$ -->
     <g transform="translate(68.993136 118.191498) scale(0.1 -0.1)">
      <defs>
       <path id="CMMI12-48" d="M 4787 3886 
C 4845 4102 4858 4166 5312 4166 
C 5427 4166 5491 4166 5491 4281 
C 5491 4352 5434 4352 5395 4352 
C 5280 4352 5146 4339 5024 4339 
L 4269 4339 
C 4147 4339 4013 4352 3891 4352 
C 3846 4352 3770 4352 3770 4230 
C 3770 4166 3814 4166 3936 4166 
C 4320 4166 4320 4115 4320 4045 
C 4320 4032 4320 3994 4294 3899 
L 3904 2361 
L 1971 2361 
L 2355 3886 
C 2413 4102 2426 4166 2880 4166 
C 2995 4166 3059 4166 3059 4281 
C 3059 4352 3002 4352 2963 4352 
C 2848 4352 2714 4339 2592 4339 
L 1837 4339 
C 1715 4339 1581 4352 1459 4352 
C 1414 4352 1338 4352 1338 4230 
C 1338 4166 1382 4166 1504 4166 
C 1888 4166 1888 4115 1888 4045 
C 1888 4032 1888 3994 1862 3899 
L 998 472 
C 941 249 928 185 486 185 
C 339 185 294 185 294 64 
C 294 0 365 0 384 0 
C 499 0 634 12 755 12 
L 1510 12 
C 1632 12 1766 0 1888 0 
C 1939 0 2010 0 2010 121 
C 2010 185 1952 185 1856 185 
C 1466 185 1466 236 1466 300 
C 1466 306 1466 351 1478 402 
L 1920 2176 
L 3859 2176 
C 3750 1755 3424 421 3411 383 
C 3341 191 3238 191 2861 185 
C 2784 185 2726 185 2726 64 
C 2726 0 2797 0 2816 0 
C 2931 0 3066 12 3187 12 
L 3942 12 
C 4064 12 4198 0 4320 0 
C 4371 0 4442 0 4442 121 
C 4442 185 4384 185 4288 185 
C 3898 185 3898 236 3898 300 
C 3898 306 3898 351 3910 402 
L 4787 3886 
z
" transform="scale(0.015625)"/>
      </defs>
      <use xlink:href="#CMMI12-48" transform="scale(0.996264)"/>
     </g>
    </g>
   </g>
   <g id="matplotlib.axis_2">
    <g id="ytick_1">
     <g id="line2d_4">
      <defs>
       <path id="m6b753536da" d="M 0 0 
L -3.5 0 
" style="stroke: #000000; stroke-width: 0.8"/>
      </defs>
      <g>
       <use xlink:href="#m6b753536da" x="30.472441" y="91.417323" style="stroke: #000000; stroke-width: 0.8"/>
      </g>
     </g>
     <g id="text_5">
      <!-- $\mathdefault{0}$ -->
      <g transform="translate(18.491106 94.876572) scale(0.1 -0.1)">
       <use xlink:href="#CMR17-30" transform="scale(0.996264)"/>
      </g>
     </g>
    </g>
    <g id="ytick_2">
     <g id="line2d_5">
      <g>
       <use xlink:href="#m6b753536da" x="30.472441" y="65.007874" style="stroke: #000000; stroke-width: 0.8"/>
      </g>
     </g>
     <g id="text_6">
      <!-- $\mathdefault{1}$ -->
      <g transform="translate(18.491106 68.467123) scale(0.1 -0.1)">
       <use xlink:href="#CMR17-31" transform="scale(0.996264)"/>
      </g>
     </g>
    </g>
    <g id="ytick_3">
     <g id="line2d_6">
      <g>
       <use xlink:href="#m6b753536da" x="30.472441" y="38.598425" style="stroke: #000000; stroke-width: 0.8"/>
      </g>
     </g>
     <g id="text_7">
      <!-- $\mathdefault{2}$ -->
      <g transform="translate(18.491106 42.057674) scale(0.1 -0.1)">
       <defs>
        <path id="CMR17-32" d="M 2669 990 
L 2554 990 
C 2490 537 2438 460 2413 422 
C 2381 371 1920 371 1830 371 
L 602 371 
C 832 620 1280 1073 1824 1596 
C 2214 1966 2669 2400 2669 3033 
C 2669 3788 2067 4224 1395 4224 
C 691 4224 262 3603 262 3027 
C 262 2777 448 2745 525 2745 
C 589 2745 781 2783 781 3007 
C 781 3206 614 3264 525 3264 
C 486 3264 448 3257 422 3244 
C 544 3788 915 4057 1306 4057 
C 1862 4057 2227 3616 2227 3033 
C 2227 2477 1901 1998 1536 1583 
L 262 147 
L 262 0 
L 2515 0 
L 2669 990 
z
" transform="scale(0.015625)"/>
       </defs>
       <use xlink:href="#CMR17-32" transform="scale(0.996264)"/>
      </g>
     </g>
    </g>
    <g id="ytick_4">
     <g id="line2d_7">
      <g>
       <use xlink:href="#m6b753536da" x="30.472441" y="12.188976" style="stroke: #000000; stroke-width: 0.8"/>
      </g>
     </g>
     <g id="text_8">
      <!-- $\mathdefault{3}$ -->
      <g transform="translate(18.491106 15.648226) scale(0.1 -0.1)">
       <defs>
        <path id="CMR17-33" d="M 1414 2176 
C 1984 2176 2234 1673 2234 1094 
C 2234 322 1824 25 1453 25 
C 1114 25 563 193 390 691 
C 422 678 454 678 486 678 
C 640 678 755 780 755 947 
C 755 1132 614 1216 486 1216 
C 378 1216 211 1164 211 927 
C 211 335 787 -128 1466 -128 
C 2176 -128 2720 432 2720 1087 
C 2720 1718 2208 2176 1600 2246 
C 2086 2347 2554 2776 2554 3353 
C 2554 3856 2048 4224 1472 4224 
C 890 4224 378 3862 378 3347 
C 378 3123 544 3084 627 3084 
C 762 3084 877 3167 877 3334 
C 877 3500 762 3584 627 3584 
C 602 3584 570 3584 544 3571 
C 730 3999 1235 4076 1459 4076 
C 1683 4076 2106 3966 2106 3347 
C 2106 3167 2080 2851 1862 2574 
C 1670 2329 1453 2316 1242 2297 
C 1210 2297 1062 2284 1037 2284 
C 992 2278 966 2272 966 2227 
C 966 2182 973 2176 1101 2176 
L 1414 2176 
z
" transform="scale(0.015625)"/>
       </defs>
       <use xlink:href="#CMR17-33" transform="scale(0.996264)"/>
      </g>
     </g>
    </g>
    <g id="text_9">
     <!-- $I(X;Y)$ -->
     <g transform="translate(12.000446 68.988689) rotate(-90) scale(0.1 -0.1)">
      <defs>
       <path id="CMMI12-49" d="M 2355 3879 
C 2413 4102 2426 4166 2893 4166 
C 3034 4166 3085 4166 3085 4287 
C 3085 4352 3014 4352 2995 4352 
C 2880 4352 2739 4339 2624 4339 
L 1837 4339 
C 1709 4339 1562 4352 1434 4352 
C 1382 4352 1312 4352 1312 4230 
C 1312 4166 1363 4166 1491 4166 
C 1888 4166 1888 4115 1888 4045 
C 1888 4000 1875 3962 1862 3905 
L 998 472 
C 941 249 928 185 461 185 
C 320 185 262 185 262 64 
C 262 0 326 0 358 0 
C 474 0 614 12 730 12 
L 1517 12 
C 1645 12 1786 0 1914 0 
C 1965 0 2042 0 2042 115 
C 2042 185 2003 185 1862 185 
C 1466 185 1466 236 1466 312 
C 1466 325 1466 357 1491 459 
L 2355 3879 
z
" transform="scale(0.015625)"/>
       <path id="CMR17-28" d="M 1958 -1562 
C 1958 -1556 1958 -1543 1939 -1524 
C 1645 -1223 858 -403 858 1596 
C 858 3595 1632 4408 1946 4729 
C 1946 4735 1958 4748 1958 4767 
C 1958 4787 1939 4800 1914 4800 
C 1843 4800 1299 4325 986 3620 
C 666 2909 576 2218 576 1603 
C 576 1141 621 360 1005 -467 
C 1312 -1133 1837 -1600 1914 -1600 
C 1946 -1600 1958 -1588 1958 -1562 
z
" transform="scale(0.015625)"/>
       <path id="CMMI12-58" d="M 3040 2586 
L 2438 3981 
C 2522 4134 2714 4159 2790 4166 
C 2829 4166 2899 4172 2899 4281 
C 2899 4352 2842 4352 2803 4352 
C 2694 4352 2566 4339 2458 4339 
L 2086 4339 
C 1696 4339 1414 4352 1408 4352 
C 1357 4352 1293 4352 1293 4230 
C 1293 4166 1350 4166 1434 4166 
C 1805 4166 1830 4102 1894 3949 
L 2656 2179 
L 1267 701 
C 1037 453 762 211 288 185 
C 211 179 160 179 160 64 
C 160 44 166 0 237 0 
C 326 0 422 12 512 12 
L 813 12 
C 1018 12 1242 0 1440 0 
C 1485 0 1562 0 1562 115 
C 1562 179 1517 185 1478 185 
C 1350 198 1267 268 1267 370 
C 1267 478 1344 555 1530 746 
L 2099 1363 
C 2240 1510 2579 1879 2720 2019 
L 3392 453 
C 3398 440 3424 376 3424 370 
C 3424 312 3283 198 3078 185 
C 3040 185 2970 179 2970 64 
C 2970 0 3034 0 3066 0 
C 3174 0 3302 12 3411 12 
L 4115 12 
C 4230 12 4352 0 4461 0 
C 4506 0 4576 0 4576 121 
C 4576 185 4512 185 4454 185 
C 4070 191 4058 223 3949 459 
L 3104 2433 
L 3917 3300 
C 3981 3363 4128 3523 4186 3586 
C 4461 3873 4717 4134 5235 4166 
C 5299 4172 5363 4172 5363 4281 
C 5363 4352 5306 4352 5280 4352 
C 5190 4352 5094 4339 5005 4339 
L 4710 4339 
C 4506 4339 4282 4352 4083 4352 
C 4038 4352 3962 4352 3962 4236 
C 3962 4172 4006 4166 4045 4166 
C 4147 4153 4256 4102 4256 3981 
L 4250 3968 
C 4243 3924 4230 3860 4160 3784 
L 3040 2586 
z
" transform="scale(0.015625)"/>
       <path id="CMR17-3b" d="M 1062 2489 
C 1062 2649 934 2752 800 2752 
C 672 2752 538 2649 538 2489 
C 538 2329 666 2227 800 2227 
C 928 2227 1062 2329 1062 2489 
z
M 979 -69 
C 979 -469 851 -795 634 -1095 
C 595 -1140 595 -1152 595 -1159 
C 595 -1191 621 -1216 646 -1216 
C 678 -1216 1082 -782 1082 -57 
C 1082 192 1062 524 800 524 
C 659 524 538 428 538 262 
C 538 96 659 0 800 0 
C 864 0 934 19 979 64 
L 979 -69 
z
" transform="scale(0.015625)"/>
       <path id="CMMI12-59" d="M 3763 3644 
L 3910 3790 
C 4192 4077 4429 4147 4653 4166 
C 4723 4172 4781 4179 4781 4287 
C 4781 4352 4717 4352 4704 4352 
C 4627 4352 4544 4339 4467 4339 
L 4205 4339 
C 4019 4339 3821 4352 3642 4352 
C 3597 4352 3526 4352 3526 4230 
C 3526 4172 3590 4166 3610 4166 
C 3802 4153 3802 4058 3802 4019 
C 3802 3949 3750 3854 3622 3707 
L 2099 1968 
L 1376 3905 
C 1338 3994 1338 4007 1338 4019 
C 1338 4153 1600 4166 1677 4166 
C 1754 4166 1824 4166 1824 4281 
C 1824 4352 1766 4352 1728 4352 
C 1619 4352 1491 4339 1382 4339 
L 672 4339 
C 557 4339 435 4352 326 4352 
C 282 4352 211 4352 211 4230 
C 211 4166 269 4166 365 4166 
C 678 4166 736 4109 794 3962 
L 1587 1841 
C 1594 1822 1613 1752 1613 1733 
C 1613 1714 1299 459 1280 395 
C 1229 223 1165 191 755 185 
C 646 185 595 185 595 64 
C 595 0 666 0 685 0 
C 800 0 934 12 1056 12 
L 1811 12 
C 1926 12 2061 0 2176 0 
C 2221 0 2298 0 2298 115 
C 2298 185 2253 185 2144 185 
C 1747 185 1747 230 1747 300 
C 1747 344 1798 548 1830 676 
L 2061 1593 
C 2099 1726 2099 1739 2157 1803 
L 3763 3644 
z
" transform="scale(0.015625)"/>
       <path id="CMR17-29" d="M 1683 1596 
C 1683 2057 1638 2839 1254 3665 
C 947 4332 422 4800 346 4800 
C 326 4800 301 4793 301 4761 
C 301 4748 307 4742 314 4729 
C 621 4408 1402 3595 1402 1603 
C 1402 -396 627 -1210 314 -1530 
C 307 -1543 301 -1549 301 -1562 
C 301 -1594 326 -1600 346 -1600 
C 416 -1600 960 -1127 1274 -422 
C 1594 289 1683 981 1683 1596 
z
" transform="scale(0.015625)"/>
      </defs>
      <use xlink:href="#CMMI12-49" transform="scale(0.996264)"/>
      <use xlink:href="#CMR17-28" transform="translate(50.856514 0) scale(0.996264)"/>
      <use xlink:href="#CMMI12-58" transform="translate(86.137282 0) scale(0.996264)"/>
      <use xlink:href="#CMR17-3b" transform="translate(174.929844 0) scale(0.996264)"/>
      <use xlink:href="#CMMI12-59" transform="translate(216.405307 0) scale(0.996264)"/>
      <use xlink:href="#CMR17-29" transform="translate(294.681656 0) scale(0.996264)"/>
     </g>
    </g>
   </g>
   <g id="line2d_8">
    <path d="M 115.795276 79.734601 
L 115.795276 79.447399 
L 115.795276 79.764814 
L 115.692888 79.530324 
L 115.522243 79.490921 
L 115.317468 79.495569 
L 110.50526 78.638451 
L 110.300485 78.585526 
L 109.140094 78.298059 
L 108.867061 78.251235 
L 108.628157 78.188777 
L 104.566791 77.183343 
L 104.293757 77.121069 
L 104.157241 77.100391 
L 103.952466 77.009674 
L 102.484913 76.691757 
L 102.280139 76.679952 
L 102.075364 76.601305 
L 101.290394 76.340406 
L 101.153877 76.332747 
L 100.198261 76.072852 
L 99.959357 75.996766 
L 99.788712 75.956571 
L 99.48155 75.861814 
L 99.276775 75.780869 
L 98.218772 75.470954 
L 98.013997 75.367482 
L 97.809222 75.326917 
L 97.467931 75.243384 
L 97.160769 75.123274 
L 96.580573 74.919314 
L 96.375798 74.908724 
L 96.102765 74.813385 
L 89.379326 72.546002 
L 89.242809 72.449159 
L 88.594356 72.180284 
L 88.355452 72.110959 
L 87.399836 71.689914 
L 87.297449 71.598722 
L 86.922028 71.477634 
L 84.669506 70.444866 
L 84.464731 70.357161 
L 84.055181 70.096737 
L 83.918665 70.028997 
L 83.748019 69.958616 
L 82.826532 69.473184 
L 82.724145 69.400373 
L 82.51937 69.250842 
L 82.178079 69.05742 
L 79.106457 67.016233 
L 78.765165 66.750317 
L 78.662778 66.693325 
L 78.355616 66.457357 
L 77.843679 65.990015 
L 77.77542 66.037737 
L 77.741291 65.994689 
L 77.570646 65.824586 
L 77.263483 65.485674 
L 77.195225 65.505586 
L 77.161096 65.452055 
L 76.717417 65.091407 
L 76.512643 64.833836 
L 75.079219 63.259727 
L 74.772057 62.849852 
L 74.669669 62.777147 
L 72.860825 60.319299 
L 72.348888 59.632442 
L 72.007597 59.091365 
L 70.403528 56.640648 
L 69.823332 55.724926 
L 69.482041 55.080166 
L 69.413783 54.97746 
L 69.004233 54.327418 
L 66.37629 49.763416 
L 66.239773 49.521875 
L 64.089638 45.966661 
L 62.076019 43.420659 
L 61.837115 43.173492 
L 61.666469 43.049025 
L 61.25692 42.736654 
L 61.018016 42.565758 
L 60.813241 42.478713 
L 60.43782 42.258167 
L 59.857625 42.14635 
L 59.618721 42.170752 
L 59.243301 42.17886 
L 59.038526 42.31368 
L 58.86788 42.32633 
L 58.697235 42.462312 
L 58.185298 42.841262 
L 57.878135 43.160869 
L 56.444712 45.398409 
L 55.898646 46.568321 
L 55.250192 48.236316 
L 52.96354 55.584032 
L 51.325342 61.465707 
L 49.891918 66.467022 
L 48.697398 70.163025 
L 48.321978 71.21935 
L 46.581392 75.361646 
L 46.069455 76.286769 
L 45.07971 77.923124 
L 44.772548 78.290744 
L 43.885191 79.394633 
L 43.680416 79.533414 
L 43.373254 79.875813 
L 43.10022 80.113154 
L 42.963704 80.173632 
L 42.34938 80.673325 
L 42.110476 80.867144 
L 41.632668 81.136837 
L 39.004724 82.260348 
L 38.79995 82.326874 
L 38.663433 82.362104 
L 37.844334 82.534584 
L 37.161751 82.651076 
L 31.359798 84.056006 
L 31.155024 84.127866 
L 30.50657 84.30613 
L 30.50657 84.30613 
" clip-path="url(#p4c6e1fd32b)" style="fill: none; stroke: #00bfbf; stroke-width: 1.5; stroke-linecap: square"/>
   </g>
   <g id="line2d_9">
    <path d="M 115.795276 79.674282 
L 115.795276 79.699107 
L 115.795276 79.429229 
L 115.692888 79.459732 
L 115.419855 79.502172 
L 114.873789 79.359006 
L 114.498369 79.30014 
L 114.191206 79.34287 
L 114.020561 79.283053 
L 113.849915 79.255217 
L 113.64514 79.237285 
L 113.508624 79.230735 
L 113.372107 79.131594 
L 113.337978 79.176121 
L 108.082091 78.029502 
L 107.774929 77.924973 
L 107.570154 77.923705 
L 107.36538 77.845692 
L 106.819313 77.751093 
L 106.580409 77.678916 
L 106.409764 77.624592 
L 106.17086 77.552626 
L 100.983231 76.267384 
L 100.744328 76.193332 
L 100.368907 76.067834 
L 100.027616 75.958578 
L 99.583937 75.882704 
L 98.798967 75.621277 
L 98.457676 75.534152 
L 96.785348 75.043808 
L 96.682961 75.017821 
L 96.341669 74.896575 
L 96.034507 74.826801 
L 95.795603 74.705265 
L 95.556699 74.697791 
L 95.351924 74.618457 
L 94.976504 74.48987 
L 94.464567 74.282925 
L 94.225663 74.221444 
L 92.826369 73.773698 
L 92.553335 73.628288 
L 92.450948 73.634917 
L 92.348561 73.568629 
L 92.314431 73.592582 
L 92.041398 73.523073 
L 91.700107 73.357697 
L 90.471458 72.842158 
L 90.334942 72.812658 
L 89.720617 72.614191 
L 88.389581 72.013007 
L 87.980031 71.880299 
L 87.672869 71.729765 
L 87.365707 71.632605 
L 86.614866 71.253999 
L 86.47835 71.217105 
L 81.290721 68.452168 
L 81.051817 68.281853 
L 80.915301 68.238991 
L 80.710526 68.068808 
L 80.642268 68.081828 
L 80.608139 68.023278 
L 80.437493 67.966947 
L 80.027943 67.604372 
L 79.925556 67.537001 
L 79.584265 67.331985 
L 79.447748 67.241664 
L 79.106457 67.011585 
L 77.434129 65.633276 
L 77.331742 65.559726 
L 74.976831 63.019427 
L 74.737928 62.783459 
L 74.157732 61.974617 
L 74.021216 61.776678 
L 73.714054 61.396936 
L 73.509279 61.169419 
L 73.202117 60.720881 
L 73.031471 60.532423 
L 72.383017 59.58715 
L 67.741455 52.164378 
L 67.502551 51.758121 
L 66.171515 49.44064 
L 65.864353 48.962444 
L 65.318287 48.056415 
L 64.942866 47.44015 
L 64.465058 46.669628 
L 63.509443 45.309621 
L 63.270539 44.97459 
L 63.031635 44.663566 
L 61.222791 42.913386 
L 59.891754 42.334913 
L 59.516334 42.388445 
L 59.311559 42.405823 
L 59.072655 42.495615 
L 58.117039 43.129943 
L 57.502715 43.880289 
L 57.263811 44.258868 
L 56.376454 45.820195 
L 55.796258 47.101872 
L 55.454967 47.983393 
L 52.96354 55.816752 
L 52.042054 59.127784 
L 51.837279 59.839439 
L 51.01818 62.732462 
L 47.707654 72.884096 
L 46.581392 75.351003 
L 46.342488 75.791486 
L 44.943194 77.986085 
L 43.10022 80.038495 
L 42.963704 80.131984 
L 42.246992 80.695932 
L 41.257247 81.283357 
L 40.574665 81.648573 
L 40.301631 81.771404 
L 37.298268 82.579612 
L 37.059364 82.624983 
L 36.854589 82.695021 
L 36.683943 82.666314 
L 36.308523 82.768783 
L 36.03549 82.805175 
L 35.796586 82.878092 
L 35.591811 82.909334 
L 35.421165 82.922618 
L 35.25052 82.962206 
L 34.704454 83.040906 
L 34.363162 83.128612 
L 33.339288 83.417293 
L 33.100384 83.464646 
L 32.895609 83.555177 
L 32.315414 83.716354 
L 31.871735 83.840082 
L 31.325669 84.000705 
L 30.50657 84.222597 
L 30.50657 84.222597 
" clip-path="url(#p4c6e1fd32b)" style="fill: none; stroke-dasharray: 5.55,2.4; stroke-dashoffset: 0; stroke: #bfbf00; stroke-width: 1.5"/>
   </g>
   <g id="line2d_10">
    <path d="M 115.795975 79.692109 
L 115.795975 79.721133 
L 115.795975 79.469767 
L 115.693405 79.472171 
L 115.5567 79.493483 
L 114.259044 79.341866 
L 114.054057 79.315061 
L 113.64432 79.30278 
L 113.439553 79.187054 
L 112.961342 79.130881 
L 112.687955 79.061768 
L 107.430356 77.917631 
L 107.293711 77.885597 
L 106.713278 77.726295 
L 106.576791 77.730309 
L 106.269721 77.658502 
L 102.993095 76.793645 
L 102.822355 76.721204 
L 102.720015 76.705675 
L 101.86647 76.552553 
L 101.69637 76.48719 
L 100.979735 76.294058 
L 100.774599 76.259039 
L 100.535602 76.187047 
L 100.023863 76.010552 
L 99.921386 76.017339 
L 99.375217 75.838785 
L 99.170787 75.810712 
L 99.034102 75.749891 
L 98.112775 75.455426 
L 97.908122 75.362808 
L 97.737328 75.319813 
L 97.43047 75.276581 
L 96.713823 75.104787 
L 96.577396 75.056564 
L 96.508958 75.095069 
L 96.47518 75.060129 
L 96.269917 74.93302 
L 95.758153 74.762151 
L 95.212361 74.600076 
L 94.666328 74.444657 
L 94.461704 74.318235 
L 94.325023 74.294255 
L 93.881717 74.12983 
L 93.710911 74.097399 
L 93.471821 73.990361 
L 93.267327 73.94396 
L 92.994133 73.859925 
L 92.823398 73.785952 
L 92.686814 73.759701 
L 92.516524 73.72249 
L 91.595325 73.381254 
L 91.322296 73.301629 
L 91.151674 73.210781 
L 90.196328 72.874958 
L 89.582298 72.614931 
L 86.750068 71.456216 
L 86.647352 71.423072 
L 86.340027 71.226586 
L 86.237738 71.205564 
L 85.999053 71.033612 
L 85.930849 71.026587 
L 85.896763 70.980609 
L 85.453472 70.752642 
L 84.838815 70.505054 
L 84.634208 70.392866 
L 84.020353 70.099695 
L 83.849404 70.031189 
L 82.757494 69.447329 
L 82.58692 69.386904 
L 82.313561 69.18297 
L 81.119694 68.43994 
L 80.880767 68.290172 
L 80.744243 68.260515 
L 80.539426 68.077471 
L 78.116529 66.246002 
L 77.843516 66.02514 
L 77.80934 66.046188 
L 77.77516 65.989302 
L 77.604656 65.790544 
L 77.570474 65.833618 
L 77.536291 65.785315 
L 77.331573 65.584736 
L 77.229004 65.505956 
L 76.683084 64.920195 
L 76.615104 64.875246 
L 75.727579 63.886661 
L 75.659551 63.836721 
L 75.318057 63.403685 
L 72.178165 59.183059 
L 71.905188 58.773343 
L 71.768681 58.614992 
L 71.461237 58.115114 
L 69.891578 55.644668 
L 69.345516 54.724457 
L 69.209052 54.554486 
L 68.833548 53.899188 
L 66.990113 50.666144 
L 66.717205 50.270873 
L 66.17109 49.250359 
L 64.976272 47.280716 
L 64.771445 47.001146 
L 62.620914 44.016165 
L 62.518771 43.884435 
L 61.904261 43.242685 
L 61.835943 43.209647 
L 61.426295 42.842793 
L 60.914359 42.582872 
L 60.743467 42.491284 
L 60.16324 42.256398 
L 59.719576 42.258775 
L 59.583252 42.29588 
L 59.105419 42.41121 
L 58.456385 42.818338 
L 57.944177 43.323551 
L 57.466523 43.923626 
L 57.125001 44.413363 
L 56.066795 46.612927 
L 53.370161 54.709298 
L 51.970443 59.736099 
L 49.717694 67.583535 
L 46.95296 74.99194 
L 46.06541 76.66239 
L 45.178147 78.092515 
L 44.870393 78.420018 
L 44.256175 79.183806 
L 44.119804 79.286988 
L 43.812782 79.627405 
L 42.140325 80.951205 
L 41.901366 81.051033 
L 41.662205 81.220027 
L 41.491628 81.296298 
L 41.048212 81.563376 
L 40.775207 81.650607 
L 40.399751 81.841732 
L 38.011141 82.54425 
L 37.840593 82.574304 
L 37.60198 82.632352 
L 34.395225 83.146993 
L 34.156577 83.227594 
L 31.666834 83.877135 
L 31.393828 83.967772 
L 31.052973 84.062925 
L 30.507399 84.209973 
L 30.507399 84.209973 
" clip-path="url(#p4c6e1fd32b)" style="fill: none; stroke-dasharray: 1.5,2.475; stroke-dashoffset: 0; stroke: #bf00bf; stroke-width: 1.5"/>
   </g>
   <g id="line2d_11">
    <path d="M 30.472441 83.964603 
L 32.605512 83.409796 
L 34.738583 83.019166 
L 36.871654 82.554053 
L 39.004724 81.317504 
L 41.137795 80.786821 
L 43.270866 80.412087 
L 45.403937 78.871907 
L 47.537008 78.267912 
L 49.670079 77.326102 
L 51.80315 75.981218 
L 53.93622 74.307452 
L 56.069291 72.174711 
L 58.202362 69.700673 
L 60.335433 67.906275 
L 62.468504 63.285794 
L 64.601575 59.763643 
L 66.734646 49.883896 
L 68.867717 38.763206 
L 71.000787 30.917197 
L 73.133858 32.577069 
L 75.266929 39.313345 
L 77.4 49.831707 
L 79.533071 54.661907 
L 81.666142 60.80918 
L 83.799213 62.744566 
L 85.932283 65.79732 
L 88.065354 68.747331 
L 90.198425 70.287926 
L 92.331496 71.470595 
L 94.464567 72.899994 
L 96.597638 73.978587 
L 98.730709 74.097815 
L 100.86378 75.858706 
L 102.99685 76.588618 
L 105.129921 77.638621 
L 107.262992 77.84971 
L 109.396063 78.257386 
L 111.529134 78.782537 
L 113.662205 79.115793 
L 115.795276 79.812882 
" clip-path="url(#p4c6e1fd32b)" style="fill: none; stroke-dasharray: 5.55,2.4; stroke-dashoffset: 0; stroke: #000000; stroke-width: 1.5"/>
   </g>
   <g id="patch_3">
    <path d="M 30.472441 91.417323 
L 30.472441 12.188976 
" style="fill: none; stroke: #000000; stroke-width: 0.8; stroke-linejoin: miter; stroke-linecap: square"/>
   </g>
   <g id="patch_4">
    <path d="M 115.795276 91.417323 
L 115.795276 12.188976 
" style="fill: none; stroke: #000000; stroke-width: 0.8; stroke-linejoin: miter; stroke-linecap: square"/>
   </g>
   <g id="patch_5">
    <path d="M 30.472441 91.417323 
L 115.795276 91.417323 
" style="fill: none; stroke: #000000; stroke-width: 0.8; stroke-linejoin: miter; stroke-linecap: square"/>
   </g>
   <g id="patch_6">
    <path d="M 30.472441 12.188976 
L 115.795276 12.188976 
" style="fill: none; stroke: #000000; stroke-width: 0.8; stroke-linejoin: miter; stroke-linecap: square"/>
   </g>
  </g>
  <g id="legend_1">
   <g id="line2d_12">
    <path d="M 77.711201 11.25 
L 86.711201 11.25 
L 95.711201 11.25 
" style="fill: none; stroke: #00bfbf; stroke-width: 1.5; stroke-linecap: square"/>
   </g>
   <g id="text_10">
    <!-- P1 -->
    <g transform="translate(102.911201 14.4) scale(0.09 -0.09)">
     <defs>
      <path id="CMR17-50" d="M 1267 2048 
L 2291 2048 
C 3117 2048 3718 2583 3718 3187 
C 3718 3791 3130 4352 2291 4352 
L 333 4352 
L 333 4185 
C 774 4185 845 4185 845 3899 
L 845 453 
C 845 166 774 166 333 166 
L 333 0 
C 518 12 858 12 1056 12 
C 1254 12 1594 12 1779 0 
L 1779 166 
C 1338 166 1267 166 1267 453 
L 1267 2048 
z
M 1254 2182 
L 1254 3937 
C 1254 4153 1267 4185 1523 4185 
L 2170 4185 
C 2995 4185 3232 3715 3232 3187 
C 3232 2608 2950 2182 2170 2182 
L 1254 2182 
z
" transform="scale(0.015625)"/>
     </defs>
     <use xlink:href="#CMR17-50" transform="scale(0.996264)"/>
     <use xlink:href="#CMR17-31" transform="translate(62.586301 0) scale(0.996264)"/>
    </g>
   </g>
   <g id="line2d_13">
    <path d="M 77.711201 23.793462 
L 86.711201 23.793462 
L 95.711201 23.793462 
" style="fill: none; stroke-dasharray: 5.55,2.4; stroke-dashoffset: 0; stroke: #bfbf00; stroke-width: 1.5"/>
   </g>
   <g id="text_11">
    <!-- P2 -->
    <g transform="translate(102.911201 26.943462) scale(0.09 -0.09)">
     <use xlink:href="#CMR17-50" transform="scale(0.996264)"/>
     <use xlink:href="#CMR17-32" transform="translate(62.586301 0) scale(0.996264)"/>
    </g>
   </g>
   <g id="line2d_14">
    <path d="M 77.711201 36.336924 
L 86.711201 36.336924 
L 95.711201 36.336924 
" style="fill: none; stroke-dasharray: 1.5,2.475; stroke-dashoffset: 0; stroke: #bf00bf; stroke-width: 1.5"/>
   </g>
   <g id="text_12">
    <!-- P3 -->
    <g transform="translate(102.911201 39.486924) scale(0.09 -0.09)">
     <use xlink:href="#CMR17-50" transform="scale(0.996264)"/>
     <use xlink:href="#CMR17-33" transform="translate(62.586301 0) scale(0.996264)"/>
    </g>
   </g>
   <g id="line2d_15">
    <path d="M 77.711201 48.880386 
L 86.711201 48.880386 
L 95.711201 48.880386 
" style="fill: none; stroke-dasharray: 5.55,2.4; stroke-dashoffset: 0; stroke: #000000; stroke-width: 1.5"/>
   </g>
   <g id="text_13">
    <!-- SS -->
    <g transform="translate(102.911201 52.030386) scale(0.09 -0.09)">
     <defs>
      <path id="CMR17-53" d="M 2803 4351 
C 2803 4467 2797 4473 2758 4473 
C 2720 4473 2707 4447 2682 4390 
L 2490 3965 
C 2246 4320 1875 4480 1472 4480 
C 819 4480 294 3958 294 3301 
C 294 3101 339 2817 557 2546 
C 794 2250 1018 2198 1530 2063 
C 1722 2011 2042 1927 2106 1901 
C 2470 1747 2662 1360 2662 999 
C 2662 534 2336 38 1779 38 
C 1094 38 454 425 410 1328 
C 403 1431 397 1437 352 1437 
C 301 1437 294 1431 294 1302 
L 294 0 
C 294 -116 301 -122 339 -122 
C 384 -122 397 -90 486 109 
C 493 128 493 141 614 386 
C 934 -39 1472 -128 1779 -128 
C 2477 -128 2970 457 2970 1141 
C 2970 1476 2848 1734 2778 1850 
C 2509 2263 2221 2340 1914 2417 
C 1869 2437 1856 2437 1498 2527 
C 1152 2617 1005 2662 845 2836 
C 666 3036 602 3243 602 3449 
C 602 3868 934 4326 1478 4326 
C 2157 4326 2579 3842 2675 3036 
C 2694 2920 2701 2914 2746 2914 
C 2803 2914 2803 2933 2803 3043 
L 2803 4351 
z
" transform="scale(0.015625)"/>
     </defs>
     <use xlink:href="#CMR17-53" transform="scale(0.996264)"/>
     <use xlink:href="#CMR17-53" transform="translate(50.89537 0) scale(0.996264)"/>
    </g>
   </g>
  </g>
 </g>
 <defs>
  <clipPath id="p4c6e1fd32b">
   <rect x="30.472441" y="12.188976" width="85.322835" height="79.228346"/>
  </clipPath>
 </defs>
</svg>
