<?xml version="1.0" encoding="utf-8" standalone="no"?>
<!DOCTYPE svg PUBLIC "-//W3C//DTD SVG 1.1//EN"
  "http://www.w3.org/Graphics/SVG/1.1/DTD/svg11.dtd">
<svg xmlns:xlink="http://www.w3.org/1999/xlink" width="121.889764pt" height="121.889764pt" viewBox="0 0 121.889764 121.889764" xmlns="http://www.w3.org/2000/svg" version="1.1">
 <metadata>
  <rdf:RDF xmlns:dc="http://purl.org/dc/elements/1.1/" xmlns:cc="http://creativecommons.org/ns#" xmlns:rdf="http://www.w3.org/1999/02/22-rdf-syntax-ns#">
   <cc:Work>
    <dc:type rdf:resource="http://purl.org/dc/dcmitype/StillImage"/>
    <dc:date>2024-06-26T20:05:39.578714</dc:date>
    <dc:format>image/svg+xml</dc:format>
    <dc:creator>
     <cc:Agent>
      <dc:title>Matplotlib v3.8.4, https://matplotlib.org/</dc:title>
     </cc:Agent>
    </dc:creator>
   </cc:Work>
  </rdf:RDF>
 </metadata>
 <defs>
  <style type="text/css">*{stroke-linejoin: round; stroke-linecap: butt}</style>
 </defs>
 <g id="figure_1">
  <g id="patch_1">
   <path d="M 0 121.889764 
L 121.889764 121.889764 
L 121.889764 0 
L 0 0 
z
" style="fill: #ffffff"/>
  </g>
  <g id="axes_1">
   <g id="patch_2">
    <path d="M 46.069276 85.22954 
L 106.282159 85.22954 
L 106.282159 10.34905 
L 46.069276 10.34905 
z
" style="fill: #ffffff"/>
   </g>
   <g id="matplotlib.axis_1">
    <g id="xtick_1">
     <g id="line2d_1">
      <defs>
       <path id="m7085ed7c27" d="M 0 0 
L 0 3.5 
" style="stroke: #000000; stroke-width: 0.8"/>
      </defs>
      <g>
       <use xlink:href="#m7085ed7c27" x="46.069276" y="85.22954" style="stroke: #000000; stroke-width: 0.8"/>
      </g>
     </g>
     <g id="text_1">
      <!-- $\mathdefault{−0.1}$ -->
      <g transform="translate(36.597912 98.45619) scale(0.09 -0.09)">
       <defs>
        <path id="CMSY10-0" d="M 4218 1472 
C 4326 1472 4442 1472 4442 1600 
C 4442 1728 4326 1728 4218 1728 
L 755 1728 
C 646 1728 531 1728 531 1600 
C 531 1472 646 1472 755 1472 
L 4218 1472 
z
" transform="scale(0.015625)"/>
        <path id="CMR17-30" d="M 2688 2038 
C 2688 2430 2682 3099 2413 3613 
C 2176 4063 1798 4224 1466 4224 
C 1158 4224 768 4082 525 3620 
C 269 3137 243 2539 243 2038 
C 243 1671 250 1112 448 623 
C 723 -39 1216 -128 1466 -128 
C 1760 -128 2208 -7 2470 604 
C 2662 1048 2688 1568 2688 2038 
z
M 1466 -26 
C 1056 -26 813 328 723 816 
C 653 1196 653 1749 653 2109 
C 653 2604 653 3015 736 3407 
C 858 3954 1216 4121 1466 4121 
C 1728 4121 2067 3947 2189 3420 
C 2272 3054 2278 2623 2278 2109 
C 2278 1691 2278 1176 2202 797 
C 2067 96 1690 -26 1466 -26 
z
" transform="scale(0.015625)"/>
        <path id="CMMI12-3a" d="M 1178 307 
C 1178 492 1024 620 870 620 
C 685 620 557 467 557 313 
C 557 128 710 0 864 0 
C 1050 0 1178 153 1178 307 
z
" transform="scale(0.015625)"/>
        <path id="CMR17-31" d="M 1702 4083 
C 1702 4217 1696 4224 1606 4224 
C 1357 3927 979 3833 621 3820 
C 602 3820 570 3820 563 3808 
C 557 3795 557 3782 557 3648 
C 755 3648 1088 3686 1344 3839 
L 1344 467 
C 1344 243 1331 166 781 166 
L 589 166 
L 589 0 
C 896 6 1216 12 1523 12 
C 1830 12 2150 6 2458 0 
L 2458 166 
L 2266 166 
C 1715 166 1702 236 1702 467 
L 1702 4083 
z
" transform="scale(0.015625)"/>
       </defs>
       <use xlink:href="#CMSY10-0" transform="scale(0.996264)"/>
       <use xlink:href="#CMR17-30" transform="translate(77.487468 0) scale(0.996264)"/>
       <use xlink:href="#CMMI12-3a" transform="translate(123.177945 0) scale(0.996264)"/>
       <use xlink:href="#CMR17-31" transform="translate(150.275122 0) scale(0.996264)"/>
      </g>
     </g>
    </g>
    <g id="xtick_2">
     <g id="line2d_2">
      <g>
       <use xlink:href="#m7085ed7c27" x="76.175718" y="85.22954" style="stroke: #000000; stroke-width: 0.8"/>
      </g>
     </g>
     <g id="text_2">
      <!-- $\mathdefault{0.0}$ -->
      <g transform="translate(70.288113 98.45619) scale(0.09 -0.09)">
       <use xlink:href="#CMR17-30" transform="scale(0.996264)"/>
       <use xlink:href="#CMMI12-3a" transform="translate(45.690477 0) scale(0.996264)"/>
       <use xlink:href="#CMR17-30" transform="translate(72.787654 0) scale(0.996264)"/>
      </g>
     </g>
    </g>
    <g id="xtick_3">
     <g id="line2d_3">
      <g>
       <use xlink:href="#m7085ed7c27" x="106.282159" y="85.22954" style="stroke: #000000; stroke-width: 0.8"/>
      </g>
     </g>
     <g id="text_3">
      <!-- $\mathdefault{0.1}$ -->
      <g transform="translate(100.394554 98.45619) scale(0.09 -0.09)">
       <use xlink:href="#CMR17-30" transform="scale(0.996264)"/>
       <use xlink:href="#CMMI12-3a" transform="translate(45.690477 0) scale(0.996264)"/>
       <use xlink:href="#CMR17-31" transform="translate(72.787654 0) scale(0.996264)"/>
      </g>
     </g>
    </g>
    <g id="text_4">
     <!-- $H$ -->
     <g transform="translate(72.364342 110.426302) scale(0.09 -0.09)">
      <defs>
       <path id="CMMI12-48" d="M 4787 3886 
C 4845 4102 4858 4166 5312 4166 
C 5427 4166 5491 4166 5491 4281 
C 5491 4352 5434 4352 5395 4352 
C 5280 4352 5146 4339 5024 4339 
L 4269 4339 
C 4147 4339 4013 4352 3891 4352 
C 3846 4352 3770 4352 3770 4230 
C 3770 4166 3814 4166 3936 4166 
C 4320 4166 4320 4115 4320 4045 
C 4320 4032 4320 3994 4294 3899 
L 3904 2361 
L 1971 2361 
L 2355 3886 
C 2413 4102 2426 4166 2880 4166 
C 2995 4166 3059 4166 3059 4281 
C 3059 4352 3002 4352 2963 4352 
C 2848 4352 2714 4339 2592 4339 
L 1837 4339 
C 1715 4339 1581 4352 1459 4352 
C 1414 4352 1338 4352 1338 4230 
C 1338 4166 1382 4166 1504 4166 
C 1888 4166 1888 4115 1888 4045 
C 1888 4032 1888 3994 1862 3899 
L 998 472 
C 941 249 928 185 486 185 
C 339 185 294 185 294 64 
C 294 0 365 0 384 0 
C 499 0 634 12 755 12 
L 1510 12 
C 1632 12 1766 0 1888 0 
C 1939 0 2010 0 2010 121 
C 2010 185 1952 185 1856 185 
C 1466 185 1466 236 1466 300 
C 1466 306 1466 351 1478 402 
L 1920 2176 
L 3859 2176 
C 3750 1755 3424 421 3411 383 
C 3341 191 3238 191 2861 185 
C 2784 185 2726 185 2726 64 
C 2726 0 2797 0 2816 0 
C 2931 0 3066 12 3187 12 
L 3942 12 
C 4064 12 4198 0 4320 0 
C 4371 0 4442 0 4442 121 
C 4442 185 4384 185 4288 185 
C 3898 185 3898 236 3898 300 
C 3898 306 3898 351 3910 402 
L 4787 3886 
z
" transform="scale(0.015625)"/>
      </defs>
      <use xlink:href="#CMMI12-48" transform="scale(0.996264)"/>
     </g>
    </g>
   </g>
   <g id="matplotlib.axis_2">
    <g id="ytick_1">
     <g id="line2d_4">
      <defs>
       <path id="m38f59c652d" d="M 0 0 
L -3.5 0 
" style="stroke: #000000; stroke-width: 0.8"/>
      </defs>
      <g>
       <use xlink:href="#m38f59c652d" x="46.069276" y="81.94147" style="stroke: #000000; stroke-width: 0.8"/>
      </g>
     </g>
     <g id="text_5">
      <!-- $\mathdefault{0.00}$ -->
      <g transform="translate(22.686376 85.054795) scale(0.09 -0.09)">
       <use xlink:href="#CMR17-30" transform="scale(0.996264)"/>
       <use xlink:href="#CMMI12-3a" transform="translate(45.690477 0) scale(0.996264)"/>
       <use xlink:href="#CMR17-30" transform="translate(72.787654 0) scale(0.996264)"/>
       <use xlink:href="#CMR17-30" transform="translate(118.478131 0) scale(0.996264)"/>
      </g>
     </g>
    </g>
    <g id="ytick_2">
     <g id="line2d_5">
      <g>
       <use xlink:href="#m38f59c652d" x="46.069276" y="58.738007" style="stroke: #000000; stroke-width: 0.8"/>
      </g>
     </g>
     <g id="text_6">
      <!-- $\mathdefault{0.02}$ -->
      <g transform="translate(22.686376 61.851332) scale(0.09 -0.09)">
       <defs>
        <path id="CMR17-32" d="M 2669 990 
L 2554 990 
C 2490 537 2438 460 2413 422 
C 2381 371 1920 371 1830 371 
L 602 371 
C 832 620 1280 1073 1824 1596 
C 2214 1966 2669 2400 2669 3033 
C 2669 3788 2067 4224 1395 4224 
C 691 4224 262 3603 262 3027 
C 262 2777 448 2745 525 2745 
C 589 2745 781 2783 781 3007 
C 781 3206 614 3264 525 3264 
C 486 3264 448 3257 422 3244 
C 544 3788 915 4057 1306 4057 
C 1862 4057 2227 3616 2227 3033 
C 2227 2477 1901 1998 1536 1583 
L 262 147 
L 262 0 
L 2515 0 
L 2669 990 
z
" transform="scale(0.015625)"/>
       </defs>
       <use xlink:href="#CMR17-30" transform="scale(0.996264)"/>
       <use xlink:href="#CMMI12-3a" transform="translate(45.690477 0) scale(0.996264)"/>
       <use xlink:href="#CMR17-30" transform="translate(72.787654 0) scale(0.996264)"/>
       <use xlink:href="#CMR17-32" transform="translate(118.478131 0) scale(0.996264)"/>
      </g>
     </g>
    </g>
    <g id="ytick_3">
     <g id="line2d_6">
      <g>
       <use xlink:href="#m38f59c652d" x="46.069276" y="35.534544" style="stroke: #000000; stroke-width: 0.8"/>
      </g>
     </g>
     <g id="text_7">
      <!-- $\mathdefault{0.04}$ -->
      <g transform="translate(22.686376 38.647869) scale(0.09 -0.09)">
       <defs>
        <path id="CMR17-34" d="M 2150 4147 
C 2150 4281 2144 4288 2029 4288 
L 128 1254 
L 128 1088 
L 1779 1088 
L 1779 460 
C 1779 230 1766 166 1318 166 
L 1197 166 
L 1197 0 
C 1402 12 1747 12 1965 12 
C 2182 12 2528 12 2733 0 
L 2733 166 
L 2611 166 
C 2163 166 2150 230 2150 460 
L 2150 1088 
L 2803 1088 
L 2803 1254 
L 2150 1254 
L 2150 4147 
z
M 1798 3723 
L 1798 1254 
L 256 1254 
L 1798 3723 
z
" transform="scale(0.015625)"/>
       </defs>
       <use xlink:href="#CMR17-30" transform="scale(0.996264)"/>
       <use xlink:href="#CMMI12-3a" transform="translate(45.690477 0) scale(0.996264)"/>
       <use xlink:href="#CMR17-30" transform="translate(72.787654 0) scale(0.996264)"/>
       <use xlink:href="#CMR17-34" transform="translate(118.478131 0) scale(0.996264)"/>
      </g>
     </g>
    </g>
    <g id="ytick_4">
     <g id="line2d_7">
      <g>
       <use xlink:href="#m38f59c652d" x="46.069276" y="12.331081" style="stroke: #000000; stroke-width: 0.8"/>
      </g>
     </g>
     <g id="text_8">
      <!-- $\mathdefault{0.06}$ -->
      <g transform="translate(22.686376 15.444406) scale(0.09 -0.09)">
       <defs>
        <path id="CMR17-36" d="M 678 2198 
C 678 3712 1395 4076 1811 4076 
C 1946 4076 2272 4049 2400 3782 
C 2298 3782 2106 3782 2106 3558 
C 2106 3385 2246 3328 2336 3328 
C 2394 3328 2566 3353 2566 3571 
C 2566 3987 2246 4224 1805 4224 
C 1043 4224 243 3411 243 2011 
C 243 257 966 -128 1478 -128 
C 2099 -128 2688 431 2688 1295 
C 2688 2101 2170 2688 1517 2688 
C 1126 2688 838 2430 678 1979 
L 678 2198 
z
M 1478 25 
C 691 25 691 1212 691 1450 
C 691 1914 909 2585 1504 2585 
C 1613 2585 1926 2585 2138 2140 
C 2253 1889 2253 1624 2253 1302 
C 2253 954 2253 696 2118 438 
C 1978 173 1773 25 1478 25 
z
" transform="scale(0.015625)"/>
       </defs>
       <use xlink:href="#CMR17-30" transform="scale(0.996264)"/>
       <use xlink:href="#CMMI12-3a" transform="translate(45.690477 0) scale(0.996264)"/>
       <use xlink:href="#CMR17-30" transform="translate(72.787654 0) scale(0.996264)"/>
       <use xlink:href="#CMR17-36" transform="translate(118.478131 0) scale(0.996264)"/>
      </g>
     </g>
    </g>
    <g id="text_9">
     <!-- $Var(m_X)$ -->
     <g transform="translate(16.444782 67.264587) rotate(-90) scale(0.09 -0.09)">
      <defs>
       <path id="CMMI12-56" d="M 3962 3644 
C 4179 3987 4378 4140 4704 4166 
C 4768 4172 4819 4172 4819 4287 
C 4819 4313 4806 4352 4749 4352 
C 4634 4352 4358 4339 4243 4339 
C 4058 4339 3866 4352 3686 4352 
C 3635 4352 3571 4352 3571 4230 
C 3571 4172 3629 4166 3654 4166 
C 3891 4146 3917 4032 3917 3956 
C 3917 3860 3827 3714 3821 3708 
L 1811 540 
L 1363 3968 
C 1363 4153 1696 4166 1766 4166 
C 1862 4166 1920 4166 1920 4287 
C 1920 4352 1850 4352 1830 4352 
C 1722 4352 1594 4339 1485 4339 
L 1126 4339 
C 659 4339 467 4352 461 4352 
C 422 4352 346 4352 346 4236 
C 346 4166 390 4166 493 4166 
C 819 4166 838 4108 858 3949 
L 1370 25 
C 1389 -109 1389 -128 1478 -128 
C 1555 -128 1587 -109 1651 -7 
L 3962 3644 
z
" transform="scale(0.015625)"/>
       <path id="CMMI12-61" d="M 1926 759 
C 1894 651 1894 638 1805 517 
C 1664 338 1382 64 1082 64 
C 819 64 672 300 672 676 
C 672 1028 870 1743 992 2011 
C 1210 2458 1510 2687 1760 2687 
C 2182 2687 2266 2164 2266 2113 
C 2266 2107 2246 2024 2240 2011 
L 1926 759 
z
M 2336 2394 
C 2266 2560 2093 2816 1760 2816 
C 1037 2816 256 1883 256 938 
C 256 306 627 -64 1062 -64 
C 1414 -64 1715 210 1894 421 
C 1958 44 2259 -64 2451 -64 
C 2643 -64 2797 51 2912 280 
C 3014 496 3104 885 3104 910 
C 3104 942 3078 968 3040 968 
C 2982 968 2976 936 2950 840 
C 2854 465 2733 64 2470 64 
C 2285 64 2272 229 2272 356 
C 2272 503 2291 573 2349 821 
C 2394 980 2426 1120 2477 1305 
C 2714 2260 2771 2489 2771 2528 
C 2771 2617 2701 2688 2605 2688 
C 2400 2688 2349 2464 2336 2388 
L 2336 2394 
z
" transform="scale(0.015625)"/>
       <path id="CMMI12-72" d="M 2490 2633 
C 2291 2598 2189 2457 2189 2316 
C 2189 2163 2310 2111 2400 2111 
C 2579 2111 2726 2265 2726 2457 
C 2726 2651 2528 2816 2208 2816 
C 1952 2816 1658 2700 1389 2335 
C 1344 2660 1088 2816 832 2816 
C 582 2816 454 2642 378 2508 
C 269 2278 173 1892 173 1860 
C 173 1834 198 1801 243 1801 
C 294 1801 301 1808 339 1957 
C 435 2342 557 2687 813 2687 
C 966 2687 1011 2604 1011 2419 
C 1011 2278 947 2028 902 1827 
L 723 1130 
C 698 1007 627 716 595 600 
C 550 432 480 128 480 96 
C 480 6 550 -64 646 -64 
C 717 -64 838 -20 877 109 
C 896 160 1133 1136 1171 1285 
C 1203 1427 1242 1562 1274 1705 
C 1299 1795 1325 1898 1344 1982 
C 1363 2040 1536 2355 1696 2495 
C 1773 2566 1939 2687 2202 2687 
C 2304 2687 2406 2674 2490 2633 
z
" transform="scale(0.015625)"/>
       <path id="CMR17-28" d="M 1958 -1562 
C 1958 -1556 1958 -1543 1939 -1524 
C 1645 -1223 858 -403 858 1596 
C 858 3595 1632 4408 1946 4729 
C 1946 4735 1958 4748 1958 4767 
C 1958 4787 1939 4800 1914 4800 
C 1843 4800 1299 4325 986 3620 
C 666 2909 576 2218 576 1603 
C 576 1141 621 360 1005 -467 
C 1312 -1133 1837 -1600 1914 -1600 
C 1946 -1600 1958 -1588 1958 -1562 
z
" transform="scale(0.015625)"/>
       <path id="CMMI12-6d" d="M 1318 1870 
C 1331 1909 1491 2228 1728 2432 
C 1894 2585 2112 2687 2362 2687 
C 2618 2687 2707 2496 2707 2241 
C 2707 2202 2707 2075 2630 1775 
L 2470 1117 
C 2419 925 2298 453 2285 383 
C 2259 287 2221 121 2221 95 
C 2221 6 2291 -64 2387 -64 
C 2579 -64 2611 83 2669 313 
L 3053 1838 
C 3066 1890 3398 2687 4102 2687 
C 4358 2687 4448 2496 4448 2241 
C 4448 1883 4198 1187 4058 804 
C 4000 651 3968 568 3968 453 
C 3968 166 4166 -64 4474 -64 
C 5069 -64 5293 874 5293 913 
C 5293 945 5267 970 5229 970 
C 5171 970 5165 951 5133 842 
C 4986 332 4749 64 4493 64 
C 4429 64 4326 70 4326 274 
C 4326 440 4403 645 4429 715 
C 4544 1021 4832 1775 4832 2145 
C 4832 2528 4608 2816 4122 2816 
C 3693 2816 3347 2573 3091 2196 
C 3072 2541 2861 2816 2381 2816 
C 1811 2816 1510 2413 1395 2253 
C 1376 2617 1114 2816 832 2816 
C 646 2816 499 2726 378 2483 
C 262 2253 173 1864 173 1838 
C 173 1813 198 1781 243 1781 
C 294 1781 301 1787 339 1934 
C 435 2311 557 2687 813 2687 
C 960 2687 1011 2585 1011 2394 
C 1011 2253 947 2004 902 1807 
L 723 1117 
C 698 996 627 708 595 593 
C 550 427 480 127 480 95 
C 480 6 550 -64 646 -64 
C 723 -64 813 -26 864 70 
C 877 102 934 325 966 453 
L 1107 1028 
L 1318 1870 
z
" transform="scale(0.015625)"/>
       <path id="CMMI12-58" d="M 3040 2586 
L 2438 3981 
C 2522 4134 2714 4159 2790 4166 
C 2829 4166 2899 4172 2899 4281 
C 2899 4352 2842 4352 2803 4352 
C 2694 4352 2566 4339 2458 4339 
L 2086 4339 
C 1696 4339 1414 4352 1408 4352 
C 1357 4352 1293 4352 1293 4230 
C 1293 4166 1350 4166 1434 4166 
C 1805 4166 1830 4102 1894 3949 
L 2656 2179 
L 1267 701 
C 1037 453 762 211 288 185 
C 211 179 160 179 160 64 
C 160 44 166 0 237 0 
C 326 0 422 12 512 12 
L 813 12 
C 1018 12 1242 0 1440 0 
C 1485 0 1562 0 1562 115 
C 1562 179 1517 185 1478 185 
C 1350 198 1267 268 1267 370 
C 1267 478 1344 555 1530 746 
L 2099 1363 
C 2240 1510 2579 1879 2720 2019 
L 3392 453 
C 3398 440 3424 376 3424 370 
C 3424 312 3283 198 3078 185 
C 3040 185 2970 179 2970 64 
C 2970 0 3034 0 3066 0 
C 3174 0 3302 12 3411 12 
L 4115 12 
C 4230 12 4352 0 4461 0 
C 4506 0 4576 0 4576 121 
C 4576 185 4512 185 4454 185 
C 4070 191 4058 223 3949 459 
L 3104 2433 
L 3917 3300 
C 3981 3363 4128 3523 4186 3586 
C 4461 3873 4717 4134 5235 4166 
C 5299 4172 5363 4172 5363 4281 
C 5363 4352 5306 4352 5280 4352 
C 5190 4352 5094 4339 5005 4339 
L 4710 4339 
C 4506 4339 4282 4352 4083 4352 
C 4038 4352 3962 4352 3962 4236 
C 3962 4172 4006 4166 4045 4166 
C 4147 4153 4256 4102 4256 3981 
L 4250 3968 
C 4243 3924 4230 3860 4160 3784 
L 3040 2586 
z
" transform="scale(0.015625)"/>
       <path id="CMR17-29" d="M 1683 1596 
C 1683 2057 1638 2839 1254 3665 
C 947 4332 422 4800 346 4800 
C 326 4800 301 4793 301 4761 
C 301 4748 307 4742 314 4729 
C 621 4408 1402 3595 1402 1603 
C 1402 -396 627 -1210 314 -1530 
C 307 -1543 301 -1549 301 -1562 
C 301 -1594 326 -1600 346 -1600 
C 416 -1600 960 -1127 1274 -422 
C 1594 289 1683 981 1683 1596 
z
" transform="scale(0.015625)"/>
      </defs>
      <use xlink:href="#CMMI12-56" transform="scale(0.996264)"/>
      <use xlink:href="#CMMI12-61" transform="translate(78.547321 0) scale(0.996264)"/>
      <use xlink:href="#CMMI12-72" transform="translate(129.755178 0) scale(0.996264)"/>
      <use xlink:href="#CMR17-28" transform="translate(176.42579 0) scale(0.996264)"/>
      <use xlink:href="#CMMI12-6d" transform="translate(211.706558 0) scale(0.996264)"/>
      <use xlink:href="#CMMI12-58" transform="translate(297.033783 -14.943915) scale(0.697382)"/>
      <use xlink:href="#CMR17-29" transform="translate(359.686424 0) scale(0.996264)"/>
     </g>
    </g>
   </g>
   <g id="line2d_8">
    <path d="M 46.069276 69.16172 
L 46.821937 68.908671 
L 47.574598 68.676815 
L 48.327259 68.35388 
L 49.07992 68.041379 
L 49.832581 67.785838 
L 50.585242 67.445025 
L 51.337903 67.051602 
L 52.090564 66.697349 
L 52.843225 66.300357 
L 53.595887 65.866359 
L 54.348548 65.36768 
L 55.101209 64.844955 
L 55.85387 64.253576 
L 56.606531 63.685451 
L 57.359192 62.978171 
L 58.111853 62.270489 
L 58.864514 61.460495 
L 59.617175 60.529319 
L 60.369836 59.616539 
L 61.122497 58.475387 
L 61.875158 57.198693 
L 62.627819 55.861693 
L 63.38048 54.417796 
L 64.133141 52.724038 
L 64.885802 50.758782 
L 65.638463 48.82021 
L 66.391124 46.475005 
L 67.143785 43.831013 
L 67.896446 41.256524 
L 68.649107 38.153964 
L 69.401768 35.084638 
L 70.154429 31.784013 
L 70.90709 28.467245 
L 71.659751 25.51981 
L 72.412412 22.174741 
L 73.165073 19.380498 
L 73.917735 17.102865 
L 74.670396 15.164439 
L 75.423057 14.035071 
L 76.175718 13.752708 
L 76.928379 14.161939 
L 77.68104 15.18657 
L 78.433701 17.191631 
L 79.186362 19.427828 
L 79.939023 22.104718 
L 80.691684 25.311292 
L 81.444345 28.693654 
L 82.197006 31.873842 
L 82.949667 35.074324 
L 83.702328 38.096033 
L 84.454989 41.200307 
L 85.20765 43.788469 
L 85.960311 46.222157 
L 86.712972 48.488786 
L 87.465633 50.780907 
L 88.218294 52.671288 
L 88.970955 54.271361 
L 89.723616 55.825788 
L 90.476277 57.245048 
L 91.228938 58.467436 
L 91.981599 59.526868 
L 92.73426 60.585548 
L 93.486921 61.465464 
L 94.239582 62.260976 
L 94.992244 63.00869 
L 95.744905 63.654774 
L 96.497566 64.263543 
L 97.250227 64.853943 
L 98.002888 65.316968 
L 98.755549 65.826102 
L 99.50821 66.293137 
L 100.260871 66.679858 
L 101.013532 67.0549 
L 101.766193 67.445217 
L 102.518854 67.76948 
L 103.271515 68.104038 
L 104.024176 68.371537 
L 104.776837 68.646174 
L 105.529498 68.919773 
L 106.282159 69.170529 
" clip-path="url(#p64e0490461)" style="fill: none; stroke: #9467bd; stroke-width: 1.5; stroke-linecap: square"/>
   </g>
   <g id="line2d_9">
    <path d="M 46.069276 78.381818 
L 46.821937 78.32587 
L 47.574598 78.262582 
L 48.327259 78.201633 
L 49.07992 78.133644 
L 49.832581 78.064393 
L 50.585242 77.983075 
L 51.337903 77.901638 
L 52.090564 77.823018 
L 52.843225 77.740173 
L 53.595887 77.643689 
L 54.348548 77.537911 
L 55.101209 77.442369 
L 55.85387 77.32079 
L 56.606531 77.203704 
L 57.359192 77.070448 
L 58.111853 76.930239 
L 58.864514 76.782518 
L 59.617175 76.610519 
L 60.369836 76.43679 
L 61.122497 76.238479 
L 61.875158 76.001772 
L 62.627819 75.761523 
L 63.38048 75.4869 
L 64.133141 75.169969 
L 64.885802 74.82484 
L 65.638463 74.414386 
L 66.391124 73.948065 
L 67.143785 73.378811 
L 67.896446 72.642124 
L 68.649107 71.74475 
L 69.401768 70.666706 
L 70.154429 69.323905 
L 70.90709 67.399142 
L 71.659751 65.037361 
L 72.412412 61.804618 
L 73.165073 58.039624 
L 73.917735 53.537238 
L 74.670396 49.302177 
L 75.423057 45.867239 
L 76.175718 44.674479 
L 76.928379 45.839318 
L 77.68104 49.235012 
L 78.433701 53.660221 
L 79.186362 58.053177 
L 79.939023 61.852713 
L 80.691684 65.012112 
L 81.444345 67.469463 
L 82.197006 69.255665 
L 82.949667 70.686789 
L 83.702328 71.786919 
L 84.454989 72.675788 
L 85.20765 73.360789 
L 85.960311 73.934973 
L 86.712972 74.421083 
L 87.465633 74.805197 
L 88.218294 75.18177 
L 88.970955 75.498722 
L 89.723616 75.75959 
L 90.476277 76.009836 
L 91.228938 76.227234 
L 91.981599 76.42955 
L 92.73426 76.618048 
L 93.486921 76.784377 
L 94.239582 76.940648 
L 94.992244 77.070885 
L 95.744905 77.207068 
L 96.497566 77.324851 
L 97.250227 77.431211 
L 98.002888 77.535392 
L 98.755549 77.644399 
L 99.50821 77.741599 
L 100.260871 77.826662 
L 101.013532 77.90487 
L 101.766193 77.983412 
L 102.518854 78.056454 
L 103.271515 78.129323 
L 104.024176 78.193327 
L 104.776837 78.259834 
L 105.529498 78.322259 
L 106.282159 78.383302 
" clip-path="url(#p64e0490461)" style="fill: none; stroke: #d62728; stroke-width: 1.5; stroke-linecap: square"/>
   </g>
   <g id="line2d_10">
    <path d="M 46.069276 79.590085 
L 46.821937 79.551967 
L 47.574598 79.512071 
L 48.327259 79.474393 
L 49.07992 79.430589 
L 49.832581 79.381116 
L 50.585242 79.330831 
L 51.337903 79.286169 
L 52.090564 79.231099 
L 52.843225 79.17972 
L 53.595887 79.11462 
L 54.348548 79.054796 
L 55.101209 78.984993 
L 55.85387 78.913654 
L 56.606531 78.844041 
L 57.359192 78.761728 
L 58.111853 78.669779 
L 58.864514 78.574624 
L 59.617175 78.471736 
L 60.369836 78.363674 
L 61.122497 78.236703 
L 61.875158 78.096693 
L 62.627819 77.963974 
L 63.38048 77.782239 
L 64.133141 77.60145 
L 64.885802 77.390369 
L 65.638463 77.159273 
L 66.391124 76.872541 
L 67.143785 76.554252 
L 67.896446 76.173904 
L 68.649107 75.69997 
L 69.401768 75.083934 
L 70.154429 74.316031 
L 70.90709 73.304755 
L 71.659751 71.832251 
L 72.412412 69.820917 
L 73.165073 66.843344 
L 73.917735 62.757166 
L 74.670396 57.831797 
L 75.423057 53.372729 
L 76.175718 51.487966 
L 76.928379 53.373266 
L 77.68104 57.692406 
L 78.433701 62.743067 
L 79.186362 66.744334 
L 79.939023 69.78284 
L 80.691684 71.784709 
L 81.444345 73.269656 
L 82.197006 74.325622 
L 82.949667 75.082312 
L 83.702328 75.700219 
L 84.454989 76.153621 
L 85.20765 76.550098 
L 85.960311 76.87783 
L 86.712972 77.164364 
L 87.465633 77.386157 
L 88.218294 77.606567 
L 88.970955 77.794577 
L 89.723616 77.952897 
L 90.476277 78.094324 
L 91.228938 78.23676 
L 91.981599 78.357253 
L 92.73426 78.471288 
L 93.486921 78.578287 
L 94.239582 78.668701 
L 94.992244 78.758683 
L 95.744905 78.838088 
L 96.497566 78.914219 
L 97.250227 78.98773 
L 98.002888 79.052267 
L 98.755549 79.115311 
L 99.50821 79.177911 
L 100.260871 79.236762 
L 101.013532 79.284336 
L 101.766193 79.331934 
L 102.518854 79.384547 
L 103.271515 79.431486 
L 104.024176 79.471763 
L 104.776837 79.514064 
L 105.529498 79.556495 
L 106.282159 79.588855 
" clip-path="url(#p64e0490461)" style="fill: none; stroke: #2ca02c; stroke-width: 1.5; stroke-linecap: square"/>
   </g>
   <g id="line2d_11">
    <path d="M 46.069276 80.776645 
L 46.821937 80.75827 
L 47.574598 80.739256 
L 48.327259 80.719803 
L 49.07992 80.697937 
L 49.832581 80.675574 
L 50.585242 80.652235 
L 51.337903 80.628561 
L 52.090564 80.605054 
L 52.843225 80.577773 
L 53.595887 80.545558 
L 54.348548 80.516726 
L 55.101209 80.485565 
L 55.85387 80.450737 
L 56.606531 80.417387 
L 57.359192 80.377352 
L 58.111853 80.337665 
L 58.864514 80.291681 
L 59.617175 80.245529 
L 60.369836 80.191175 
L 61.122497 80.13751 
L 61.875158 80.072471 
L 62.627819 80.006191 
L 63.38048 79.928295 
L 64.133141 79.848707 
L 64.885802 79.753617 
L 65.638463 79.648504 
L 66.391124 79.529776 
L 67.143785 79.390965 
L 67.896446 79.232094 
L 68.649107 79.038519 
L 69.401768 78.800961 
L 70.154429 78.510535 
L 70.90709 78.129381 
L 71.659751 77.595636 
L 72.412412 76.853407 
L 73.165073 75.635225 
L 73.917735 73.447771 
L 74.670396 69.545445 
L 75.423057 63.792287 
L 76.175718 60.427155 
L 76.928379 63.932098 
L 77.68104 69.45287 
L 78.433701 73.400742 
L 79.186362 75.616044 
L 79.939023 76.834285 
L 80.691684 77.604527 
L 81.444345 78.121231 
L 82.197006 78.512608 
L 82.949667 78.803529 
L 83.702328 79.033922 
L 84.454989 79.226211 
L 85.20765 79.392605 
L 85.960311 79.530856 
L 86.712972 79.646269 
L 87.465633 79.760065 
L 88.218294 79.849621 
L 88.970955 79.931533 
L 89.723616 80.005408 
L 90.476277 80.071743 
L 91.228938 80.134858 
L 91.981599 80.190599 
L 92.73426 80.244296 
L 93.486921 80.291448 
L 94.239582 80.335909 
L 94.992244 80.377461 
L 95.744905 80.416893 
L 96.497566 80.451471 
L 97.250227 80.488527 
L 98.002888 80.517531 
L 98.755549 80.549539 
L 99.50821 80.577411 
L 100.260871 80.603876 
L 101.013532 80.628807 
L 101.766193 80.654346 
L 102.518854 80.677952 
L 103.271515 80.699222 
L 104.024176 80.719179 
L 104.776837 80.739599 
L 105.529498 80.756255 
L 106.282159 80.776307 
" clip-path="url(#p64e0490461)" style="fill: none; stroke: #ff7f0e; stroke-width: 1.5; stroke-linecap: square"/>
   </g>
   <g id="line2d_12">
    <path d="M 46.069276 81.825802 
L 46.821937 81.82396 
L 47.574598 81.822165 
L 48.327259 81.820099 
L 49.07992 81.81823 
L 49.832581 81.815966 
L 50.585242 81.813852 
L 51.337903 81.811418 
L 52.090564 81.809075 
L 52.843225 81.80627 
L 53.595887 81.803789 
L 54.348548 81.801036 
L 55.101209 81.797646 
L 55.85387 81.794406 
L 56.606531 81.790964 
L 57.359192 81.787508 
L 58.111853 81.783477 
L 58.864514 81.779274 
L 59.617175 81.774739 
L 60.369836 81.769842 
L 61.122497 81.76449 
L 61.875158 81.758756 
L 62.627819 81.752654 
L 63.38048 81.745728 
L 64.133141 81.73794 
L 64.885802 81.729332 
L 65.638463 81.719994 
L 66.391124 81.709585 
L 67.143785 81.697404 
L 67.896446 81.683817 
L 68.649107 81.6666 
L 69.401768 81.647378 
L 70.154429 81.624664 
L 70.90709 81.595592 
L 71.659751 81.558998 
L 72.412412 81.509128 
L 73.165073 81.440261 
L 73.917735 81.331389 
L 74.670396 81.126926 
L 75.423057 80.526854 
L 76.175718 75.125434 
L 76.928379 80.524035 
L 77.68104 81.128678 
L 78.433701 81.331197 
L 79.186362 81.441181 
L 79.939023 81.509573 
L 80.691684 81.559429 
L 81.444345 81.595804 
L 82.197006 81.625233 
L 82.949667 81.647664 
L 83.702328 81.667593 
L 84.454989 81.683665 
L 85.20765 81.697541 
L 85.960311 81.709195 
L 86.712972 81.720476 
L 87.465633 81.729764 
L 88.218294 81.738028 
L 88.970955 81.74576 
L 89.723616 81.752591 
L 90.476277 81.759123 
L 91.228938 81.76432 
L 91.981599 81.770218 
L 92.73426 81.774824 
L 93.486921 81.779407 
L 94.239582 81.783326 
L 94.992244 81.787444 
L 95.744905 81.791253 
L 96.497566 81.794615 
L 97.250227 81.797642 
L 98.002888 81.800814 
L 98.755549 81.804018 
L 99.50821 81.806601 
L 100.260871 81.808892 
L 101.013532 81.811507 
L 101.766193 81.813887 
L 102.518854 81.815939 
L 103.271515 81.818281 
L 104.024176 81.820216 
L 104.776837 81.822224 
L 105.529498 81.824154 
L 106.282159 81.825881 
" clip-path="url(#p64e0490461)" style="fill: none; stroke: #1f77b4; stroke-width: 1.5; stroke-linecap: square"/>
   </g>
   <g id="line2d_13">
    <path d="M 46.069276 80.476856 
L 47.574598 80.370101 
L 49.07992 80.296735 
L 50.585242 80.229927 
L 52.090564 80.07091 
L 53.595887 79.977766 
L 55.101209 79.854866 
L 56.606531 79.654932 
L 58.111853 79.505009 
L 59.617175 79.298463 
L 61.122497 79.052453 
L 62.627819 78.691773 
L 64.133141 78.146222 
L 65.638463 77.579407 
L 67.143785 76.956675 
L 68.649107 75.313898 
L 70.154429 73.72765 
L 71.659751 67.768712 
L 73.165073 57.554017 
L 74.670396 48.155746 
L 76.175718 47.332146 
L 77.68104 52.353058 
L 79.186362 61.108977 
L 80.691684 64.001286 
L 82.197006 67.79478 
L 83.702328 68.587828 
L 85.20765 70.056161 
L 86.712972 71.373072 
L 88.218294 71.854087 
L 89.723616 72.321984 
L 91.228938 72.783437 
L 92.73426 73.156147 
L 94.239582 73.15649 
L 95.744905 73.695326 
L 97.250227 74.007055 
L 98.755549 74.189462 
L 100.260871 74.327169 
L 101.766193 74.432865 
L 103.271515 74.569088 
L 104.776837 74.650276 
L 106.282159 74.936415 
" clip-path="url(#p64e0490461)" style="fill: none; stroke-dasharray: 2,3.3; stroke-dashoffset: 0; stroke: #000000; stroke-width: 2"/>
   </g>
   <g id="patch_3">
    <path d="M 46.069276 85.22954 
L 46.069276 10.34905 
" style="fill: none; stroke: #000000; stroke-width: 0.8; stroke-linejoin: miter; stroke-linecap: square"/>
   </g>
   <g id="patch_4">
    <path d="M 106.282159 85.22954 
L 106.282159 10.34905 
" style="fill: none; stroke: #000000; stroke-width: 0.8; stroke-linejoin: miter; stroke-linecap: square"/>
   </g>
   <g id="patch_5">
    <path d="M 46.069276 85.22954 
L 106.282159 85.22954 
" style="fill: none; stroke: #000000; stroke-width: 0.8; stroke-linejoin: miter; stroke-linecap: square"/>
   </g>
   <g id="patch_6">
    <path d="M 46.069276 10.34905 
L 106.282159 10.34905 
" style="fill: none; stroke: #000000; stroke-width: 0.8; stroke-linejoin: miter; stroke-linecap: square"/>
   </g>
   <g id="legend_1">
    <g id="patch_7">
     <path d="M 52.369276 80.72954 
L 125.271486 80.72954 
Q 127.071486 80.72954 127.071486 78.92954 
L 127.071486 3.645853 
Q 127.071486 1.845853 125.271486 1.845853 
L 52.369276 1.845853 
Q 50.569276 1.845853 50.569276 3.645853 
L 50.569276 78.92954 
Q 50.569276 80.72954 52.369276 80.72954 
z
" style="fill: #ffffff; opacity: 0.8; stroke: #cccccc; stroke-linejoin: miter"/>
    </g>
    <g id="line2d_14">
     <path d="M 54.169276 8.595853 
L 63.169276 8.595853 
L 72.169276 8.595853 
" style="fill: none; stroke: #9467bd; stroke-width: 1.5; stroke-linecap: square"/>
    </g>
    <g id="text_10">
     <!-- $10 k_BT_{MC}$ -->
     <g transform="translate(79.369276 11.745853) scale(0.09 -0.09)">
      <defs>
       <path id="CMMI12-6b" d="M 1798 4255 
C 1805 4281 1818 4319 1818 4351 
C 1818 4416 1754 4416 1741 4416 
C 1734 4416 1504 4396 1389 4383 
C 1280 4377 1184 4364 1069 4358 
C 915 4345 870 4339 870 4223 
C 870 4159 934 4159 998 4159 
C 1325 4159 1325 4103 1325 4040 
C 1325 4014 1325 4002 1293 3888 
L 378 250 
C 352 153 352 141 352 102 
C 352 -39 461 -64 525 -64 
C 704 -64 742 76 794 275 
L 1094 1476 
C 1555 1425 1830 1232 1830 924 
C 1830 885 1830 860 1811 763 
C 1786 667 1786 590 1786 558 
C 1786 185 2029 -64 2355 -64 
C 2650 -64 2803 205 2854 295 
C 2989 532 3072 892 3072 917 
C 3072 949 3046 975 3008 975 
C 2950 975 2944 949 2918 847 
C 2829 513 2694 64 2368 64 
C 2240 64 2157 128 2157 372 
C 2157 494 2182 635 2208 731 
C 2234 847 2234 853 2234 930 
C 2234 1309 1894 1521 1306 1598 
C 1536 1739 1766 1989 1856 2086 
C 2221 2495 2470 2687 2765 2687 
C 2912 2687 2950 2655 2995 2624 
C 2758 2598 2669 2431 2669 2303 
C 2669 2150 2790 2099 2880 2099 
C 3053 2099 3206 2246 3206 2451 
C 3206 2634 3059 2816 2771 2816 
C 2419 2816 2131 2579 1677 2067 
C 1613 1989 1376 1746 1139 1656 
L 1798 4255 
z
" transform="scale(0.015625)"/>
       <path id="CMMI12-42" d="M 2342 3915 
C 2400 4153 2426 4166 2675 4166 
L 3507 4166 
C 4230 4166 4230 3547 4230 3489 
C 4230 2967 3712 2304 2867 2304 
L 1946 2304 
L 2342 3915 
z
M 3424 2252 
C 4122 2381 4755 2871 4755 3463 
C 4755 3966 4314 4352 3590 4352 
L 1536 4352 
C 1414 4352 1357 4352 1357 4230 
C 1357 4166 1414 4166 1510 4166 
C 1901 4166 1901 4114 1901 4043 
C 1901 4031 1901 3992 1875 3895 
L 1011 469 
C 954 248 941 185 493 185 
C 371 185 307 185 307 70 
C 307 0 346 0 474 0 
L 2669 0 
C 3648 0 4403 733 4403 1369 
C 4403 1886 3942 2201 3424 2252 
z
M 2515 185 
L 1651 185 
C 1562 185 1549 185 1510 191 
C 1440 198 1434 210 1434 261 
C 1434 305 1446 343 1459 399 
L 1907 2176 
L 3110 2176 
C 3866 2176 3866 1483 3866 1432 
C 3866 828 3309 185 2515 185 
z
" transform="scale(0.015625)"/>
       <path id="CMMI12-54" d="M 2669 3886 
C 2707 4038 2720 4096 2816 4121 
C 2867 4134 3078 4134 3213 4134 
C 3853 4134 4154 4109 4154 3612 
C 4154 3516 4128 3274 4090 3038 
L 4083 2962 
C 4083 2937 4109 2898 4147 2898 
C 4211 2898 4211 2930 4230 3032 
L 4416 4159 
C 4429 4217 4429 4230 4429 4249 
C 4429 4319 4390 4319 4262 4319 
L 762 4319 
C 614 4319 608 4313 570 4198 
L 179 3051 
C 173 3038 154 2968 154 2962 
C 154 2930 179 2898 218 2898 
C 269 2898 282 2924 307 3007 
C 576 3777 710 4134 1562 4134 
L 1990 4134 
C 2144 4134 2208 4134 2208 4064 
C 2208 4045 2208 4032 2176 3917 
L 1318 497 
C 1254 249 1242 185 563 185 
C 403 185 358 185 358 64 
C 358 0 429 0 461 0 
C 621 0 787 12 947 12 
L 1946 12 
C 2106 12 2278 0 2438 0 
C 2509 0 2573 0 2573 121 
C 2573 185 2528 185 2362 185 
C 1786 185 1786 242 1786 338 
C 1786 344 1786 389 1811 491 
L 2669 3886 
z
" transform="scale(0.015625)"/>
       <path id="CMMI12-4d" d="M 5811 3886 
C 5869 4102 5882 4166 6336 4166 
C 6458 4166 6515 4166 6515 4287 
C 6515 4352 6470 4352 6349 4352 
L 5581 4352 
C 5421 4352 5414 4345 5344 4243 
L 3008 567 
L 2528 4211 
C 2509 4352 2502 4352 2336 4352 
L 1542 4352 
C 1421 4352 1363 4352 1363 4230 
C 1363 4166 1421 4166 1517 4166 
C 1907 4166 1907 4115 1907 4045 
C 1907 4032 1907 3994 1882 3898 
L 1062 650 
C 986 344 838 204 410 185 
C 390 185 314 179 314 70 
C 314 0 371 0 397 0 
C 525 0 851 12 979 12 
L 1286 12 
C 1376 12 1485 0 1574 0 
C 1619 0 1690 0 1690 121 
C 1690 179 1626 185 1600 185 
C 1389 191 1184 230 1184 459 
C 1184 523 1184 529 1210 618 
L 2093 4128 
L 2099 4128 
L 2630 172 
C 2650 19 2656 0 2714 0 
C 2784 0 2816 51 2848 108 
L 5421 4159 
L 5427 4159 
L 4499 472 
C 4442 249 4429 185 3981 185 
C 3859 185 3795 185 3795 70 
C 3795 0 3853 0 3891 0 
C 4000 0 4128 12 4237 12 
L 4992 12 
C 5101 12 5235 0 5344 0 
C 5395 0 5466 0 5466 121 
C 5466 185 5408 185 5312 185 
C 4922 185 4922 236 4922 300 
C 4922 306 4922 351 4934 402 
L 5811 3886 
z
" transform="scale(0.015625)"/>
       <path id="CMMI12-43" d="M 4781 4422 
C 4781 4480 4736 4480 4723 4480 
C 4710 4480 4685 4480 4634 4415 
L 4192 3881 
C 3968 4262 3616 4480 3136 4480 
C 1754 4480 320 3087 320 1594 
C 320 533 1069 -128 2003 -128 
C 2515 -128 2963 89 3334 400 
C 3891 864 4058 1480 4058 1531 
C 4058 1588 4006 1588 3987 1588 
C 3930 1588 3923 1550 3910 1524 
C 3616 533 2752 57 2112 57 
C 1434 57 845 489 845 1391 
C 845 1594 909 2699 1632 3531 
C 1984 3938 2586 4294 3194 4294 
C 3898 4294 4211 3716 4211 3068 
C 4211 2903 4192 2763 4192 2737 
C 4192 2680 4256 2680 4275 2680 
C 4346 2680 4352 2687 4378 2801 
L 4781 4422 
z
" transform="scale(0.015625)"/>
      </defs>
      <use xlink:href="#CMR17-31" transform="scale(0.996264)"/>
      <use xlink:href="#CMR17-30" transform="translate(45.690477 0) scale(0.996264)"/>
      <use xlink:href="#CMMI12-6b" transform="translate(91.380954 0) scale(0.996264)"/>
      <use xlink:href="#CMMI12-42" transform="translate(142.116143 -14.943915) scale(0.697382)"/>
      <use xlink:href="#CMMI12-54" transform="translate(198.008901 0) scale(0.996264)"/>
      <use xlink:href="#CMMI12-4d" transform="translate(255.183945 -14.943915) scale(0.697382)"/>
      <use xlink:href="#CMMI12-43" transform="translate(328.529687 -14.943915) scale(0.697382)"/>
     </g>
    </g>
    <g id="line2d_15">
     <path d="M 54.169276 21.139315 
L 63.169276 21.139315 
L 72.169276 21.139315 
" style="fill: none; stroke: #d62728; stroke-width: 1.5; stroke-linecap: square"/>
    </g>
    <g id="text_11">
     <!-- $3k_BT_{MC}$ -->
     <g transform="translate(79.369276 24.289315) scale(0.09 -0.09)">
      <defs>
       <path id="CMR17-33" d="M 1414 2176 
C 1984 2176 2234 1673 2234 1094 
C 2234 322 1824 25 1453 25 
C 1114 25 563 193 390 691 
C 422 678 454 678 486 678 
C 640 678 755 780 755 947 
C 755 1132 614 1216 486 1216 
C 378 1216 211 1164 211 927 
C 211 335 787 -128 1466 -128 
C 2176 -128 2720 432 2720 1087 
C 2720 1718 2208 2176 1600 2246 
C 2086 2347 2554 2776 2554 3353 
C 2554 3856 2048 4224 1472 4224 
C 890 4224 378 3862 378 3347 
C 378 3123 544 3084 627 3084 
C 762 3084 877 3167 877 3334 
C 877 3500 762 3584 627 3584 
C 602 3584 570 3584 544 3571 
C 730 3999 1235 4076 1459 4076 
C 1683 4076 2106 3966 2106 3347 
C 2106 3167 2080 2851 1862 2574 
C 1670 2329 1453 2316 1242 2297 
C 1210 2297 1062 2284 1037 2284 
C 992 2278 966 2272 966 2227 
C 966 2182 973 2176 1101 2176 
L 1414 2176 
z
" transform="scale(0.015625)"/>
      </defs>
      <use xlink:href="#CMR17-33" transform="scale(0.996264)"/>
      <use xlink:href="#CMMI12-6b" transform="translate(45.690477 0) scale(0.996264)"/>
      <use xlink:href="#CMMI12-42" transform="translate(96.425666 -14.943915) scale(0.697382)"/>
      <use xlink:href="#CMMI12-54" transform="translate(152.318424 0) scale(0.996264)"/>
      <use xlink:href="#CMMI12-4d" transform="translate(209.493467 -14.943915) scale(0.697382)"/>
      <use xlink:href="#CMMI12-43" transform="translate(282.83921 -14.943915) scale(0.697382)"/>
     </g>
    </g>
    <g id="line2d_16">
     <path d="M 54.169276 33.682777 
L 63.169276 33.682777 
L 72.169276 33.682777 
" style="fill: none; stroke: #2ca02c; stroke-width: 1.5; stroke-linecap: square"/>
    </g>
    <g id="text_12">
     <!-- $2 k_BT_{MC}$ -->
     <g transform="translate(79.369276 36.832777) scale(0.09 -0.09)">
      <use xlink:href="#CMR17-32" transform="scale(0.996264)"/>
      <use xlink:href="#CMMI12-6b" transform="translate(45.690477 0) scale(0.996264)"/>
      <use xlink:href="#CMMI12-42" transform="translate(96.425666 -14.943915) scale(0.697382)"/>
      <use xlink:href="#CMMI12-54" transform="translate(152.318424 0) scale(0.996264)"/>
      <use xlink:href="#CMMI12-4d" transform="translate(209.493467 -14.943915) scale(0.697382)"/>
      <use xlink:href="#CMMI12-43" transform="translate(282.83921 -14.943915) scale(0.697382)"/>
     </g>
    </g>
    <g id="line2d_17">
     <path d="M 54.169276 46.226239 
L 63.169276 46.226239 
L 72.169276 46.226239 
" style="fill: none; stroke: #ff7f0e; stroke-width: 1.5; stroke-linecap: square"/>
    </g>
    <g id="text_13">
     <!-- $k_BT_{MC}$ -->
     <g transform="translate(79.369276 49.376239) scale(0.09 -0.09)">
      <use xlink:href="#CMMI12-6b" transform="scale(0.996264)"/>
      <use xlink:href="#CMMI12-42" transform="translate(50.735189 -14.943915) scale(0.697382)"/>
      <use xlink:href="#CMMI12-54" transform="translate(106.627947 0) scale(0.996264)"/>
      <use xlink:href="#CMMI12-4d" transform="translate(163.80299 -14.943915) scale(0.697382)"/>
      <use xlink:href="#CMMI12-43" transform="translate(237.148732 -14.943915) scale(0.697382)"/>
     </g>
    </g>
    <g id="line2d_18">
     <path d="M 54.169276 59.194484 
L 63.169276 59.194484 
L 72.169276 59.194484 
" style="fill: none; stroke: #1f77b4; stroke-width: 1.5; stroke-linecap: square"/>
    </g>
    <g id="text_14">
     <!-- $k_BT_{MC}/10$ -->
     <g transform="translate(79.369276 62.344484) scale(0.09 -0.09)">
      <defs>
       <path id="CMMI12-3d" d="M 2746 4563 
C 2746 4569 2784 4665 2784 4678 
C 2784 4755 2720 4800 2669 4800 
C 2637 4800 2579 4800 2528 4659 
L 384 -1364 
C 384 -1370 346 -1466 346 -1479 
C 346 -1556 410 -1600 461 -1600 
C 499 -1600 557 -1594 602 -1460 
L 2746 4563 
z
" transform="scale(0.015625)"/>
      </defs>
      <use xlink:href="#CMMI12-6b" transform="scale(0.996264)"/>
      <use xlink:href="#CMMI12-42" transform="translate(50.735189 -14.943915) scale(0.697382)"/>
      <use xlink:href="#CMMI12-54" transform="translate(106.627947 0) scale(0.996264)"/>
      <use xlink:href="#CMMI12-4d" transform="translate(163.80299 -14.943915) scale(0.697382)"/>
      <use xlink:href="#CMMI12-43" transform="translate(237.148732 -14.943915) scale(0.697382)"/>
      <use xlink:href="#CMMI12-3d" transform="translate(291.509409 0) scale(0.996264)"/>
      <use xlink:href="#CMR17-31" transform="translate(340.284328 0) scale(0.996264)"/>
      <use xlink:href="#CMR17-30" transform="translate(385.974805 0) scale(0.996264)"/>
     </g>
    </g>
    <g id="line2d_19">
     <path d="M 54.169276 72.236078 
L 63.169276 72.236078 
L 72.169276 72.236078 
" style="fill: none; stroke-dasharray: 2,3.3; stroke-dashoffset: 0; stroke: #000000; stroke-width: 2"/>
    </g>
    <g id="text_15">
     <!-- Schlogl -->
     <g transform="translate(79.369276 75.386078) scale(0.09 -0.09)">
      <defs>
       <path id="CMR17-53" d="M 2803 4351 
C 2803 4467 2797 4473 2758 4473 
C 2720 4473 2707 4447 2682 4390 
L 2490 3965 
C 2246 4320 1875 4480 1472 4480 
C 819 4480 294 3958 294 3301 
C 294 3101 339 2817 557 2546 
C 794 2250 1018 2198 1530 2063 
C 1722 2011 2042 1927 2106 1901 
C 2470 1747 2662 1360 2662 999 
C 2662 534 2336 38 1779 38 
C 1094 38 454 425 410 1328 
C 403 1431 397 1437 352 1437 
C 301 1437 294 1431 294 1302 
L 294 0 
C 294 -116 301 -122 339 -122 
C 384 -122 397 -90 486 109 
C 493 128 493 141 614 386 
C 934 -39 1472 -128 1779 -128 
C 2477 -128 2970 457 2970 1141 
C 2970 1476 2848 1734 2778 1850 
C 2509 2263 2221 2340 1914 2417 
C 1869 2437 1856 2437 1498 2527 
C 1152 2617 1005 2662 845 2836 
C 666 3036 602 3243 602 3449 
C 602 3868 934 4326 1478 4326 
C 2157 4326 2579 3842 2675 3036 
C 2694 2920 2701 2914 2746 2914 
C 2803 2914 2803 2933 2803 3043 
L 2803 4351 
z
" transform="scale(0.015625)"/>
       <path id="CMR17-63" d="M 2234 2240 
C 2112 2240 1933 2240 1933 2015 
C 1933 1836 2080 1785 2163 1785 
C 2208 1785 2394 1804 2394 2028 
C 2394 2476 1958 2816 1466 2816 
C 787 2816 211 2201 211 1379 
C 211 521 813 -64 1466 -64 
C 2259 -64 2458 676 2458 747 
C 2458 773 2451 792 2406 792 
C 2362 792 2355 786 2330 702 
C 2163 180 1798 51 1523 51 
C 1114 51 621 431 621 1385 
C 621 2358 1094 2700 1472 2700 
C 1722 2700 2093 2582 2234 2240 
z
" transform="scale(0.015625)"/>
       <path id="CMR17-68" d="M 2656 1954 
C 2656 2282 2592 2816 1837 2816 
C 1312 2816 1056 2392 979 2179 
L 973 2179 
L 973 4416 
L 211 4345 
L 211 4179 
C 589 4179 646 4141 646 3843 
L 646 443 
C 646 198 621 166 211 166 
L 211 0 
C 365 12 646 12 813 12 
C 979 12 1267 12 1421 0 
L 1421 166 
C 1011 166 986 192 986 443 
L 986 1678 
C 986 2269 1344 2713 1792 2713 
C 2266 2713 2317 2289 2317 1980 
L 2317 443 
C 2317 198 2291 166 1882 166 
L 1882 0 
C 2035 12 2317 12 2483 12 
C 2650 12 2938 12 3091 0 
L 3091 166 
C 2682 166 2656 192 2656 443 
L 2656 1954 
z
" transform="scale(0.015625)"/>
       <path id="CMR17-6c" d="M 979 4416 
L 218 4345 
L 218 4179 
C 595 4179 653 4141 653 3835 
L 653 439 
C 653 198 627 166 218 166 
L 218 0 
C 371 12 653 12 813 12 
C 979 12 1261 12 1414 0 
L 1414 166 
C 1005 166 979 191 979 439 
L 979 4416 
z
" transform="scale(0.015625)"/>
       <path id="CMR17-6f" d="M 2758 1356 
C 2758 2176 2163 2816 1466 2816 
C 768 2816 173 2176 173 1356 
C 173 550 768 -64 1466 -64 
C 2163 -64 2758 550 2758 1356 
z
M 1466 51 
C 1165 51 909 230 762 480 
C 602 768 582 1126 582 1408 
C 582 1676 595 2009 762 2297 
C 890 2508 1139 2713 1466 2713 
C 1754 2713 1997 2553 2150 2329 
C 2349 2028 2349 1606 2349 1408 
C 2349 1158 2336 774 2163 467 
C 1984 172 1709 51 1466 51 
z
" transform="scale(0.015625)"/>
       <path id="CMR17-67" d="M 710 1165 
C 832 1068 1043 960 1299 960 
C 1805 960 2240 1359 2240 1895 
C 2240 2063 2189 2321 1997 2521 
C 2176 2713 2438 2777 2586 2777 
C 2611 2777 2650 2777 2682 2758 
C 2656 2751 2598 2726 2598 2623 
C 2598 2540 2656 2483 2739 2483 
C 2835 2483 2886 2547 2886 2630 
C 2886 2751 2790 2880 2586 2880 
C 2330 2880 2106 2758 1926 2591 
C 1734 2764 1504 2828 1299 2828 
C 794 2828 358 2431 358 1895 
C 358 1527 570 1294 634 1230 
C 442 1004 442 742 442 710 
C 442 544 506 300 723 166 
C 390 82 128 -184 128 -517 
C 128 -996 736 -1344 1466 -1344 
C 2170 -1344 2803 -1009 2803 -510 
C 2803 384 1856 384 1363 384 
C 1216 384 954 384 922 390 
C 723 422 589 601 589 825 
C 589 883 589 1024 710 1165 
z
M 1299 1068 
C 736 1068 736 1766 736 1895 
C 736 2024 736 2719 1299 2719 
C 1862 2719 1862 2024 1862 1895 
C 1862 1766 1862 1068 1299 1068 
z
M 1466 -1236 
C 826 -1236 384 -883 384 -517 
C 384 -311 493 -118 634 -11 
C 794 102 858 102 1293 102 
C 1818 102 2547 102 2547 -517 
C 2547 -883 2106 -1236 1466 -1236 
z
" transform="scale(0.015625)"/>
      </defs>
      <use xlink:href="#CMR17-53" transform="scale(0.996264)"/>
      <use xlink:href="#CMR17-63" transform="translate(50.89537 0) scale(0.996264)"/>
      <use xlink:href="#CMR17-68" transform="translate(88.778576 0) scale(0.996264)"/>
      <use xlink:href="#CMR17-6c" transform="translate(139.673946 0) scale(0.996264)"/>
      <use xlink:href="#CMR17-6f" transform="translate(164.545005 0) scale(0.996264)"/>
      <use xlink:href="#CMR17-67" transform="translate(210.235482 0) scale(0.996264)"/>
      <use xlink:href="#CMR17-6c" transform="translate(255.925959 0) scale(0.996264)"/>
     </g>
    </g>
   </g>
  </g>
 </g>
 <defs>
  <clipPath id="p64e0490461">
   <rect x="46.069276" y="10.34905" width="60.212883" height="74.88049"/>
  </clipPath>
 </defs>
</svg>
