<?xml version="1.0" encoding="utf-8" standalone="no"?>
<!DOCTYPE svg PUBLIC "-//W3C//DTD SVG 1.1//EN"
  "http://www.w3.org/Graphics/SVG/1.1/DTD/svg11.dtd">
<svg xmlns:xlink="http://www.w3.org/1999/xlink" width="121.889764pt" height="121.889764pt" viewBox="0 0 121.889764 121.889764" xmlns="http://www.w3.org/2000/svg" version="1.1">
 <metadata>
  <rdf:RDF xmlns:dc="http://purl.org/dc/elements/1.1/" xmlns:cc="http://creativecommons.org/ns#" xmlns:rdf="http://www.w3.org/1999/02/22-rdf-syntax-ns#">
   <cc:Work>
    <dc:type rdf:resource="http://purl.org/dc/dcmitype/StillImage"/>
    <dc:date>2024-06-26T20:01:48.250805</dc:date>
    <dc:format>image/svg+xml</dc:format>
    <dc:creator>
     <cc:Agent>
      <dc:title>Matplotlib v3.8.4, https://matplotlib.org/</dc:title>
     </cc:Agent>
    </dc:creator>
   </cc:Work>
  </rdf:RDF>
 </metadata>
 <defs>
  <style type="text/css">*{stroke-linejoin: round; stroke-linecap: butt}</style>
 </defs>
 <g id="figure_1">
  <g id="patch_1">
   <path d="M 0 121.889764 
L 121.889764 121.889764 
L 121.889764 0 
L 0 0 
z
" style="fill: #ffffff"/>
  </g>
  <g id="axes_1">
   <g id="patch_2">
    <path d="M 42.661417 79.228346 
L 115.795276 79.228346 
L 115.795276 12.188976 
L 42.661417 12.188976 
z
" style="fill: #ffffff"/>
   </g>
   <g id="matplotlib.axis_1">
    <g id="xtick_1">
     <g id="line2d_1">
      <path d="M 42.661417 79.228346 
L 42.661417 12.188976 
" clip-path="url(#paaaa61aeb6)" style="fill: none; stroke: #b0b0b0; stroke-width: 0.8; stroke-linecap: square"/>
     </g>
     <g id="line2d_2">
      <defs>
       <path id="m52e7b500be" d="M 0 0 
L 0 3.5 
" style="stroke: #000000; stroke-width: 0.8"/>
      </defs>
      <g>
       <use xlink:href="#m52e7b500be" x="42.661417" y="79.228346" style="stroke: #000000; stroke-width: 0.8"/>
      </g>
     </g>
     <g id="text_1">
      <!-- $\mathdefault{−0.1}$ -->
      <g transform="translate(32.422006 93.146845) scale(0.1 -0.1)">
       <defs>
        <path id="CMSY10-0" d="M 4218 1472 
C 4326 1472 4442 1472 4442 1600 
C 4442 1728 4326 1728 4218 1728 
L 755 1728 
C 646 1728 531 1728 531 1600 
C 531 1472 646 1472 755 1472 
L 4218 1472 
z
" transform="scale(0.015625)"/>
        <path id="CMR17-30" d="M 2688 2038 
C 2688 2430 2682 3099 2413 3613 
C 2176 4063 1798 4224 1466 4224 
C 1158 4224 768 4082 525 3620 
C 269 3137 243 2539 243 2038 
C 243 1671 250 1112 448 623 
C 723 -39 1216 -128 1466 -128 
C 1760 -128 2208 -7 2470 604 
C 2662 1048 2688 1568 2688 2038 
z
M 1466 -26 
C 1056 -26 813 328 723 816 
C 653 1196 653 1749 653 2109 
C 653 2604 653 3015 736 3407 
C 858 3954 1216 4121 1466 4121 
C 1728 4121 2067 3947 2189 3420 
C 2272 3054 2278 2623 2278 2109 
C 2278 1691 2278 1176 2202 797 
C 2067 96 1690 -26 1466 -26 
z
" transform="scale(0.015625)"/>
        <path id="CMMI12-3a" d="M 1178 307 
C 1178 492 1024 620 870 620 
C 685 620 557 467 557 313 
C 557 128 710 0 864 0 
C 1050 0 1178 153 1178 307 
z
" transform="scale(0.015625)"/>
        <path id="CMR17-31" d="M 1702 4083 
C 1702 4217 1696 4224 1606 4224 
C 1357 3927 979 3833 621 3820 
C 602 3820 570 3820 563 3808 
C 557 3795 557 3782 557 3648 
C 755 3648 1088 3686 1344 3839 
L 1344 467 
C 1344 243 1331 166 781 166 
L 589 166 
L 589 0 
C 896 6 1216 12 1523 12 
C 1830 12 2150 6 2458 0 
L 2458 166 
L 2266 166 
C 1715 166 1702 236 1702 467 
L 1702 4083 
z
" transform="scale(0.015625)"/>
       </defs>
       <use xlink:href="#CMSY10-0" transform="scale(0.996264)"/>
       <use xlink:href="#CMR17-30" transform="translate(77.487468 0) scale(0.996264)"/>
       <use xlink:href="#CMMI12-3a" transform="translate(123.177945 0) scale(0.996264)"/>
       <use xlink:href="#CMR17-31" transform="translate(150.275122 0) scale(0.996264)"/>
      </g>
     </g>
    </g>
    <g id="xtick_2">
     <g id="line2d_3">
      <path d="M 79.228346 79.228346 
L 79.228346 12.188976 
" clip-path="url(#paaaa61aeb6)" style="fill: none; stroke: #b0b0b0; stroke-width: 0.8; stroke-linecap: square"/>
     </g>
     <g id="line2d_4">
      <g>
       <use xlink:href="#m52e7b500be" x="79.228346" y="79.228346" style="stroke: #000000; stroke-width: 0.8"/>
      </g>
     </g>
     <g id="text_2">
      <!-- $\mathdefault{0.0}$ -->
      <g transform="translate(72.863307 93.146845) scale(0.1 -0.1)">
       <use xlink:href="#CMR17-30" transform="scale(0.996264)"/>
       <use xlink:href="#CMMI12-3a" transform="translate(45.690477 0) scale(0.996264)"/>
       <use xlink:href="#CMR17-30" transform="translate(72.787654 0) scale(0.996264)"/>
      </g>
     </g>
    </g>
    <g id="xtick_3">
     <g id="line2d_5">
      <path d="M 115.795276 79.228346 
L 115.795276 12.188976 
" clip-path="url(#paaaa61aeb6)" style="fill: none; stroke: #b0b0b0; stroke-width: 0.8; stroke-linecap: square"/>
     </g>
     <g id="line2d_6">
      <g>
       <use xlink:href="#m52e7b500be" x="115.795276" y="79.228346" style="stroke: #000000; stroke-width: 0.8"/>
      </g>
     </g>
     <g id="text_3">
      <!-- $\mathdefault{0.1}$ -->
      <g transform="translate(109.430236 93.146845) scale(0.1 -0.1)">
       <use xlink:href="#CMR17-30" transform="scale(0.996264)"/>
       <use xlink:href="#CMMI12-3a" transform="translate(45.690477 0) scale(0.996264)"/>
       <use xlink:href="#CMR17-31" transform="translate(72.787654 0) scale(0.996264)"/>
      </g>
     </g>
    </g>
    <g id="text_4">
     <!-- $H$ -->
     <g transform="translate(75.087624 106.002522) scale(0.1 -0.1)">
      <defs>
       <path id="CMMI12-48" d="M 4787 3886 
C 4845 4102 4858 4166 5312 4166 
C 5427 4166 5491 4166 5491 4281 
C 5491 4352 5434 4352 5395 4352 
C 5280 4352 5146 4339 5024 4339 
L 4269 4339 
C 4147 4339 4013 4352 3891 4352 
C 3846 4352 3770 4352 3770 4230 
C 3770 4166 3814 4166 3936 4166 
C 4320 4166 4320 4115 4320 4045 
C 4320 4032 4320 3994 4294 3899 
L 3904 2361 
L 1971 2361 
L 2355 3886 
C 2413 4102 2426 4166 2880 4166 
C 2995 4166 3059 4166 3059 4281 
C 3059 4352 3002 4352 2963 4352 
C 2848 4352 2714 4339 2592 4339 
L 1837 4339 
C 1715 4339 1581 4352 1459 4352 
C 1414 4352 1338 4352 1338 4230 
C 1338 4166 1382 4166 1504 4166 
C 1888 4166 1888 4115 1888 4045 
C 1888 4032 1888 3994 1862 3899 
L 998 472 
C 941 249 928 185 486 185 
C 339 185 294 185 294 64 
C 294 0 365 0 384 0 
C 499 0 634 12 755 12 
L 1510 12 
C 1632 12 1766 0 1888 0 
C 1939 0 2010 0 2010 121 
C 2010 185 1952 185 1856 185 
C 1466 185 1466 236 1466 300 
C 1466 306 1466 351 1478 402 
L 1920 2176 
L 3859 2176 
C 3750 1755 3424 421 3411 383 
C 3341 191 3238 191 2861 185 
C 2784 185 2726 185 2726 64 
C 2726 0 2797 0 2816 0 
C 2931 0 3066 12 3187 12 
L 3942 12 
C 4064 12 4198 0 4320 0 
C 4371 0 4442 0 4442 121 
C 4442 185 4384 185 4288 185 
C 3898 185 3898 236 3898 300 
C 3898 306 3898 351 3910 402 
L 4787 3886 
z
" transform="scale(0.015625)"/>
      </defs>
      <use xlink:href="#CMMI12-48" transform="scale(0.996264)"/>
     </g>
    </g>
   </g>
   <g id="matplotlib.axis_2">
    <g id="ytick_1">
     <g id="line2d_7">
      <path d="M 42.661417 79.228346 
L 115.795276 79.228346 
" clip-path="url(#paaaa61aeb6)" style="fill: none; stroke: #b0b0b0; stroke-width: 0.8; stroke-linecap: square"/>
     </g>
     <g id="line2d_8">
      <defs>
       <path id="me9f376ee41" d="M 0 0 
L -3.5 0 
" style="stroke: #000000; stroke-width: 0.8"/>
      </defs>
      <g>
       <use xlink:href="#me9f376ee41" x="42.661417" y="79.228346" style="stroke: #000000; stroke-width: 0.8"/>
      </g>
     </g>
     <g id="text_5">
      <!-- $\mathdefault{0}$ -->
      <g transform="translate(30.680082 82.687596) scale(0.1 -0.1)">
       <use xlink:href="#CMR17-30" transform="scale(0.996264)"/>
      </g>
     </g>
    </g>
    <g id="ytick_2">
     <g id="line2d_9">
      <path d="M 42.661417 34.535433 
L 115.795276 34.535433 
" clip-path="url(#paaaa61aeb6)" style="fill: none; stroke: #b0b0b0; stroke-width: 0.8; stroke-linecap: square"/>
     </g>
     <g id="line2d_10">
      <g>
       <use xlink:href="#me9f376ee41" x="42.661417" y="34.535433" style="stroke: #000000; stroke-width: 0.8"/>
      </g>
     </g>
     <g id="text_6">
      <!-- $\mathdefault{2}$ -->
      <g transform="translate(30.680082 37.994682) scale(0.1 -0.1)">
       <defs>
        <path id="CMR17-32" d="M 2669 990 
L 2554 990 
C 2490 537 2438 460 2413 422 
C 2381 371 1920 371 1830 371 
L 602 371 
C 832 620 1280 1073 1824 1596 
C 2214 1966 2669 2400 2669 3033 
C 2669 3788 2067 4224 1395 4224 
C 691 4224 262 3603 262 3027 
C 262 2777 448 2745 525 2745 
C 589 2745 781 2783 781 3007 
C 781 3206 614 3264 525 3264 
C 486 3264 448 3257 422 3244 
C 544 3788 915 4057 1306 4057 
C 1862 4057 2227 3616 2227 3033 
C 2227 2477 1901 1998 1536 1583 
L 262 147 
L 262 0 
L 2515 0 
L 2669 990 
z
" transform="scale(0.015625)"/>
       </defs>
       <use xlink:href="#CMR17-32" transform="scale(0.996264)"/>
      </g>
     </g>
    </g>
    <g id="text_7">
     <!-- $I(X;Y)$ -->
     <g transform="translate(24.189422 62.8942) rotate(-90) scale(0.1 -0.1)">
      <defs>
       <path id="CMMI12-49" d="M 2355 3879 
C 2413 4102 2426 4166 2893 4166 
C 3034 4166 3085 4166 3085 4287 
C 3085 4352 3014 4352 2995 4352 
C 2880 4352 2739 4339 2624 4339 
L 1837 4339 
C 1709 4339 1562 4352 1434 4352 
C 1382 4352 1312 4352 1312 4230 
C 1312 4166 1363 4166 1491 4166 
C 1888 4166 1888 4115 1888 4045 
C 1888 4000 1875 3962 1862 3905 
L 998 472 
C 941 249 928 185 461 185 
C 320 185 262 185 262 64 
C 262 0 326 0 358 0 
C 474 0 614 12 730 12 
L 1517 12 
C 1645 12 1786 0 1914 0 
C 1965 0 2042 0 2042 115 
C 2042 185 2003 185 1862 185 
C 1466 185 1466 236 1466 312 
C 1466 325 1466 357 1491 459 
L 2355 3879 
z
" transform="scale(0.015625)"/>
       <path id="CMR17-28" d="M 1958 -1562 
C 1958 -1556 1958 -1543 1939 -1524 
C 1645 -1223 858 -403 858 1596 
C 858 3595 1632 4408 1946 4729 
C 1946 4735 1958 4748 1958 4767 
C 1958 4787 1939 4800 1914 4800 
C 1843 4800 1299 4325 986 3620 
C 666 2909 576 2218 576 1603 
C 576 1141 621 360 1005 -467 
C 1312 -1133 1837 -1600 1914 -1600 
C 1946 -1600 1958 -1588 1958 -1562 
z
" transform="scale(0.015625)"/>
       <path id="CMMI12-58" d="M 3040 2586 
L 2438 3981 
C 2522 4134 2714 4159 2790 4166 
C 2829 4166 2899 4172 2899 4281 
C 2899 4352 2842 4352 2803 4352 
C 2694 4352 2566 4339 2458 4339 
L 2086 4339 
C 1696 4339 1414 4352 1408 4352 
C 1357 4352 1293 4352 1293 4230 
C 1293 4166 1350 4166 1434 4166 
C 1805 4166 1830 4102 1894 3949 
L 2656 2179 
L 1267 701 
C 1037 453 762 211 288 185 
C 211 179 160 179 160 64 
C 160 44 166 0 237 0 
C 326 0 422 12 512 12 
L 813 12 
C 1018 12 1242 0 1440 0 
C 1485 0 1562 0 1562 115 
C 1562 179 1517 185 1478 185 
C 1350 198 1267 268 1267 370 
C 1267 478 1344 555 1530 746 
L 2099 1363 
C 2240 1510 2579 1879 2720 2019 
L 3392 453 
C 3398 440 3424 376 3424 370 
C 3424 312 3283 198 3078 185 
C 3040 185 2970 179 2970 64 
C 2970 0 3034 0 3066 0 
C 3174 0 3302 12 3411 12 
L 4115 12 
C 4230 12 4352 0 4461 0 
C 4506 0 4576 0 4576 121 
C 4576 185 4512 185 4454 185 
C 4070 191 4058 223 3949 459 
L 3104 2433 
L 3917 3300 
C 3981 3363 4128 3523 4186 3586 
C 4461 3873 4717 4134 5235 4166 
C 5299 4172 5363 4172 5363 4281 
C 5363 4352 5306 4352 5280 4352 
C 5190 4352 5094 4339 5005 4339 
L 4710 4339 
C 4506 4339 4282 4352 4083 4352 
C 4038 4352 3962 4352 3962 4236 
C 3962 4172 4006 4166 4045 4166 
C 4147 4153 4256 4102 4256 3981 
L 4250 3968 
C 4243 3924 4230 3860 4160 3784 
L 3040 2586 
z
" transform="scale(0.015625)"/>
       <path id="CMR17-3b" d="M 1062 2489 
C 1062 2649 934 2752 800 2752 
C 672 2752 538 2649 538 2489 
C 538 2329 666 2227 800 2227 
C 928 2227 1062 2329 1062 2489 
z
M 979 -69 
C 979 -469 851 -795 634 -1095 
C 595 -1140 595 -1152 595 -1159 
C 595 -1191 621 -1216 646 -1216 
C 678 -1216 1082 -782 1082 -57 
C 1082 192 1062 524 800 524 
C 659 524 538 428 538 262 
C 538 96 659 0 800 0 
C 864 0 934 19 979 64 
L 979 -69 
z
" transform="scale(0.015625)"/>
       <path id="CMMI12-59" d="M 3763 3644 
L 3910 3790 
C 4192 4077 4429 4147 4653 4166 
C 4723 4172 4781 4179 4781 4287 
C 4781 4352 4717 4352 4704 4352 
C 4627 4352 4544 4339 4467 4339 
L 4205 4339 
C 4019 4339 3821 4352 3642 4352 
C 3597 4352 3526 4352 3526 4230 
C 3526 4172 3590 4166 3610 4166 
C 3802 4153 3802 4058 3802 4019 
C 3802 3949 3750 3854 3622 3707 
L 2099 1968 
L 1376 3905 
C 1338 3994 1338 4007 1338 4019 
C 1338 4153 1600 4166 1677 4166 
C 1754 4166 1824 4166 1824 4281 
C 1824 4352 1766 4352 1728 4352 
C 1619 4352 1491 4339 1382 4339 
L 672 4339 
C 557 4339 435 4352 326 4352 
C 282 4352 211 4352 211 4230 
C 211 4166 269 4166 365 4166 
C 678 4166 736 4109 794 3962 
L 1587 1841 
C 1594 1822 1613 1752 1613 1733 
C 1613 1714 1299 459 1280 395 
C 1229 223 1165 191 755 185 
C 646 185 595 185 595 64 
C 595 0 666 0 685 0 
C 800 0 934 12 1056 12 
L 1811 12 
C 1926 12 2061 0 2176 0 
C 2221 0 2298 0 2298 115 
C 2298 185 2253 185 2144 185 
C 1747 185 1747 230 1747 300 
C 1747 344 1798 548 1830 676 
L 2061 1593 
C 2099 1726 2099 1739 2157 1803 
L 3763 3644 
z
" transform="scale(0.015625)"/>
       <path id="CMR17-29" d="M 1683 1596 
C 1683 2057 1638 2839 1254 3665 
C 947 4332 422 4800 346 4800 
C 326 4800 301 4793 301 4761 
C 301 4748 307 4742 314 4729 
C 621 4408 1402 3595 1402 1603 
C 1402 -396 627 -1210 314 -1530 
C 307 -1543 301 -1549 301 -1562 
C 301 -1594 326 -1600 346 -1600 
C 416 -1600 960 -1127 1274 -422 
C 1594 289 1683 981 1683 1596 
z
" transform="scale(0.015625)"/>
      </defs>
      <use xlink:href="#CMMI12-49" transform="scale(0.996264)"/>
      <use xlink:href="#CMR17-28" transform="translate(50.856514 0) scale(0.996264)"/>
      <use xlink:href="#CMMI12-58" transform="translate(86.137282 0) scale(0.996264)"/>
      <use xlink:href="#CMR17-3b" transform="translate(174.929844 0) scale(0.996264)"/>
      <use xlink:href="#CMMI12-59" transform="translate(216.405307 0) scale(0.996264)"/>
      <use xlink:href="#CMR17-29" transform="translate(294.681656 0) scale(0.996264)"/>
     </g>
    </g>
   </g>
   <g id="line2d_11">
    <path d="M 42.661417 74.857258 
L 44.489764 74.531859 
L 46.31811 74.302751 
L 48.146457 74.029957 
L 49.974803 73.30471 
L 51.80315 72.99346 
L 53.631496 72.773675 
L 55.459843 71.870345 
L 57.288189 71.516096 
L 59.116535 70.963716 
L 60.944882 70.174929 
L 62.773228 69.193251 
L 64.601575 67.942378 
L 66.429921 66.491332 
L 68.258268 65.438902 
L 70.086614 62.728947 
L 71.914961 60.663174 
L 73.743307 54.868611 
L 75.571654 48.346225 
L 77.4 43.744469 
L 79.228346 44.717999 
L 81.056693 48.668886 
L 82.885039 54.838002 
L 84.713386 57.670959 
L 86.541732 61.27639 
L 88.370079 62.411512 
L 90.198425 64.20198 
L 92.026772 65.932189 
L 93.855118 66.835762 
L 95.683465 67.529408 
L 97.511811 68.367764 
L 99.340157 69.000368 
L 101.168504 69.070297 
L 102.99685 70.103076 
L 104.825197 70.531176 
L 106.653543 71.147012 
L 108.48189 71.270817 
L 110.310236 71.509923 
L 112.138583 71.817929 
L 113.966929 72.013387 
L 115.795276 72.422235 
" clip-path="url(#paaaa61aeb6)" style="fill: none; stroke: #1f77b4; stroke-width: 1.5; stroke-linecap: square"/>
   </g>
   <g id="line2d_12">
    <path d="M 42.661417 63.985981 
L 43.575591 63.796498 
L 44.489764 63.594002 
L 45.403937 63.406657 
L 46.31811 63.193017 
L 47.232283 62.966502 
L 48.146457 62.739743 
L 49.06063 62.508961 
L 49.974803 62.281982 
L 50.888976 62.027318 
L 51.80315 61.732504 
L 52.717323 61.462204 
L 53.631496 61.179963 
L 54.545669 60.880169 
L 55.459843 60.592198 
L 56.374016 60.255902 
L 57.288189 59.919915 
L 58.202362 59.543398 
L 59.116535 59.172411 
L 60.030709 58.759805 
L 60.944882 58.351879 
L 61.859055 57.871553 
L 62.773228 57.402222 
L 63.687402 56.855339 
L 64.601575 56.331766 
L 65.515748 55.719558 
L 66.429921 55.068469 
L 67.344094 54.367284 
L 68.258268 53.57468 
L 69.172441 52.724551 
L 70.086614 51.761377 
L 71.000787 50.64401 
L 71.914961 49.39563 
L 72.829134 47.884286 
L 73.743307 46.038646 
L 74.65748 43.853157 
L 75.571654 40.862316 
L 76.485827 36.681468 
L 77.4 31.08793 
L 78.314173 24.713189 
L 79.228346 21.543859 
L 80.14252 24.842071 
L 81.056693 30.968768 
L 81.970866 36.610203 
L 82.885039 40.821404 
L 83.799213 43.777855 
L 84.713386 46.076332 
L 85.627559 47.855539 
L 86.541732 49.397108 
L 87.455906 50.650164 
L 88.370079 51.75362 
L 89.284252 52.698181 
L 90.198425 53.583021 
L 91.112598 54.366675 
L 92.026772 55.053178 
L 92.940945 55.764056 
L 93.855118 56.342885 
L 94.769291 56.889105 
L 95.683465 57.395793 
L 96.597638 57.871403 
L 97.511811 58.348378 
L 98.425984 58.755574 
L 99.340157 59.169009 
L 100.254331 59.540654 
L 101.168504 59.901893 
L 102.082677 60.246576 
L 102.99685 60.588875 
L 103.911024 60.875258 
L 104.825197 61.209351 
L 105.73937 61.473515 
L 106.653543 61.7632 
L 107.567717 62.012322 
L 108.48189 62.268255 
L 109.396063 62.501703 
L 110.310236 62.749919 
L 111.224409 62.986431 
L 112.138583 63.204101 
L 113.052756 63.403791 
L 113.966929 63.601871 
L 114.881102 63.786511 
L 115.795276 63.990205 
" clip-path="url(#paaaa61aeb6)" style="fill: none; stroke: #ff7f0e; stroke-width: 1.5; stroke-linecap: square"/>
   </g>
   <g id="line2d_13">
    <path d="M 42.661417 64.126161 
L 43.897127 63.872709 
L 45.132837 63.608156 
L 46.368547 63.331639 
L 47.604257 63.042169 
L 48.839967 62.738666 
L 50.075677 62.419884 
L 51.311387 62.084425 
L 52.547097 61.730703 
L 53.782807 61.356868 
L 55.018518 60.960853 
L 56.254228 60.540169 
L 57.489938 60.091984 
L 58.725648 59.612919 
L 59.961358 59.098919 
L 61.197068 58.545254 
L 62.432778 57.945898 
L 63.668488 57.293757 
L 64.904198 56.579617 
L 66.139908 55.791872 
L 67.375618 54.915702 
L 68.611328 53.930231 
L 69.847038 52.809075 
L 71.082748 51.510831 
L 72.318458 49.97753 
L 73.554168 48.114893 
L 74.789878 45.74539 
L 76.025588 43.256285 
L 77.261298 38.771156 
L 78.497008 15.422009 
L 79.959685 15.422009 
L 81.195395 38.771156 
L 82.431105 43.256285 
L 83.666815 45.74539 
L 84.902525 48.114893 
L 86.138235 49.97753 
L 87.373945 51.510831 
L 88.609655 52.809075 
L 89.845365 53.930231 
L 91.081075 54.915702 
L 92.316785 55.791872 
L 93.552495 56.579617 
L 94.788205 57.293757 
L 96.023915 57.945898 
L 97.259625 58.545254 
L 98.495335 59.098919 
L 99.731045 59.612919 
L 100.966755 60.091984 
L 102.202465 60.540169 
L 103.438175 60.960853 
L 104.673885 61.356868 
L 105.909595 61.730703 
L 107.145305 62.084425 
L 108.381015 62.419884 
L 109.616725 62.738666 
L 110.852436 63.042169 
L 112.088146 63.331639 
L 113.323856 63.608156 
L 114.559566 63.872709 
L 115.795276 64.126161 
" clip-path="url(#paaaa61aeb6)" style="fill: none; stroke-dasharray: 2,3.3; stroke-dashoffset: 0; stroke: #000000; stroke-width: 2"/>
   </g>
   <g id="line2d_14">
    <path d="M 42.661417 75.069336 
L 43.897127 74.904471 
L 45.132837 74.730339 
L 46.368547 74.546155 
L 47.604257 74.351024 
L 48.839967 74.143954 
L 50.075677 73.923806 
L 51.311387 73.689293 
L 52.547097 73.438945 
L 53.782807 73.171053 
L 55.018518 72.883679 
L 56.254228 72.574509 
L 57.489938 72.240875 
L 58.725648 71.879594 
L 59.961358 71.486838 
L 61.197068 71.058093 
L 62.432778 70.587641 
L 63.668488 70.068662 
L 64.904198 69.492323 
L 66.139908 68.84743 
L 67.375618 68.119588 
L 68.611328 67.288605 
L 69.847038 66.328545 
L 71.082748 65.199075 
L 72.318458 63.842993 
L 73.554168 62.167193 
L 74.789878 59.996632 
L 76.025588 57.675677 
L 77.261298 53.416597 
L 78.497008 30.420518 
L 79.959685 29.48835 
L 81.195395 51.625676 
L 82.431105 55.675315 
L 83.666815 57.876571 
L 84.902525 59.937223 
L 86.138235 61.529682 
L 87.373945 62.820531 
L 88.609655 63.898091 
L 89.845365 64.816453 
L 91.081075 65.613727 
L 92.316785 66.31431 
L 93.552495 66.937214 
L 94.788205 67.495945 
L 96.023915 68.001002 
L 97.259625 68.460661 
L 98.495335 68.881294 
L 99.731045 69.268257 
L 100.966755 69.625756 
L 102.202465 69.957369 
L 103.438175 70.266063 
L 104.673885 70.554322 
L 105.909595 70.824309 
L 107.145305 71.077822 
L 108.381015 71.316456 
L 109.616725 71.541578 
L 110.852436 71.754386 
L 112.088146 71.955941 
L 113.323856 72.147164 
L 114.559566 72.32889 
L 115.795276 72.501849 
" clip-path="url(#paaaa61aeb6)" style="fill: none; stroke-dasharray: 2,3.3; stroke-dashoffset: 0; stroke: #000000; stroke-width: 2"/>
   </g>
   <g id="patch_3">
    <path d="M 42.661417 79.228346 
L 42.661417 12.188976 
" style="fill: none; stroke: #000000; stroke-width: 0.8; stroke-linejoin: miter; stroke-linecap: square"/>
   </g>
   <g id="patch_4">
    <path d="M 115.795276 79.228346 
L 115.795276 12.188976 
" style="fill: none; stroke: #000000; stroke-width: 0.8; stroke-linejoin: miter; stroke-linecap: square"/>
   </g>
   <g id="patch_5">
    <path d="M 42.661417 79.228346 
L 115.795276 79.228346 
" style="fill: none; stroke: #000000; stroke-width: 0.8; stroke-linejoin: miter; stroke-linecap: square"/>
   </g>
   <g id="patch_6">
    <path d="M 42.661417 12.188976 
L 115.795276 12.188976 
" style="fill: none; stroke: #000000; stroke-width: 0.8; stroke-linejoin: miter; stroke-linecap: square"/>
   </g>
  </g>
 </g>
 <defs>
  <clipPath id="paaaa61aeb6">
   <rect x="42.661417" y="12.188976" width="73.133858" height="67.03937"/>
  </clipPath>
 </defs>
</svg>
